<svg viewBox="0 0 330 200" xmlns="http://www.w3.org/2000/svg"><g><g><g><g><g><line x1="41.171875" y1="177" x2="36.171875" y2="177" style="visibility: inherit;" fill="rgb(0, 0, 0)" stroke="rgb(204, 204, 204)" stroke-width="1px"></line><line x1="41.171875" y1="160.9090909090909" x2="36.171875" y2="160.9090909090909" style="visibility: inherit;" fill="rgb(0, 0, 0)" stroke="rgb(204, 204, 204)" stroke-width="1px"></line><line x1="41.171875" y1="144.8181818181818" x2="36.171875" y2="144.8181818181818" style="visibility: inherit;" fill="rgb(0, 0, 0)" stroke="rgb(204, 204, 204)" stroke-width="1px"></line><line x1="41.171875" y1="128.72727272727272" x2="36.171875" y2="128.72727272727272" style="visibility: inherit;" fill="rgb(0, 0, 0)" stroke="rgb(204, 204, 204)" stroke-width="1px"></line><line x1="41.171875" y1="112.63636363636361" x2="36.171875" y2="112.63636363636361" style="visibility: inherit;" fill="rgb(0, 0, 0)" stroke="rgb(204, 204, 204)" stroke-width="1px"></line><line x1="41.171875" y1="96.54545454545453" x2="36.171875" y2="96.54545454545453" style="visibility: inherit;" fill="rgb(0, 0, 0)" stroke="rgb(204, 204, 204)" stroke-width="1px"></line><line x1="41.171875" y1="80.45454545454544" x2="36.171875" y2="80.45454545454544" style="visibility: inherit;" fill="rgb(0, 0, 0)" stroke="rgb(204, 204, 204)" stroke-width="1px"></line><line x1="41.171875" y1="64.36363636363635" x2="36.171875" y2="64.36363636363635" style="visibility: inherit;" fill="rgb(0, 0, 0)" stroke="rgb(204, 204, 204)" stroke-width="1px"></line><line x1="41.171875" y1="48.27272727272725" x2="36.171875" y2="48.27272727272725" style="visibility: inherit;" fill="rgb(0, 0, 0)" stroke="rgb(204, 204, 204)" stroke-width="1px"></line><line x1="41.171875" y1="32.18181818181815" x2="36.171875" y2="32.18181818181815" style="visibility: inherit;" fill="rgb(0, 0, 0)" stroke="rgb(204, 204, 204)" stroke-width="1px"></line><line x1="41.171875" y1="16.090909090909076" x2="36.171875" y2="16.090909090909076" style="visibility: inherit;" fill="rgb(0, 0, 0)" stroke="rgb(204, 204, 204)" stroke-width="1px"></line><line x1="41.171875" y1="0" x2="36.171875" y2="0" style="visibility: inherit;" fill="rgb(0, 0, 0)" stroke="rgb(204, 204, 204)" stroke-width="1px"></line></g><g transform="translate(31.171875, 0)"><text x="0" y="177" dx="0em" dy="0.3em" style="text-anchor: end; visibility: hidden; font-family: Roboto, sans-serif; font-size: 12px; font-weight: 200;" fill="rgb(33, 33, 33)" stroke="none" stroke-width="1px">0.1</text><text x="0" y="160.9090909090909" dx="0em" dy="0.3em" style="text-anchor: end; visibility: inherit; font-family: Roboto, sans-serif; font-size: 12px; font-weight: 200;" fill="rgb(33, 33, 33)" stroke="none" stroke-width="1px">0.2</text><text x="0" y="144.8181818181818" dx="0em" dy="0.3em" style="text-anchor: end; visibility: hidden; font-family: Roboto, sans-serif; font-size: 12px; font-weight: 200;" fill="rgb(33, 33, 33)" stroke="none" stroke-width="1px">0.3</text><text x="0" y="128.72727272727272" dx="0em" dy="0.3em" style="text-anchor: end; visibility: inherit; font-family: Roboto, sans-serif; font-size: 12px; font-weight: 200;" fill="rgb(33, 33, 33)" stroke="none" stroke-width="1px">0.4</text><text x="0" y="112.63636363636361" dx="0em" dy="0.3em" style="text-anchor: end; visibility: hidden; font-family: Roboto, sans-serif; font-size: 12px; font-weight: 200;" fill="rgb(33, 33, 33)" stroke="none" stroke-width="1px">0.5</text><text x="0" y="96.54545454545453" dx="0em" dy="0.3em" style="text-anchor: end; visibility: inherit; font-family: Roboto, sans-serif; font-size: 12px; font-weight: 200;" fill="rgb(33, 33, 33)" stroke="none" stroke-width="1px">0.6</text><text x="0" y="80.45454545454544" dx="0em" dy="0.3em" style="text-anchor: end; visibility: hidden; font-family: Roboto, sans-serif; font-size: 12px; font-weight: 200;" fill="rgb(33, 33, 33)" stroke="none" stroke-width="1px">0.7</text><text x="0" y="64.36363636363635" dx="0em" dy="0.3em" style="text-anchor: end; visibility: inherit; font-family: Roboto, sans-serif; font-size: 12px; font-weight: 200;" fill="rgb(33, 33, 33)" stroke="none" stroke-width="1px">0.8</text><text x="0" y="48.27272727272725" dx="0em" dy="0.3em" style="text-anchor: end; visibility: hidden; font-family: Roboto, sans-serif; font-size: 12px; font-weight: 200;" fill="rgb(33, 33, 33)" stroke="none" stroke-width="1px">0.9</text><text x="0" y="32.18181818181815" dx="0em" dy="0.3em" style="text-anchor: end; visibility: inherit; font-family: Roboto, sans-serif; font-size: 12px; font-weight: 200;" fill="rgb(33, 33, 33)" stroke="none" stroke-width="1px">1</text><text x="0" y="16.090909090909076" dx="0em" dy="0.3em" style="text-anchor: end; visibility: hidden; font-family: Roboto, sans-serif; font-size: 12px; font-weight: 200;" fill="rgb(33, 33, 33)" stroke="none" stroke-width="1px">1.1</text><text x="0" y="0" dx="0em" dy="0.3em" style="text-anchor: end; visibility: hidden; font-family: Roboto, sans-serif; font-size: 12px; font-weight: 200;" fill="rgb(33, 33, 33)" stroke="none" stroke-width="1px">1.2</text></g><line x1="41.171875" y1="0" x2="41.171875" y2="177" fill="rgb(0, 0, 0)" stroke="rgb(204, 204, 204)" stroke-width="1px"></line></g></g><g transform="translate(41, 0)" clip-path="url(#clip_0)"><clipPath id="clip_0"><rect width="288" height="177"></rect></clipPath><g><g><g><line x1="0" y1="0" x2="0" y2="177" fill="rgb(0, 0, 0)" stroke="rgb(66, 66, 66)" stroke-width="1px" opacity="0.25"></line><line x1="20.630580357142858" y1="0" x2="20.630580357142858" y2="177" fill="rgb(0, 0, 0)" stroke="rgb(66, 66, 66)" stroke-width="1px" opacity="0.25"></line><line x1="41.261160714285715" y1="0" x2="41.261160714285715" y2="177" fill="rgb(0, 0, 0)" stroke="rgb(66, 66, 66)" stroke-width="1px" opacity="0.25"></line><line x1="61.89174107142857" y1="0" x2="61.89174107142857" y2="177" fill="rgb(0, 0, 0)" stroke="rgb(66, 66, 66)" stroke-width="1px" opacity="0.25"></line><line x1="82.52232142857143" y1="0" x2="82.52232142857143" y2="177" fill="rgb(0, 0, 0)" stroke="rgb(66, 66, 66)" stroke-width="1px" opacity="0.25"></line><line x1="103.15290178571429" y1="0" x2="103.15290178571429" y2="177" fill="rgb(0, 0, 0)" stroke="rgb(66, 66, 66)" stroke-width="1px" opacity="0.25"></line><line x1="123.78348214285714" y1="0" x2="123.78348214285714" y2="177" fill="rgb(0, 0, 0)" stroke="rgb(66, 66, 66)" stroke-width="1px" opacity="0.25"></line><line x1="144.4140625" y1="0" x2="144.4140625" y2="177" fill="rgb(0, 0, 0)" stroke="rgb(66, 66, 66)" stroke-width="1px" opacity="0.25"></line><line x1="165.04464285714286" y1="0" x2="165.04464285714286" y2="177" fill="rgb(0, 0, 0)" stroke="rgb(66, 66, 66)" stroke-width="1px" opacity="0.25"></line><line x1="185.67522321428572" y1="0" x2="185.67522321428572" y2="177" fill="rgb(0, 0, 0)" stroke="rgb(66, 66, 66)" stroke-width="1px" opacity="0.25"></line><line x1="206.30580357142858" y1="0" x2="206.30580357142858" y2="177" fill="rgb(0, 0, 0)" stroke="rgb(66, 66, 66)" stroke-width="1px" opacity="0.25"></line><line x1="226.93638392857142" y1="0" x2="226.93638392857142" y2="177" fill="rgb(0, 0, 0)" stroke="rgb(66, 66, 66)" stroke-width="1px" opacity="0.25"></line><line x1="247.56696428571428" y1="0" x2="247.56696428571428" y2="177" fill="rgb(0, 0, 0)" stroke="rgb(66, 66, 66)" stroke-width="1px" opacity="0.25"></line><line x1="268.19754464285717" y1="0" x2="268.19754464285717" y2="177" fill="rgb(0, 0, 0)" stroke="rgb(66, 66, 66)" stroke-width="1px" opacity="0.25"></line><line x1="288.828125" y1="0" x2="288.828125" y2="177" fill="rgb(0, 0, 0)" stroke="rgb(66, 66, 66)" stroke-width="1px" opacity="0.25"></line></g><g><line x1="0" y1="177" x2="288.828125" y2="177" fill="rgb(0, 0, 0)" stroke="rgb(66, 66, 66)" stroke-width="1px" opacity="0.25"></line><line x1="0" y1="160.9090909090909" x2="288.828125" y2="160.9090909090909" fill="rgb(0, 0, 0)" stroke="rgb(66, 66, 66)" stroke-width="1px" opacity="0.25"></line><line x1="0" y1="144.8181818181818" x2="288.828125" y2="144.8181818181818" fill="rgb(0, 0, 0)" stroke="rgb(66, 66, 66)" stroke-width="1px" opacity="0.25"></line><line x1="0" y1="128.72727272727272" x2="288.828125" y2="128.72727272727272" fill="rgb(0, 0, 0)" stroke="rgb(66, 66, 66)" stroke-width="1px" opacity="0.25"></line><line x1="0" y1="112.63636363636361" x2="288.828125" y2="112.63636363636361" fill="rgb(0, 0, 0)" stroke="rgb(66, 66, 66)" stroke-width="1px" opacity="0.25"></line><line x1="0" y1="96.54545454545453" x2="288.828125" y2="96.54545454545453" fill="rgb(0, 0, 0)" stroke="rgb(66, 66, 66)" stroke-width="1px" opacity="0.25"></line><line x1="0" y1="80.45454545454544" x2="288.828125" y2="80.45454545454544" fill="rgb(0, 0, 0)" stroke="rgb(66, 66, 66)" stroke-width="1px" opacity="0.25"></line><line x1="0" y1="64.36363636363635" x2="288.828125" y2="64.36363636363635" fill="rgb(0, 0, 0)" stroke="rgb(66, 66, 66)" stroke-width="1px" opacity="0.25"></line><line x1="0" y1="48.27272727272725" x2="288.828125" y2="48.27272727272725" fill="rgb(0, 0, 0)" stroke="rgb(66, 66, 66)" stroke-width="1px" opacity="0.25"></line><line x1="0" y1="32.18181818181815" x2="288.828125" y2="32.18181818181815" fill="rgb(0, 0, 0)" stroke="rgb(66, 66, 66)" stroke-width="1px" opacity="0.25"></line><line x1="0" y1="16.090909090909076" x2="288.828125" y2="16.090909090909076" fill="rgb(0, 0, 0)" stroke="rgb(66, 66, 66)" stroke-width="1px" opacity="0.25"></line><line x1="0" y1="0" x2="288.828125" y2="0" fill="rgb(0, 0, 0)" stroke="rgb(66, 66, 66)" stroke-width="1px" opacity="0.25"></line></g></g></g><g><g><line x1="0" y1="193.09090909090907" x2="288.828125" y2="193.09090909090907" fill="rgb(0, 0, 0)" stroke="rgb(153, 153, 153)" stroke-width="1.5px"></line></g></g><g><g><line x1="20.630580357142858" y1="0" x2="20.630580357142858" y2="177" fill="rgb(0, 0, 0)" stroke="rgb(153, 153, 153)" stroke-width="1.5px"></line></g></g><g><g><g><g><g><path stroke="rgb(255, 112, 67)" stroke-width="2px" d="M21.662109375,18.435216080058684L22.693638392857142,20.213590150529658L23.725167410714285,21.44998570497045L24.756696428571427,21.411685853319998L25.788225446428573,34.017238583378834L26.819754464285715,34.250764581955096L27.851283482142858,41.698119130224065L28.8828125,40.19696168512875L29.914341517857146,47.669426770288844L30.945870535714285,51.73850134690521L31.977399553571427,56.131716211402825L33.00892857142857,69.22880848937909L34.040457589285715,77.46758383921777L35.071986607142854,90.64054132022478L36.103515625,92.8652614157341L37.13504464285714,103.00434176748672L38.166573660714285,110.17457375045889L39.19810267857142,109.28929852934269L40.22963169642857,108.82900700537836L41.261160714285715,103.81300449729932L42.29268973214286,109.71563030636194L43.32421875,111.97364212578529L44.355747767857146,118.7496536693885L45.387276785714285,113.36914638754473L46.41880580357143,100.91858590263894L47.45033482142857,116.26055880269685L48.48186383928571,114.42276464125544L49.513392857142854,114.87428695296416L50.544921875,117.69664338981278L51.576450892857146,123.42447417552233L52.607979910714285,130.40002952754546L53.63950892857143,130.71423454733866L54.67103794642857,129.09931173858715L55.702566964285715,133.45081305850772L56.734095982142854,126.9650030732572L57.765625,129.24917024131568L58.797154017857146,128.27264545406126L59.82868303571429,129.01123791367291L60.86021205357143,130.93040095005583L61.89174107142857,138.89158895027398L62.923270089285715,138.8663881965616L63.954799107142854,136.20545071251397L64.986328125,129.31081672857312L66.01785714285714,125.55464852866817L67.04938616071429,117.87939098407885L68.08091517857143,126.91049683813081L69.11244419642857,132.65145777158224L70.14397321428571,123.54755412396405L71.17550223214286,132.42487681759675L72.20703125,139.47455324773964L73.23856026785714,129.48766336354632L74.27008928571428,138.18974027671052L75.30161830357143,133.74889060692334L76.33314732142857,125.44648734503645L77.36467633928571,124.05929022567307L78.39620535714285,120.83253701432342L79.427734375,123.46828346628646L80.45926339285714,126.5855536856253L81.49079241071429,135.64164905969733L82.52232142857143,137.0562983737582L83.55385044642858,127.13400642789537L84.58537946428572,127.13797939034401L85.61690848214286,134.80127132498853L86.6484375,136.18076082695612L87.67996651785714,137.99446151414784L88.71149553571429,145.2161828167612L89.74302455357143,141.4509725785316L90.77455357142857,139.06720655602038L91.80608258928571,140.15616754394227L92.83761160714286,145.49506695851196L93.869140625,141.08529292758467L94.90066964285714,141.62747064036552L95.93219866071428,131.94231780162002L96.96372767857142,138.75534996428055L97.99525669642857,144.20879673492777L99.02678571428571,145.54302906060792L100.05831473214286,147.66241137640603L101.08984375,146.88075517796722L102.12137276785715,136.95942885388877L103.15290178571429,138.09476516995073L104.18443080357143,143.66502176733758L105.21595982142857,146.20079341646291L106.24748883928572,143.68685376117384L107.27901785714286,127.33834738198587L108.310546875,128.9450331044741L109.34207589285714,124.06731889593614L110.37360491071428,129.74933962465855L111.40513392857143,136.70819140610743L112.43666294642857,138.24121106999252L113.46819196428571,141.63346658983474L114.49972098214285,135.8540425491469L115.53125,139.20836619525338L116.56277901785714,142.65622567473815L117.59430803571429,146.13860596349488L118.62583705357143,133.88129498548787L119.65736607142858,139.58375772663803L120.68889508928572,139.37336148192523L121.72042410714286,137.5695800624492L122.751953125,131.36616742537362L123.78348214285714,139.51794723553297L124.81501116071429,139.1474754781675L125.84654017857143,137.994363971638L126.87806919642857,140.7598774275433L127.90959821428571,147.8195701493662L128.94112723214286,150.19386698761994L129.97265625,151.95936234189898L131.00418526785714,148.5194175142224L132.03571428571428,151.77181201241194L133.06724330357142,151.57000454105005L134.09877232142858,151.82586851239623L135.13030133928572,145.67217893152053L136.16183035714286,146.74817428276472L137.193359375,149.6434908206576L138.22488839285714,145.43689226913696L139.25641741071428,152.14358580106537L140.28794642857142,140.65822251706473L141.31947544642856,139.13157954257218L142.35100446428572,137.56933968438688L143.38253348214286,143.04542711047358L144.4140625,137.29831750465974L145.44559151785714,142.85487734404964L146.47712053571428,147.54760622458318L147.50864955357142,146.5190917092254L148.54017857142856,147.8804938674764L149.57170758928572,148.79925029434267L150.60323660714286,142.1924407387498L151.634765625,149.9432185007873L152.66629464285714,150.2166152512549L153.69782366071428,156.03992206546775L154.72935267857142,153.7971273366019L155.76088169642856,151.85988198593233L156.7924107142857,151.27007872171006L157.82393973214283,146.25728013806713L158.85546875,146.35575192929664L159.88699776785714,148.5195490725338L160.91852678571428,149.28562477871773L161.95005580357142,147.90111098944868L162.98158482142858,149.4853142894707L164.01311383928572,147.34814019404445L165.04464285714286,140.76110238456104L166.076171875,145.64169870011216L167.10770089285717,148.64452909562496L168.1392299107143,150.7266191073269L169.17075892857144,150.9808765503933L170.20228794642858,149.1096893266378L171.23381696428572,151.50320729380803L172.26534598214286,149.88231872668348L173.296875,147.1379419796333L174.32840401785714,145.91438524592635L175.35993303571428,152.43654779160883L176.39146205357144,146.09532451803767L177.42299107142858,152.7052683634802L178.45452008928572,151.04185507858713L179.48604910714286,145.19574393132282L180.517578125,152.0143592944408L181.54910714285714,135.59970658528428L182.58063616071428,142.80677415164158L183.61216517857142,144.19428271897831L184.64369419642856,140.82179073167399L185.67522321428572,142.73423641183055L186.70675223214286,146.5579509506653L187.73828125,148.51702465290552L188.76981026785714,149.80440844537017L189.80133928571428,149.85126382646408L190.83286830357142,150.39572391071746L191.86439732142856,140.565978061474L192.8959263392857,137.98908569837064L193.92745535714283,143.93026645544927L194.958984375,150.86601101116776L195.99051339285714,154.5232012143573L197.02204241071428,121.3300815635337L198.05357142857142,122.4303142111277L199.08510044642858,135.3333976934635L200.11662946428572,136.89760751818048L201.14815848214286,141.01585445416987L202.1796875,145.81992178599577L203.21121651785717,145.7210400645548L204.2427455357143,149.54605462329363L205.27427455357144,141.87563905929682L206.30580357142858,146.38673956500764L207.33733258928572,149.27099606361173L208.36886160714286,150.43163968575436L209.400390625,148.38458084191888L210.43191964285714,154.11098342071125L211.46344866071428,156.09013066304362L212.49497767857144,154.22277857918036L213.52650669642858,153.12409653806873L214.55803571428572,151.27578089236457L215.58956473214286,153.28917221675766L216.62109375,154.65950279721073L217.65262276785714,152.26519121807976L218.68415178571428,148.9522463900955L219.71568080357142,155.62598531709057L220.74720982142856,152.1533541429722L221.77873883928572,143.35464031932312L222.81026785714286,147.23809473179315L223.841796875,143.346803986532L224.87332589285714,149.535102768298L225.90485491071428,151.607230382568L226.93638392857142,153.6102466535281L227.96791294642856,153.14267174693032L228.9994419642857,157.05709469600856L230.03097098214283,156.40668696226192L231.0625,158.33966653058565L232.09402901785714,158.0252766617894L233.12555803571428,153.5273404213318L234.15708705357142,151.2794233225574L235.18861607142858,153.71399827486107L236.22014508928572,154.06408678972946L237.25167410714286,155.52932206735093L238.283203125,153.0036497979792L239.31473214285717,154.0943896291676L240.3462611607143,153.81416390862384L241.37779017857144,153.92490776115628L242.40931919642858,154.3265532120107L243.44084821428572,153.72928847456208L244.47237723214286,157.79601173044688L245.50390625,158.13311169193872L246.53543526785714,158.85135790549276L247.56696428571428,153.6100689743151L248.59849330357144,155.9661701837241L249.63002232142858,150.52403234519554L250.66155133928572,148.81409720391463L251.69308035714286,153.13814153449903L252.724609375,140.17851993601369L253.75613839285714,142.7679077781164L254.78766741071428,149.96267280018415L255.81919642857142,154.15258627447048L256.85072544642856,153.67158928266338L257.8822544642857,154.6372678725627L258.9137834821429,154.24165732717393L259.9453125,150.46881745816071L260.97684151785717,148.22877627728678L262.0083705357143,145.94865002377534L263.03989955357144,150.33457552063504L264.07142857142856,151.0147411808905L265.1029575892857,152.82037994883768L266.13448660714283,154.5505783524543L267.166015625,155.62271737960646L268.19754464285717,156.7020188239403" style="fill: none;" fill="none"></path></g><g><path stroke="rgb(0, 119, 187)" stroke-width="2px" d="M20.630580357142858,11.672479261051526L41.261160714285715,70.29189088940619L61.89174107142857,97.32553598234958L82.52232142857143,112.20225178787018L103.15290178571429,121.51449141848104L123.78348214285714,128.35838604789524L144.4140625,133.15892409041413L165.04464285714286,136.59787705611473L185.67522321428572,139.08688322174905L226.93638392857142,141.40816756085997L268.19754464285717,143.38992271724018" style="fill: none;" fill="none"></path></g></g></g></g><g opacity="0.2"><g><g><g><path stroke="rgb(255, 112, 67)" stroke-width="2px" d="M21.662109375,18.435216080058684L22.693638392857142,21.280614592812263L23.725167410714285,22.63692543723365L24.756696428571427,21.36664522777902L25.788225446428573,50.47504822774364L26.819754464285715,34.57381510734556L27.851283482142858,52.34795529192143L28.8828125,38.00825971906834L29.914341517857146,58.68986131928182L30.945870535714285,57.78060286695306L31.977399553571427,62.68169237266885L33.00892857142857,88.80317310853437L34.040457589285715,89.7988458329981L35.071986607142854,110.37417034669355L36.103515625,96.1997264840386L37.13504464285714,118.20581143010745L38.166573660714285,120.92688752304421L39.19810267857142,107.96161046895111L40.22963169642857,108.1386398402127L41.261160714285715,96.2894592176784L42.29268973214286,118.5692453059283L43.32421875,115.36058555407956L44.355747767857146,128.9135372042656L45.387276785714285,105.29844920201734L46.41880580357143,82.2428336685354L47.45033482142857,139.2734527262774L48.48186383928571,111.66607810150491L49.513392857142854,115.5515697273341L50.544921875,121.93017544529654L51.576450892857146,132.01621718840164L52.607979910714285,140.86336024241015L53.63950892857143,131.18554201451212L54.67103794642857,126.67692771824923L55.702566964285715,139.97806472669947L56.734095982142854,117.23628837412053L57.765625,132.67542093450373L58.797154017857146,126.80785828828812L59.82868303571429,130.11912659623405L60.86021205357143,133.80914549394086L61.89174107142857,150.83337092399597L62.923270089285715,138.8285870660435L63.954799107142854,132.21404448964378L64.986328125,118.96886575763875L66.01785714285714,119.92039623043753L67.04938616071429,106.36650466918945L68.08091517857143,140.45715561780062L69.11244419642857,141.26289917122233L70.14397321428571,109.89169865304773L71.17550223214286,145.7408608577468L72.20703125,150.0490678928115L73.23856026785714,114.50732853737743L74.27008928571428,151.2428556463935L75.30161830357143,127.08761610226196L76.33314732142857,112.99288245222785L77.36467633928571,121.97849454663016L78.39620535714285,115.99240719730203L79.427734375,127.42190314422952L80.45926339285714,131.2614590146325L81.49079241071429,149.22579212080348L82.52232142857143,139.17827234484932L83.55385044642858,112.25056850910187L84.58537946428572,127.14393883401696L85.61690848214286,146.29620922695506L86.6484375,138.24999507990748L87.67996651785714,140.7150125449354L88.71149553571429,156.0487647706812L89.74302455357143,135.80315722118723L90.77455357142857,135.49155752225354L91.80608258928571,141.78960902582514L92.83761160714286,153.5034160803665L93.869140625,134.47063188119367L94.90066964285714,142.44073720953682L95.93219866071428,117.41458854350174L96.96372767857142,148.97489820827138L97.99525669642857,152.38896689089862L99.02678571428571,147.5443775491281L100.05831473214286,150.8414848501032L101.08984375,145.70827088030902L102.12137276785715,122.07743936777115L103.15290178571429,139.79776964404365L104.18443080357143,152.02040666341782L105.21595982142857,150.00445089015093L106.24748883928572,139.9159442782402L107.27901785714286,102.81558781320398L108.310546875,131.3550616882064L109.34207589285714,116.75074758312918L110.37360491071428,138.27237071774223L111.40513392857143,147.14646907828072L112.43666294642857,140.5407405658202L113.46819196428571,146.72184986959803L114.49972098214285,127.18490648811513L115.53125,144.2398516644131L116.56277901785714,147.82801489396527L117.59430803571429,151.36217639663002L118.62583705357143,115.49532851847732L119.65736607142858,148.1374518383633L120.68889508928572,139.05776711485603L121.72042410714286,134.86390793323517L122.751953125,122.0610484697602L123.78348214285714,151.74561695077202L124.81501116071429,138.5917678421194L125.84654017857143,136.26469671184367L126.87806919642857,144.9081476114013L127.90959821428571,158.40910923210058L128.94112723214286,153.75531224500048L129.97265625,154.60760537331754L131.00418526785714,143.3595002727075L132.03571428571428,156.65040375969627L133.06724330357142,151.26729333400726L134.09877232142858,152.2096644694155L135.13030133928572,136.441644560207L136.16183035714286,148.362167309631L137.193359375,153.9864656274969L138.22488839285714,139.12699444185603L139.25641741071428,162.20362609895793L140.28794642857142,123.43017759106375L141.31947544642856,136.84161508083344L142.35100446428572,135.22597989710894L143.38253348214286,151.25955824960363L144.4140625,128.67765309593895L145.44559151785714,151.1897171031345L146.47712053571428,154.58669954538345L147.50864955357142,144.97631993618876L148.54017857142856,149.92259710485285L149.57170758928572,150.1773849346421L150.60323660714286,132.2822264053605L151.634765625,161.56938514384356L152.66629464285714,150.62671037695625L153.69782366071428,164.77488228678703L154.72935267857142,150.43293524330312L155.76088169642856,148.954013959928L156.7924107142857,150.3853738253767L157.82393973214283,138.73808226260272L158.85546875,146.50345961614087L159.88699776785714,151.76524478738958L160.91852678571428,150.43473833799362L161.95005580357142,145.82434030554512L162.98158482142858,151.86161923950368L164.01311383928572,144.14237905090505L165.04464285714286,130.88054567033595L166.076171875,152.96259317343885L167.10770089285717,153.1487746888941L168.1392299107143,153.84975412487984L169.17075892857144,151.36226271499288L170.20228794642858,146.3029084910046L171.23381696428572,155.09348424456337L172.26534598214286,147.45098587599665L173.296875,143.02137685905802L174.32840401785714,144.07905014536598L175.35993303571428,162.21979161013257L176.39146205357144,136.58348960768092L177.42299107142858,162.62018413164398L178.45452008928572,148.54673515124753L179.48604910714286,136.42657721042633L180.517578125,162.24228233911774L181.54910714285714,110.97772752154955L182.58063616071428,153.61737550117752L183.61216517857142,146.2755455699834L184.64369419642856,135.7630527507175L185.67522321428572,145.60290493206546L186.70675223214286,152.29352275891736L187.73828125,151.4556352062659L188.76981026785714,151.73548413406718L189.80133928571428,149.92154689810494L190.83286830357142,151.21241403709757L191.86439732142856,125.82135928760873L192.8959263392857,134.12374715371564L193.92745535714283,152.84203759106722L194.958984375,161.26962784474546L195.99051339285714,160.00898651914164L197.02204241071428,71.54040208729828L198.05357142857142,124.0806631825187L199.08510044642858,154.6880229169672L200.11662946428572,139.24392225525597L201.14815848214286,147.19322485815394L202.1796875,153.0260227837346L203.21121651785717,145.57271748239344L204.2427455357143,155.28357646140185L205.27427455357144,130.37001571330157L206.30580357142858,153.1533903235739L207.33733258928572,153.5973808115179L208.36886160714286,152.17260511896828L209.400390625,145.31399257616565L210.43191964285714,162.70058728889987L211.46344866071428,159.05885152654216L212.49497767857144,151.4217504533854L213.52650669642858,151.47607347640124L214.55803571428572,148.50330742380837L215.58956473214286,156.3092592033473L216.62109375,156.71499866789037L217.65262276785714,148.67372384938326L218.68415178571428,143.98282914811915L219.71568080357142,165.63659370758316L220.74720982142856,146.94440738179466L221.77873883928572,130.15656958384946L222.81026785714286,153.0632763504982L223.841796875,137.5098678686402L224.87332589285714,158.8175509409471L225.90485491071428,154.71542180397293L226.93638392857142,156.61477105996826L227.96791294642856,152.44130938703364L228.9994419642857,162.92872911962596L230.03097098214283,155.43107536164197L231.0625,161.2391358830712L232.09402901785714,157.55369185859507L233.12555803571428,146.78043606064537L234.15708705357142,147.90754767439583L235.18861607142858,157.3658607033166L236.22014508928572,154.589219562032L237.25167410714286,157.72717498378321L238.283203125,149.21514139392158L239.31473214285717,155.73049937595022L240.3462611607143,153.3938253278082L241.37779017857144,154.09102353995496L242.40931919642858,154.9290213882923L243.44084821428572,152.83339136838913L244.47237723214286,163.89609661427411L245.50390625,158.63876163417643L246.53543526785714,159.92872722582385L247.56696428571428,145.74813557754862L248.59849330357144,159.50032199783757L249.63002232142858,142.3608255874027L250.66155133928572,146.2491944919933L251.69308035714286,159.62420803037557L252.724609375,120.73908753828567L253.75613839285714,146.65198954127052L254.78766741071428,160.75482033328578L255.81919642857142,160.43745648590001L256.85072544642856,152.95009379495275L257.8822544642857,156.0857857574116L258.9137834821429,153.64824150909078L259.9453125,144.80955765464088L260.97684151785717,144.8687145059759L262.0083705357143,142.52846064350823L263.03989955357144,156.91346376592463L264.07142857142856,152.03498967127368L265.1029575892857,155.52883810075846L266.13448660714283,157.14587595787916L267.166015625,157.23092592033473L268.19754464285717,158.32097099044105" style="fill: none;" fill="none"></path></g><g><path stroke="rgb(0, 119, 187)" stroke-width="2px" d="M20.630580357142858,11.672479261051526L41.261160714285715,105.463537866419L61.89174107142857,123.27783527157523L82.52232142857143,129.69726957516235L103.15290178571429,133.67255148020655L123.78348214285714,137.82595612244174L144.4140625,140.02377029982478L165.04464285714286,141.61190349405462L185.67522321428572,142.75768385150215L226.93638392857142,144.8550042726777L268.19754464285717,146.3445810783993" style="fill: none;" fill="none"></path></g></g></g></g></g></g><g transform="translate(41, 177)" clip-path="url(#clip_1)"><clipPath id="clip_1"><rect width="288" height="23"></rect></clipPath><g><g><line x1="0" y1="0" x2="0" y2="5" style="visibility: inherit;" fill="rgb(0, 0, 0)" stroke="rgb(204, 204, 204)" stroke-width="1px"></line><line x1="20.630580357142858" y1="0" x2="20.630580357142858" y2="5" style="visibility: inherit;" fill="rgb(0, 0, 0)" stroke="rgb(204, 204, 204)" stroke-width="1px"></line><line x1="41.261160714285715" y1="0" x2="41.261160714285715" y2="5" style="visibility: inherit;" fill="rgb(0, 0, 0)" stroke="rgb(204, 204, 204)" stroke-width="1px"></line><line x1="61.89174107142857" y1="0" x2="61.89174107142857" y2="5" style="visibility: inherit;" fill="rgb(0, 0, 0)" stroke="rgb(204, 204, 204)" stroke-width="1px"></line><line x1="82.52232142857143" y1="0" x2="82.52232142857143" y2="5" style="visibility: inherit;" fill="rgb(0, 0, 0)" stroke="rgb(204, 204, 204)" stroke-width="1px"></line><line x1="103.15290178571429" y1="0" x2="103.15290178571429" y2="5" style="visibility: inherit;" fill="rgb(0, 0, 0)" stroke="rgb(204, 204, 204)" stroke-width="1px"></line><line x1="123.78348214285714" y1="0" x2="123.78348214285714" y2="5" style="visibility: inherit;" fill="rgb(0, 0, 0)" stroke="rgb(204, 204, 204)" stroke-width="1px"></line><line x1="144.4140625" y1="0" x2="144.4140625" y2="5" style="visibility: inherit;" fill="rgb(0, 0, 0)" stroke="rgb(204, 204, 204)" stroke-width="1px"></line><line x1="165.04464285714286" y1="0" x2="165.04464285714286" y2="5" style="visibility: inherit;" fill="rgb(0, 0, 0)" stroke="rgb(204, 204, 204)" stroke-width="1px"></line><line x1="185.67522321428572" y1="0" x2="185.67522321428572" y2="5" style="visibility: inherit;" fill="rgb(0, 0, 0)" stroke="rgb(204, 204, 204)" stroke-width="1px"></line><line x1="206.30580357142858" y1="0" x2="206.30580357142858" y2="5" style="visibility: inherit;" fill="rgb(0, 0, 0)" stroke="rgb(204, 204, 204)" stroke-width="1px"></line><line x1="226.93638392857142" y1="0" x2="226.93638392857142" y2="5" style="visibility: inherit;" fill="rgb(0, 0, 0)" stroke="rgb(204, 204, 204)" stroke-width="1px"></line><line x1="247.56696428571428" y1="0" x2="247.56696428571428" y2="5" style="visibility: inherit;" fill="rgb(0, 0, 0)" stroke="rgb(204, 204, 204)" stroke-width="1px"></line><line x1="268.19754464285717" y1="0" x2="268.19754464285717" y2="5" style="visibility: inherit;" fill="rgb(0, 0, 0)" stroke="rgb(204, 204, 204)" stroke-width="1px"></line><line x1="288.828125" y1="0" x2="288.828125" y2="5" style="visibility: inherit;" fill="rgb(0, 0, 0)" stroke="rgb(204, 204, 204)" stroke-width="1px"></line></g><g transform="translate(0, 8)"><text x="0" y="0" dx="0em" dy="0.95em" style="text-anchor: middle; visibility: hidden; font-family: Roboto, sans-serif; font-size: 12px; font-weight: 200;" fill="rgb(33, 33, 33)" stroke="none" stroke-width="1px">-2k</text><text x="20.630580357142858" y="0" dx="0em" dy="0.95em" style="text-anchor: middle; visibility: inherit; font-family: Roboto, sans-serif; font-size: 12px; font-weight: 200;" fill="rgb(33, 33, 33)" stroke="none" stroke-width="1px">0</text><text x="41.261160714285715" y="0" dx="0em" dy="0.95em" style="text-anchor: middle; visibility: hidden; font-family: Roboto, sans-serif; font-size: 12px; font-weight: 200;" fill="rgb(33, 33, 33)" stroke="none" stroke-width="1px">2k</text><text x="61.89174107142857" y="0" dx="0em" dy="0.95em" style="text-anchor: middle; visibility: inherit; font-family: Roboto, sans-serif; font-size: 12px; font-weight: 200;" fill="rgb(33, 33, 33)" stroke="none" stroke-width="1px">4k</text><text x="82.52232142857143" y="0" dx="0em" dy="0.95em" style="text-anchor: middle; visibility: hidden; font-family: Roboto, sans-serif; font-size: 12px; font-weight: 200;" fill="rgb(33, 33, 33)" stroke="none" stroke-width="1px">6k</text><text x="103.15290178571429" y="0" dx="0em" dy="0.95em" style="text-anchor: middle; visibility: inherit; font-family: Roboto, sans-serif; font-size: 12px; font-weight: 200;" fill="rgb(33, 33, 33)" stroke="none" stroke-width="1px">8k</text><text x="123.78348214285714" y="0" dx="0em" dy="0.95em" style="text-anchor: middle; visibility: hidden; font-family: Roboto, sans-serif; font-size: 12px; font-weight: 200;" fill="rgb(33, 33, 33)" stroke="none" stroke-width="1px">10k</text><text x="144.4140625" y="0" dx="0em" dy="0.95em" style="text-anchor: middle; visibility: inherit; font-family: Roboto, sans-serif; font-size: 12px; font-weight: 200;" fill="rgb(33, 33, 33)" stroke="none" stroke-width="1px">12k</text><text x="165.04464285714286" y="0" dx="0em" dy="0.95em" style="text-anchor: middle; visibility: hidden; font-family: Roboto, sans-serif; font-size: 12px; font-weight: 200;" fill="rgb(33, 33, 33)" stroke="none" stroke-width="1px">14k</text><text x="185.67522321428572" y="0" dx="0em" dy="0.95em" style="text-anchor: middle; visibility: inherit; font-family: Roboto, sans-serif; font-size: 12px; font-weight: 200;" fill="rgb(33, 33, 33)" stroke="none" stroke-width="1px">16k</text><text x="206.30580357142858" y="0" dx="0em" dy="0.95em" style="text-anchor: middle; visibility: hidden; font-family: Roboto, sans-serif; font-size: 12px; font-weight: 200;" fill="rgb(33, 33, 33)" stroke="none" stroke-width="1px">18k</text><text x="226.93638392857142" y="0" dx="0em" dy="0.95em" style="text-anchor: middle; visibility: inherit; font-family: Roboto, sans-serif; font-size: 12px; font-weight: 200;" fill="rgb(33, 33, 33)" stroke="none" stroke-width="1px">20k</text><text x="247.56696428571428" y="0" dx="0em" dy="0.95em" style="text-anchor: middle; visibility: hidden; font-family: Roboto, sans-serif; font-size: 12px; font-weight: 200;" fill="rgb(33, 33, 33)" stroke="none" stroke-width="1px">22k</text><text x="268.19754464285717" y="0" dx="0em" dy="0.95em" style="text-anchor: middle; visibility: inherit; font-family: Roboto, sans-serif; font-size: 12px; font-weight: 200;" fill="rgb(33, 33, 33)" stroke="none" stroke-width="1px">24k</text><text x="288.828125" y="0" dx="0em" dy="0.95em" style="text-anchor: middle; visibility: hidden; font-family: Roboto, sans-serif; font-size: 12px; font-weight: 200;" fill="rgb(33, 33, 33)" stroke="none" stroke-width="1px">26k</text></g><line x1="0" y1="0" x2="288.828125" y2="0" fill="rgb(0, 0, 0)" stroke="rgb(204, 204, 204)" stroke-width="1px"></line></g></g></g></g></svg>