<svg viewBox="0 0 330 200" xmlns="http://www.w3.org/2000/svg"><g><g><g><g><g><line x1="41.171875" y1="177" x2="36.171875" y2="177" style="visibility: inherit;" fill="rgb(0, 0, 0)" stroke="rgb(204, 204, 204)" stroke-width="1px"></line><line x1="41.171875" y1="162.25" x2="36.171875" y2="162.25" style="visibility: inherit;" fill="rgb(0, 0, 0)" stroke="rgb(204, 204, 204)" stroke-width="1px"></line><line x1="41.171875" y1="147.5" x2="36.171875" y2="147.5" style="visibility: inherit;" fill="rgb(0, 0, 0)" stroke="rgb(204, 204, 204)" stroke-width="1px"></line><line x1="41.171875" y1="132.75" x2="36.171875" y2="132.75" style="visibility: inherit;" fill="rgb(0, 0, 0)" stroke="rgb(204, 204, 204)" stroke-width="1px"></line><line x1="41.171875" y1="118" x2="36.171875" y2="118" style="visibility: inherit;" fill="rgb(0, 0, 0)" stroke="rgb(204, 204, 204)" stroke-width="1px"></line><line x1="41.171875" y1="103.24999999999999" x2="36.171875" y2="103.24999999999999" style="visibility: inherit;" fill="rgb(0, 0, 0)" stroke="rgb(204, 204, 204)" stroke-width="1px"></line><line x1="41.171875" y1="88.5" x2="36.171875" y2="88.5" style="visibility: inherit;" fill="rgb(0, 0, 0)" stroke="rgb(204, 204, 204)" stroke-width="1px"></line><line x1="41.171875" y1="73.75" x2="36.171875" y2="73.75" style="visibility: inherit;" fill="rgb(0, 0, 0)" stroke="rgb(204, 204, 204)" stroke-width="1px"></line><line x1="41.171875" y1="58.999999999999986" x2="36.171875" y2="58.999999999999986" style="visibility: inherit;" fill="rgb(0, 0, 0)" stroke="rgb(204, 204, 204)" stroke-width="1px"></line><line x1="41.171875" y1="44.25" x2="36.171875" y2="44.25" style="visibility: inherit;" fill="rgb(0, 0, 0)" stroke="rgb(204, 204, 204)" stroke-width="1px"></line><line x1="41.171875" y1="29.499999999999993" x2="36.171875" y2="29.499999999999993" style="visibility: inherit;" fill="rgb(0, 0, 0)" stroke="rgb(204, 204, 204)" stroke-width="1px"></line><line x1="41.171875" y1="14.749999999999988" x2="36.171875" y2="14.749999999999988" style="visibility: inherit;" fill="rgb(0, 0, 0)" stroke="rgb(204, 204, 204)" stroke-width="1px"></line><line x1="41.171875" y1="0" x2="36.171875" y2="0" style="visibility: inherit;" fill="rgb(0, 0, 0)" stroke="rgb(204, 204, 204)" stroke-width="1px"></line></g><g transform="translate(31.171875, 0)"><text x="0" y="177" dx="0em" dy="0.3em" style="text-anchor: end; visibility: hidden; font-family: Roboto, sans-serif; font-size: 12px; font-weight: 200;" fill="rgb(33, 33, 33)" stroke="none" stroke-width="1px">0</text><text x="0" y="162.25" dx="0em" dy="0.3em" style="text-anchor: end; visibility: inherit; font-family: Roboto, sans-serif; font-size: 12px; font-weight: 200;" fill="rgb(33, 33, 33)" stroke="none" stroke-width="1px">0.1</text><text x="0" y="147.5" dx="0em" dy="0.3em" style="text-anchor: end; visibility: hidden; font-family: Roboto, sans-serif; font-size: 12px; font-weight: 200;" fill="rgb(33, 33, 33)" stroke="none" stroke-width="1px">0.2</text><text x="0" y="132.75" dx="0em" dy="0.3em" style="text-anchor: end; visibility: inherit; font-family: Roboto, sans-serif; font-size: 12px; font-weight: 200;" fill="rgb(33, 33, 33)" stroke="none" stroke-width="1px">0.3</text><text x="0" y="118" dx="0em" dy="0.3em" style="text-anchor: end; visibility: hidden; font-family: Roboto, sans-serif; font-size: 12px; font-weight: 200;" fill="rgb(33, 33, 33)" stroke="none" stroke-width="1px">0.4</text><text x="0" y="103.24999999999999" dx="0em" dy="0.3em" style="text-anchor: end; visibility: inherit; font-family: Roboto, sans-serif; font-size: 12px; font-weight: 200;" fill="rgb(33, 33, 33)" stroke="none" stroke-width="1px">0.5</text><text x="0" y="88.5" dx="0em" dy="0.3em" style="text-anchor: end; visibility: hidden; font-family: Roboto, sans-serif; font-size: 12px; font-weight: 200;" fill="rgb(33, 33, 33)" stroke="none" stroke-width="1px">0.6</text><text x="0" y="73.75" dx="0em" dy="0.3em" style="text-anchor: end; visibility: inherit; font-family: Roboto, sans-serif; font-size: 12px; font-weight: 200;" fill="rgb(33, 33, 33)" stroke="none" stroke-width="1px">0.7</text><text x="0" y="58.999999999999986" dx="0em" dy="0.3em" style="text-anchor: end; visibility: hidden; font-family: Roboto, sans-serif; font-size: 12px; font-weight: 200;" fill="rgb(33, 33, 33)" stroke="none" stroke-width="1px">0.8</text><text x="0" y="44.25" dx="0em" dy="0.3em" style="text-anchor: end; visibility: inherit; font-family: Roboto, sans-serif; font-size: 12px; font-weight: 200;" fill="rgb(33, 33, 33)" stroke="none" stroke-width="1px">0.9</text><text x="0" y="29.499999999999993" dx="0em" dy="0.3em" style="text-anchor: end; visibility: hidden; font-family: Roboto, sans-serif; font-size: 12px; font-weight: 200;" fill="rgb(33, 33, 33)" stroke="none" stroke-width="1px">1</text><text x="0" y="14.749999999999988" dx="0em" dy="0.3em" style="text-anchor: end; visibility: inherit; font-family: Roboto, sans-serif; font-size: 12px; font-weight: 200;" fill="rgb(33, 33, 33)" stroke="none" stroke-width="1px">1.1</text><text x="0" y="0" dx="0em" dy="0.3em" style="text-anchor: end; visibility: hidden; font-family: Roboto, sans-serif; font-size: 12px; font-weight: 200;" fill="rgb(33, 33, 33)" stroke="none" stroke-width="1px">1.2</text></g><line x1="41.171875" y1="0" x2="41.171875" y2="177" fill="rgb(0, 0, 0)" stroke="rgb(204, 204, 204)" stroke-width="1px"></line></g></g><g transform="translate(41, 0)" clip-path="url(#clip_0)"><clipPath id="clip_0"><rect width="288" height="177"></rect></clipPath><g><g><g><line x1="0" y1="0" x2="0" y2="177" fill="rgb(0, 0, 0)" stroke="rgb(66, 66, 66)" stroke-width="1px" opacity="0.25"></line><line x1="20.630580357142858" y1="0" x2="20.630580357142858" y2="177" fill="rgb(0, 0, 0)" stroke="rgb(66, 66, 66)" stroke-width="1px" opacity="0.25"></line><line x1="41.261160714285715" y1="0" x2="41.261160714285715" y2="177" fill="rgb(0, 0, 0)" stroke="rgb(66, 66, 66)" stroke-width="1px" opacity="0.25"></line><line x1="61.89174107142857" y1="0" x2="61.89174107142857" y2="177" fill="rgb(0, 0, 0)" stroke="rgb(66, 66, 66)" stroke-width="1px" opacity="0.25"></line><line x1="82.52232142857143" y1="0" x2="82.52232142857143" y2="177" fill="rgb(0, 0, 0)" stroke="rgb(66, 66, 66)" stroke-width="1px" opacity="0.25"></line><line x1="103.15290178571429" y1="0" x2="103.15290178571429" y2="177" fill="rgb(0, 0, 0)" stroke="rgb(66, 66, 66)" stroke-width="1px" opacity="0.25"></line><line x1="123.78348214285714" y1="0" x2="123.78348214285714" y2="177" fill="rgb(0, 0, 0)" stroke="rgb(66, 66, 66)" stroke-width="1px" opacity="0.25"></line><line x1="144.4140625" y1="0" x2="144.4140625" y2="177" fill="rgb(0, 0, 0)" stroke="rgb(66, 66, 66)" stroke-width="1px" opacity="0.25"></line><line x1="165.04464285714286" y1="0" x2="165.04464285714286" y2="177" fill="rgb(0, 0, 0)" stroke="rgb(66, 66, 66)" stroke-width="1px" opacity="0.25"></line><line x1="185.67522321428572" y1="0" x2="185.67522321428572" y2="177" fill="rgb(0, 0, 0)" stroke="rgb(66, 66, 66)" stroke-width="1px" opacity="0.25"></line><line x1="206.30580357142858" y1="0" x2="206.30580357142858" y2="177" fill="rgb(0, 0, 0)" stroke="rgb(66, 66, 66)" stroke-width="1px" opacity="0.25"></line><line x1="226.93638392857142" y1="0" x2="226.93638392857142" y2="177" fill="rgb(0, 0, 0)" stroke="rgb(66, 66, 66)" stroke-width="1px" opacity="0.25"></line><line x1="247.56696428571428" y1="0" x2="247.56696428571428" y2="177" fill="rgb(0, 0, 0)" stroke="rgb(66, 66, 66)" stroke-width="1px" opacity="0.25"></line><line x1="268.19754464285717" y1="0" x2="268.19754464285717" y2="177" fill="rgb(0, 0, 0)" stroke="rgb(66, 66, 66)" stroke-width="1px" opacity="0.25"></line><line x1="288.828125" y1="0" x2="288.828125" y2="177" fill="rgb(0, 0, 0)" stroke="rgb(66, 66, 66)" stroke-width="1px" opacity="0.25"></line></g><g><line x1="0" y1="177" x2="288.828125" y2="177" fill="rgb(0, 0, 0)" stroke="rgb(66, 66, 66)" stroke-width="1px" opacity="0.25"></line><line x1="0" y1="162.25" x2="288.828125" y2="162.25" fill="rgb(0, 0, 0)" stroke="rgb(66, 66, 66)" stroke-width="1px" opacity="0.25"></line><line x1="0" y1="147.5" x2="288.828125" y2="147.5" fill="rgb(0, 0, 0)" stroke="rgb(66, 66, 66)" stroke-width="1px" opacity="0.25"></line><line x1="0" y1="132.75" x2="288.828125" y2="132.75" fill="rgb(0, 0, 0)" stroke="rgb(66, 66, 66)" stroke-width="1px" opacity="0.25"></line><line x1="0" y1="118" x2="288.828125" y2="118" fill="rgb(0, 0, 0)" stroke="rgb(66, 66, 66)" stroke-width="1px" opacity="0.25"></line><line x1="0" y1="103.24999999999999" x2="288.828125" y2="103.24999999999999" fill="rgb(0, 0, 0)" stroke="rgb(66, 66, 66)" stroke-width="1px" opacity="0.25"></line><line x1="0" y1="88.5" x2="288.828125" y2="88.5" fill="rgb(0, 0, 0)" stroke="rgb(66, 66, 66)" stroke-width="1px" opacity="0.25"></line><line x1="0" y1="73.75" x2="288.828125" y2="73.75" fill="rgb(0, 0, 0)" stroke="rgb(66, 66, 66)" stroke-width="1px" opacity="0.25"></line><line x1="0" y1="58.999999999999986" x2="288.828125" y2="58.999999999999986" fill="rgb(0, 0, 0)" stroke="rgb(66, 66, 66)" stroke-width="1px" opacity="0.25"></line><line x1="0" y1="44.25" x2="288.828125" y2="44.25" fill="rgb(0, 0, 0)" stroke="rgb(66, 66, 66)" stroke-width="1px" opacity="0.25"></line><line x1="0" y1="29.499999999999993" x2="288.828125" y2="29.499999999999993" fill="rgb(0, 0, 0)" stroke="rgb(66, 66, 66)" stroke-width="1px" opacity="0.25"></line><line x1="0" y1="14.749999999999988" x2="288.828125" y2="14.749999999999988" fill="rgb(0, 0, 0)" stroke="rgb(66, 66, 66)" stroke-width="1px" opacity="0.25"></line><line x1="0" y1="0" x2="288.828125" y2="0" fill="rgb(0, 0, 0)" stroke="rgb(66, 66, 66)" stroke-width="1px" opacity="0.25"></line></g></g></g><g><g><line x1="0" y1="177" x2="288.828125" y2="177" fill="rgb(0, 0, 0)" stroke="rgb(153, 153, 153)" stroke-width="1.5px"></line></g></g><g><g><line x1="20.630580357142858" y1="0" x2="20.630580357142858" y2="177" fill="rgb(0, 0, 0)" stroke="rgb(153, 153, 153)" stroke-width="1.5px"></line></g></g><g><g><g><g><g><path stroke="rgb(255, 112, 67)" stroke-width="2px" d="M21.662109375,126.6214684098959L22.693638392857142,132.22902221418917L23.725167410714285,136.07897877753996L24.756696428571427,133.6426799276515L25.788225446428573,133.3681989106803L26.819754464285715,135.84298686644365L27.851283482142858,141.54805142770533L28.8828125,142.82897552262685L29.914341517857146,145.48623537206143L30.945870535714285,139.16640679359165L31.977399553571427,141.64161823002695L33.00892857142857,140.59539864528722L34.040457589285715,144.00216274153655L35.071986607142854,145.13420259148202L36.103515625,145.27989331394468L37.13504464285714,141.49607904064308L38.166573660714285,144.7467357556774L39.19810267857142,147.73444337700855L40.22963169642857,145.82542524919225L41.261160714285715,146.68485974353698L42.29268973214286,143.75670502348797L43.32421875,148.7664970941313L44.355747767857146,146.7030642535066L45.387276785714285,143.9396108221972L46.41880580357143,145.0422891782305L47.45033482142857,145.0584981185474L48.48186383928571,142.34287741848757L49.513392857142854,142.72577703308033L50.544921875,142.0988351974217L51.576450892857146,141.4205377642822L52.607979910714285,142.6614809874362L53.63950892857143,143.30548048040635L54.67103794642857,147.88351139246248L55.702566964285715,147.38111455085198L56.734095982142854,151.80310518798757L57.765625,147.98938469682926L58.797154017857146,146.6653330219987L59.82868303571429,149.27723251616456L60.86021205357143,146.84898738520064L61.89174107142857,143.54825602004806L62.923270089285715,146.34423862043687L63.954799107142854,145.13003634241602L64.986328125,147.66061022847873L66.01785714285714,149.4619835199257L67.04938616071429,147.66247474123253L68.08091517857143,141.86171281879257L69.11244419642857,146.18202906294007L70.14397321428571,148.0310805258173L71.17550223214286,152.51851639408068L72.20703125,149.0186630889979L73.23856026785714,147.85012024671505L74.27008928571428,147.55397472399787L75.30161830357143,149.16906761597863L76.33314732142857,149.8398768631899L77.36467633928571,148.5942397134465L78.39620535714285,146.51764782768183L79.427734375,144.37361415029534L80.45926339285714,148.2848830151621L81.49079241071429,150.32871891129412L82.52232142857143,149.59811266999478L83.55385044642858,149.52445967341086L84.58537946428572,149.3495082637347L85.61690848214286,148.73217735175353L86.6484375,147.64078501751462L87.67996651785714,150.1104327403929L88.71149553571429,137.48741061469468L89.74302455357143,131.5604962347779L90.77455357142857,140.63390129738053L91.80608258928571,145.93229776282905L92.83761160714286,148.6155329564798L93.869140625,149.10103601036L94.90066964285714,153.1942352492662L95.93219866071428,152.7656213724048L96.96372767857142,152.62431866427846L97.99525669642857,152.22750343084684L99.02678571428571,149.28808112561913L100.05831473214286,150.0604350276006L101.08984375,151.340177309943L102.12137276785715,151.75980337407157L103.15290178571429,150.19432627228477L104.18443080357143,150.59474424164046L105.21595982142857,155.0651842051181L106.24748883928572,153.4098131801744L107.27901785714286,149.6197999206817L108.310546875,149.2269022308371L109.34207589285714,150.92851605073102L110.37360491071428,152.4151588026016L111.40513392857143,153.88285212775048L112.43666294642857,156.9275805342792L113.46819196428571,158.82378880909673L114.49972098214285,157.49986831981892L115.53125,155.0134375401673L116.56277901785714,154.0158379380904L117.59430803571429,150.58938518792405L118.62583705357143,152.47895190793284L119.65736607142858,151.562722415793L120.68889508928572,146.0427031344581L121.72042410714286,147.17776590445092L122.751953125,149.99190111075907L123.78348214285714,151.06034688422125L124.81501116071429,152.7626182154956L125.84654017857143,146.49179517126933L126.87806919642857,150.9843657278827L127.90959821428571,149.47956269465752L128.94112723214286,147.25665507306377L129.97265625,152.52118753993346L131.00418526785714,145.21957546832462L132.03571428571428,147.72840831197678L133.06724330357142,150.4379490853392L134.09877232142858,150.25947206563012L135.13030133928572,152.7334953626767L136.16183035714286,150.47678973262163L137.193359375,147.66623821249397L138.22488839285714,150.98202621573682L139.25641741071428,149.72747623106525L140.28794642857142,151.8750915061276L141.31947544642856,151.3243794847036L142.35100446428572,153.4244549398723L143.38253348214286,152.06685685665028L144.4140625,153.08898476690422L145.44559151785714,127.84282622295838L146.47712053571428,138.00761807297602L147.50864955357142,145.52778249284586L148.54017857142856,149.49746318638896L149.57170758928572,146.00675564098702L150.60323660714286,141.06144347243517L151.634765625,140.16760278614169L152.66629464285714,139.15908993406177L153.69782366071428,147.66733090801884L154.72935267857142,155.36246153696686L155.76088169642856,156.23389214863963L156.7924107142857,152.19432926828017L157.82393973214283,146.71189132126779L158.85546875,150.43989181990986L159.88699776785714,152.98766457125882L160.91852678571428,146.48815173557603L161.95005580357142,149.9673413881731L162.98158482142858,150.68947571212485L164.01311383928572,153.4324436378147L165.04464285714286,149.34927137444413L166.076171875,152.92933426648375L167.10770089285717,153.11517602413892L168.1392299107143,153.20729365473986L169.17075892857144,154.71838024870158L170.20228794642858,155.48795488843678L171.23381696428572,158.0030403680763L172.26534598214286,154.76522569043408L173.296875,156.898660575944L174.32840401785714,158.69021691119542L175.35993303571428,156.41772715887944L176.39146205357144,156.21991052711917L177.42299107142858,154.64635051777907L178.45452008928572,153.8064619183001L179.48604910714286,153.22530083831887L180.517578125,154.3815604506537L181.54910714285714,151.8427437221172L182.58063616071428,152.95515692086L183.61216517857142,150.91254592747077L184.64369419642856,152.14347901231397L185.67522321428572,154.09592089227647L186.70675223214286,156.35599093241578L187.73828125,155.85187503458909L188.76981026785714,158.45495412058742L189.80133928571428,153.5282509166426L190.83286830357142,153.05149562289873L191.86439732142856,154.89819975275134L192.8959263392857,157.38901758687695L193.92745535714283,157.5111249238074L194.958984375,158.00342125891567L195.99051339285714,156.31796558915926L197.02204241071428,155.66596791576953L198.05357142857142,158.6828146110869L199.08510044642858,158.28505136256794L200.11662946428572,158.58327041229833L201.14815848214286,157.3397401610686L202.1796875,157.12387755153617L203.21121651785717,155.3801389046791L204.2427455357143,154.79221241523518L205.27427455357144,141.89627849966107L206.30580357142858,149.3021060565699L207.33733258928572,150.35450150606567L208.36886160714286,151.69399032317122L209.400390625,153.1017172176988L210.43191964285714,150.20583158071943L211.46344866071428,153.39294414720598L212.49497767857144,152.4171396136383L213.52650669642858,152.57525937796234L214.55803571428572,153.06486471021532L215.58956473214286,150.1020101548693L216.62109375,152.7403353537L217.65262276785714,154.05752442388993L218.68415178571428,156.52609758144177L219.71568080357142,156.43297420779203L220.74720982142856,154.41857561373314L221.77873883928572,151.24043283107042L222.81026785714286,150.70638197804786L223.841796875,153.69423619595347L224.87332589285714,154.5144547205399L225.90485491071428,154.194277210905L226.93638392857142,154.65290661983124L227.96791294642856,156.13294954200046L228.9994419642857,156.23801507413066L230.03097098214283,155.57540013408467L231.0625,158.0977352977741L232.09402901785714,157.90310891395498L233.12555803571428,155.9408467258554L234.15708705357142,155.87025355074056L235.18861607142858,158.31761714829952L236.22014508928572,157.26778239020078L237.25167410714286,158.53613426839334L238.283203125,157.89357352885617L239.31473214285717,155.52977078636297L240.3462611607143,155.62419615077857L241.37779017857144,157.7746843688958L242.40931919642858,159.34393483062226L243.44084821428572,155.73992191648267L244.47237723214286,154.244412716602L245.50390625,153.67283121727388L246.53543526785714,153.70625875283767L247.56696428571428,154.01045110755854L248.59849330357144,157.5884045433026L249.63002232142858,156.68222043341527L250.66155133928572,155.6444629813798L251.69308035714286,157.3118521398644L252.724609375,141.91859262742642L253.75613839285714,149.7696356210592L254.78766741071428,154.58869146755234L255.81919642857142,151.946392643159L256.85072544642856,151.0059819178017L257.8822544642857,152.6015008453269L258.9137834821429,152.89927932701943L259.9453125,154.24857247520944L260.97684151785717,156.04662125795758L262.0083705357143,160.04222657376334L263.03989955357144,160.016147697531L264.07142857142856,154.18076441261937L265.1029575892857,156.26243778958184L266.13448660714283,156.5423224979297L267.166015625,156.95755463323925L268.19754464285717,155.3680589168187" style="fill: none;" fill="none"></path></g><g><path stroke="rgb(0, 119, 187)" stroke-width="2px" d="M20.630580357142858,10.653669059276568L41.261160714285715,90.6594816111028L61.89174107142857,116.183584228158L82.52232142857143,127.94226104042987L103.15290178571429,134.2460966992614L123.78348214285714,137.53545911567312L144.4140625,139.69478159182637L165.04464285714286,140.64906625477073L185.67522321428572,141.081308983996L206.30580357142858,141.6486725726099L226.93638392857142,142.21088285803583L247.56696428571428,141.58777827681206L268.19754464285717,141.38745212123564" style="fill: none;" fill="none"></path></g></g></g></g><g opacity="0.2"><g><g><g><path stroke="rgb(255, 112, 67)" stroke-width="2px" d="M21.662109375,126.6214684098959L22.693638392857142,135.59355449676514L23.725167410714285,139.77493707835674L24.756696428571427,130.77759248018265L25.788225446428573,133.00983649492264L26.819754464285715,139.26650953292847L27.851283482142858,149.7063850313425L28.8828125,144.69657514989376L29.914341517857146,149.40517750382423L30.945870535714285,129.78219789266586L31.977399553571427,145.331985399127L33.00892857142857,139.03176274895668L34.040457589285715,149.10118521004915L35.071986607142854,146.83004458248615L36.103515625,145.4982581436634L37.13504464285714,135.8230262696743L38.166573660714285,149.6213452592492L39.19810267857142,152.21524623036385L40.22963169642857,142.96218887716532L41.261160714285715,147.97393292933702L42.29268973214286,139.36463353037834L43.32421875,156.28102035075426L44.355747767857146,143.6079557314515L45.387276785714285,139.79446341097355L46.41880580357143,146.69629887491465L47.45033482142857,145.08281145989895L48.48186383928571,138.26945331692696L49.513392857142854,143.30012586712837L50.544921875,141.15842302143574L51.576450892857146,140.4030919894576L52.607979910714285,144.52289541065693L53.63950892857143,144.27147959172726L54.67103794642857,154.75055721402168L55.702566964285715,146.62751932442188L56.734095982142854,158.4360909536481L57.765625,142.26880405843258L58.797154017857146,144.67925553023815L59.82868303571429,153.19508173316717L60.86021205357143,143.20661970227957L61.89174107142857,138.5971589833498L62.923270089285715,150.53821251541376L63.954799107142854,143.30873292684555L64.986328125,151.45647105574608L66.01785714285714,152.164043456316L67.04938616071429,144.96321157366037L68.08091517857143,133.16056993603706L69.11244419642857,152.6625034287572L70.14397321428571,150.80465772002935L71.17550223214286,159.2496701963246L72.20703125,143.76888313144445L73.23856026785714,146.09730598330498L74.27008928571428,147.10975643992424L75.30161830357143,151.59170695394278L76.33314732142857,150.84609073400497L77.36467633928571,146.72578398883343L78.39620535714285,143.4027599990368L79.427734375,141.15756363421679L80.45926339285714,154.1517863124609L81.49079241071429,153.39447275549173L82.52232142857143,148.50220330804586L83.55385044642858,149.41398017853498L84.58537946428572,149.08708114922047L85.61690848214286,147.80618098378181L86.6484375,146.0036965161562L87.67996651785714,153.81490432471037L88.71149553571429,118.55287742614746L89.74302455357143,122.67012466490267L90.77455357142857,154.24400889128447L91.80608258928571,153.87989246100187L92.83761160714286,152.64038574695587L93.869140625,149.82929059118032L94.90066964285714,159.33403410762548L95.93219866071428,152.1227005571127L96.96372767857142,152.41236460208893L97.99525669642857,151.63228058069944L99.02678571428571,144.87894766777754L100.05831473214286,151.2189658805728L101.08984375,153.2597907334566L102.12137276785715,152.38924247026443L103.15290178571429,147.8461106196046L104.18443080357143,151.19537119567394L105.21595982142857,161.7708441503346L106.24748883928572,150.92675664275885L107.27901785714286,143.93478003144264L108.310546875,148.6375556960702L109.34207589285714,153.48093678057194L110.37360491071428,154.64512293040752L111.40513392857143,156.08439211547375L112.43666294642857,161.4946731440723L113.46819196428571,161.668101221323L114.49972098214285,155.5139875859022L115.53125,151.28379137068987L116.56277901785714,152.51943853497505L117.59430803571429,145.44970606267452L118.62583705357143,155.31330198794603L119.65736607142858,150.18837817758322L120.68889508928572,137.76267421245575L121.72042410714286,148.88036005944014L122.751953125,154.21310392022133L123.78348214285714,152.66301554441452L124.81501116071429,155.3160252124071L125.84654017857143,137.08556060492992L126.87806919642857,157.7232215628028L127.90959821428571,147.22235814481974L128.94112723214286,143.92229364067316L129.97265625,160.41798624023795L131.00418526785714,134.26715736091137L132.03571428571428,151.49165757745504L133.06724330357142,154.5022602453828L134.09877232142858,149.99175653606653L135.13030133928572,156.4445303082466L136.16183035714286,147.091731287539L137.193359375,143.45041093230247L138.22488839285714,155.95570822060108L139.25641741071428,147.84565125405788L140.28794642857142,155.0965144187212L141.31947544642856,150.49831145256758L142.35100446428572,156.57456812262535L143.38253348214286,150.03045973181725L144.4140625,154.62217663228512L145.44559151785714,89.97358840703963L146.47712053571428,153.25480584800243L147.50864955357142,156.80802912265062L148.54017857142856,155.45198422670364L149.57170758928572,140.77069432288408L150.60323660714286,133.64347521960735L151.634765625,138.82684175670147L152.66629464285714,137.64632065594196L153.69782366071428,160.42969236895442L154.72935267857142,166.90515748038888L155.76088169642856,157.54103806614876L156.7924107142857,146.13498494774103L157.82393973214283,138.4882344007492L158.85546875,156.031892567873L159.88699776785714,156.80932369828224L160.91852678571428,136.73888248205185L161.95005580357142,155.18612586706877L162.98158482142858,151.7726771980524L164.01311383928572,157.54689552634954L165.04464285714286,143.22451297938824L166.076171875,158.2994286045432L167.10770089285717,153.39393866062164L168.1392299107143,153.34547010064125L169.17075892857144,156.98501013964415L170.20228794642858,156.64231684803963L171.23381696428572,161.77566858753562L172.26534598214286,149.9085036739707L173.296875,160.0988129042089L174.32840401785714,161.3775514140725L175.35993303571428,153.00899253040552L176.39146205357144,155.92318557947874L177.42299107142858,152.28601050376892L178.45452008928572,152.5466290190816L179.48604910714286,152.35355921834707L180.517578125,156.11594986915588L181.54910714285714,148.03451862931252L182.58063616071428,154.6237767189741L183.61216517857142,147.848629437387L184.64369419642856,153.98987863957882L185.67522321428572,157.0245837122202L186.70675223214286,159.74609599262476L187.73828125,155.09570118784904L188.76981026785714,162.3595727495849L189.80133928571428,146.1381961107254L190.83286830357142,152.33636268228292L191.86439732142856,157.66825594753027L192.8959263392857,161.1252443380654L193.92745535714283,157.69428592920303L194.958984375,158.74186576157808L195.99051339285714,153.78978208452463L197.02204241071428,154.68797140568495L198.05357142857142,163.208084654063L199.08510044642858,157.6884064897895L200.11662946428572,159.0305989868939L201.14815848214286,155.47444478422403L202.1796875,156.80008363723755L203.21121651785717,152.7645309343934L204.2427455357143,153.91032268106937L205.27427455357144,122.55237762629986L206.30580357142858,160.4108473919332L207.33733258928572,151.9330946803093L208.36886160714286,153.70322354882956L209.400390625,155.2133075594902L210.43191964285714,145.86200312525034L211.46344866071428,158.17361299693584L212.49497767857144,150.95343281328678L213.52650669642858,152.8124390244484L214.55803571428572,153.7992727085948L215.58956473214286,145.6577283218503L216.62109375,156.69782315194607L217.65262276785714,156.0333080291748L218.68415178571428,160.22895731776953L219.71568080357142,156.2932891473174L220.74720982142856,151.3969777226448L221.77873883928572,146.47321865707636L222.81026785714286,149.90530569851398L223.841796875,158.1760175228119L224.87332589285714,155.7447825074196L225.90485491071428,153.71401094645262L226.93638392857142,155.34085073322058L227.96791294642856,158.35301392525434L228.9994419642857,156.3956133723259L230.03097098214283,154.5814777240157L231.0625,161.88123804330826L232.09402901785714,157.61116933822632L233.12555803571428,152.99745344370604L234.15708705357142,155.7643637880683L235.18861607142858,161.98866254463792L236.22014508928572,155.6930302530527L237.25167410714286,160.43866208568215L238.283203125,156.92973241955042L239.31473214285717,151.98406667262316L240.3462611607143,155.765834197402L241.37779017857144,161.00041669607162L242.40931919642858,161.69781052321196L243.44084821428572,150.3339025452733L244.47237723214286,152.00114891678095L245.50390625,152.81545896828175L246.53543526785714,153.75640005618334L247.56696428571428,154.46673963963985L248.59849330357144,162.95533469691873L249.63002232142858,155.32294426858425L250.66155133928572,154.0878268033266L251.69308035714286,159.81293587759137L252.724609375,118.8287033587694L253.75613839285714,161.54620011150837L254.78766741071428,161.81727523729205L255.81919642857142,147.982944406569L256.85072544642856,149.5953658297658L257.8822544642857,154.9947792366147L258.9137834821429,153.34594704955816L259.9453125,156.2725121974945L260.97684151785717,158.7436944320798L262.0083705357143,166.035634547472L263.03989955357144,159.97702938318253L264.07142857142856,145.4276894852519L265.1029575892857,159.38494785502553L266.13448660714283,156.9621495604515L267.166015625,157.58040283620358L268.19754464285717,152.98381534218788" style="fill: none;" fill="none"></path></g><g><path stroke="rgb(0, 119, 187)" stroke-width="2px" d="M20.630580357142858,10.653669059276568L41.261160714285715,138.66296914219856L61.89174107142857,140.68672274053097L82.52232142857143,141.77046497166157L103.15290178571429,142.47638453543186L123.78348214285714,142.08583150804043L144.4140625,142.78264728188515L165.04464285714286,142.04042245447636L185.67522321428572,141.71878305077553L206.30580357142858,142.49114137887955L226.93638392857142,143.04909908026457L247.56696428571428,140.65651231259108L268.19754464285717,141.08761698752642" style="fill: none;" fill="none"></path></g></g></g></g></g></g><g transform="translate(41, 177)" clip-path="url(#clip_1)"><clipPath id="clip_1"><rect width="288" height="23"></rect></clipPath><g><g><line x1="0" y1="0" x2="0" y2="5" style="visibility: inherit;" fill="rgb(0, 0, 0)" stroke="rgb(204, 204, 204)" stroke-width="1px"></line><line x1="20.630580357142858" y1="0" x2="20.630580357142858" y2="5" style="visibility: inherit;" fill="rgb(0, 0, 0)" stroke="rgb(204, 204, 204)" stroke-width="1px"></line><line x1="41.261160714285715" y1="0" x2="41.261160714285715" y2="5" style="visibility: inherit;" fill="rgb(0, 0, 0)" stroke="rgb(204, 204, 204)" stroke-width="1px"></line><line x1="61.89174107142857" y1="0" x2="61.89174107142857" y2="5" style="visibility: inherit;" fill="rgb(0, 0, 0)" stroke="rgb(204, 204, 204)" stroke-width="1px"></line><line x1="82.52232142857143" y1="0" x2="82.52232142857143" y2="5" style="visibility: inherit;" fill="rgb(0, 0, 0)" stroke="rgb(204, 204, 204)" stroke-width="1px"></line><line x1="103.15290178571429" y1="0" x2="103.15290178571429" y2="5" style="visibility: inherit;" fill="rgb(0, 0, 0)" stroke="rgb(204, 204, 204)" stroke-width="1px"></line><line x1="123.78348214285714" y1="0" x2="123.78348214285714" y2="5" style="visibility: inherit;" fill="rgb(0, 0, 0)" stroke="rgb(204, 204, 204)" stroke-width="1px"></line><line x1="144.4140625" y1="0" x2="144.4140625" y2="5" style="visibility: inherit;" fill="rgb(0, 0, 0)" stroke="rgb(204, 204, 204)" stroke-width="1px"></line><line x1="165.04464285714286" y1="0" x2="165.04464285714286" y2="5" style="visibility: inherit;" fill="rgb(0, 0, 0)" stroke="rgb(204, 204, 204)" stroke-width="1px"></line><line x1="185.67522321428572" y1="0" x2="185.67522321428572" y2="5" style="visibility: inherit;" fill="rgb(0, 0, 0)" stroke="rgb(204, 204, 204)" stroke-width="1px"></line><line x1="206.30580357142858" y1="0" x2="206.30580357142858" y2="5" style="visibility: inherit;" fill="rgb(0, 0, 0)" stroke="rgb(204, 204, 204)" stroke-width="1px"></line><line x1="226.93638392857142" y1="0" x2="226.93638392857142" y2="5" style="visibility: inherit;" fill="rgb(0, 0, 0)" stroke="rgb(204, 204, 204)" stroke-width="1px"></line><line x1="247.56696428571428" y1="0" x2="247.56696428571428" y2="5" style="visibility: inherit;" fill="rgb(0, 0, 0)" stroke="rgb(204, 204, 204)" stroke-width="1px"></line><line x1="268.19754464285717" y1="0" x2="268.19754464285717" y2="5" style="visibility: inherit;" fill="rgb(0, 0, 0)" stroke="rgb(204, 204, 204)" stroke-width="1px"></line><line x1="288.828125" y1="0" x2="288.828125" y2="5" style="visibility: inherit;" fill="rgb(0, 0, 0)" stroke="rgb(204, 204, 204)" stroke-width="1px"></line></g><g transform="translate(0, 8)"><text x="0" y="0" dx="0em" dy="0.95em" style="text-anchor: middle; visibility: hidden; font-family: Roboto, sans-serif; font-size: 12px; font-weight: 200;" fill="rgb(33, 33, 33)" stroke="none" stroke-width="1px">-2k</text><text x="20.630580357142858" y="0" dx="0em" dy="0.95em" style="text-anchor: middle; visibility: inherit; font-family: Roboto, sans-serif; font-size: 12px; font-weight: 200;" fill="rgb(33, 33, 33)" stroke="none" stroke-width="1px">0</text><text x="41.261160714285715" y="0" dx="0em" dy="0.95em" style="text-anchor: middle; visibility: hidden; font-family: Roboto, sans-serif; font-size: 12px; font-weight: 200;" fill="rgb(33, 33, 33)" stroke="none" stroke-width="1px">2k</text><text x="61.89174107142857" y="0" dx="0em" dy="0.95em" style="text-anchor: middle; visibility: inherit; font-family: Roboto, sans-serif; font-size: 12px; font-weight: 200;" fill="rgb(33, 33, 33)" stroke="none" stroke-width="1px">4k</text><text x="82.52232142857143" y="0" dx="0em" dy="0.95em" style="text-anchor: middle; visibility: hidden; font-family: Roboto, sans-serif; font-size: 12px; font-weight: 200;" fill="rgb(33, 33, 33)" stroke="none" stroke-width="1px">6k</text><text x="103.15290178571429" y="0" dx="0em" dy="0.95em" style="text-anchor: middle; visibility: inherit; font-family: Roboto, sans-serif; font-size: 12px; font-weight: 200;" fill="rgb(33, 33, 33)" stroke="none" stroke-width="1px">8k</text><text x="123.78348214285714" y="0" dx="0em" dy="0.95em" style="text-anchor: middle; visibility: hidden; font-family: Roboto, sans-serif; font-size: 12px; font-weight: 200;" fill="rgb(33, 33, 33)" stroke="none" stroke-width="1px">10k</text><text x="144.4140625" y="0" dx="0em" dy="0.95em" style="text-anchor: middle; visibility: inherit; font-family: Roboto, sans-serif; font-size: 12px; font-weight: 200;" fill="rgb(33, 33, 33)" stroke="none" stroke-width="1px">12k</text><text x="165.04464285714286" y="0" dx="0em" dy="0.95em" style="text-anchor: middle; visibility: hidden; font-family: Roboto, sans-serif; font-size: 12px; font-weight: 200;" fill="rgb(33, 33, 33)" stroke="none" stroke-width="1px">14k</text><text x="185.67522321428572" y="0" dx="0em" dy="0.95em" style="text-anchor: middle; visibility: inherit; font-family: Roboto, sans-serif; font-size: 12px; font-weight: 200;" fill="rgb(33, 33, 33)" stroke="none" stroke-width="1px">16k</text><text x="206.30580357142858" y="0" dx="0em" dy="0.95em" style="text-anchor: middle; visibility: hidden; font-family: Roboto, sans-serif; font-size: 12px; font-weight: 200;" fill="rgb(33, 33, 33)" stroke="none" stroke-width="1px">18k</text><text x="226.93638392857142" y="0" dx="0em" dy="0.95em" style="text-anchor: middle; visibility: inherit; font-family: Roboto, sans-serif; font-size: 12px; font-weight: 200;" fill="rgb(33, 33, 33)" stroke="none" stroke-width="1px">20k</text><text x="247.56696428571428" y="0" dx="0em" dy="0.95em" style="text-anchor: middle; visibility: hidden; font-family: Roboto, sans-serif; font-size: 12px; font-weight: 200;" fill="rgb(33, 33, 33)" stroke="none" stroke-width="1px">22k</text><text x="268.19754464285717" y="0" dx="0em" dy="0.95em" style="text-anchor: middle; visibility: inherit; font-family: Roboto, sans-serif; font-size: 12px; font-weight: 200;" fill="rgb(33, 33, 33)" stroke="none" stroke-width="1px">24k</text><text x="288.828125" y="0" dx="0em" dy="0.95em" style="text-anchor: middle; visibility: hidden; font-family: Roboto, sans-serif; font-size: 12px; font-weight: 200;" fill="rgb(33, 33, 33)" stroke="none" stroke-width="1px">26k</text></g><line x1="0" y1="0" x2="288.828125" y2="0" fill="rgb(0, 0, 0)" stroke="rgb(204, 204, 204)" stroke-width="1px"></line></g></g></g></g></svg>