<svg viewBox="0 0 330 200" xmlns="http://www.w3.org/2000/svg"><g><g><g><g><g><line x1="72.34375" y1="177" x2="67.34375" y2="177" style="visibility: inherit;" fill="rgb(0, 0, 0)" stroke="rgb(204, 204, 204)" stroke-width="1px"></line><line x1="72.34375" y1="159.30000020684392" x2="67.34375" y2="159.30000020684392" style="visibility: inherit;" fill="rgb(0, 0, 0)" stroke="rgb(204, 204, 204)" stroke-width="1px"></line><line x1="72.34375" y1="141.60000041368784" x2="67.34375" y2="141.60000041368784" style="visibility: inherit;" fill="rgb(0, 0, 0)" stroke="rgb(204, 204, 204)" stroke-width="1px"></line><line x1="72.34375" y1="123.90000062053176" x2="67.34375" y2="123.90000062053176" style="visibility: inherit;" fill="rgb(0, 0, 0)" stroke="rgb(204, 204, 204)" stroke-width="1px"></line><line x1="72.34375" y1="106.20000082737569" x2="67.34375" y2="106.20000082737569" style="visibility: inherit;" fill="rgb(0, 0, 0)" stroke="rgb(204, 204, 204)" stroke-width="1px"></line><line x1="72.34375" y1="88.50000103421962" x2="67.34375" y2="88.50000103421962" style="visibility: inherit;" fill="rgb(0, 0, 0)" stroke="rgb(204, 204, 204)" stroke-width="1px"></line><line x1="72.34375" y1="70.80000124106354" x2="67.34375" y2="70.80000124106354" style="visibility: inherit;" fill="rgb(0, 0, 0)" stroke="rgb(204, 204, 204)" stroke-width="1px"></line><line x1="72.34375" y1="53.100001447907445" x2="67.34375" y2="53.100001447907445" style="visibility: inherit;" fill="rgb(0, 0, 0)" stroke="rgb(204, 204, 204)" stroke-width="1px"></line><line x1="72.34375" y1="35.40000165475138" x2="67.34375" y2="35.40000165475138" style="visibility: inherit;" fill="rgb(0, 0, 0)" stroke="rgb(204, 204, 204)" stroke-width="1px"></line><line x1="72.34375" y1="17.700001861595293" x2="67.34375" y2="17.700001861595293" style="visibility: inherit;" fill="rgb(0, 0, 0)" stroke="rgb(204, 204, 204)" stroke-width="1px"></line><line x1="72.34375" y1="0.0000020684392242342753" x2="67.34375" y2="0.0000020684392242342753" style="visibility: inherit;" fill="rgb(0, 0, 0)" stroke="rgb(204, 204, 204)" stroke-width="1px"></line></g><g transform="translate(62.34375, 0)"><text x="0" y="177" dx="0em" dy="0.3em" style="text-anchor: end; visibility: hidden; font-family: Roboto, sans-serif; font-size: 12px; font-weight: 200;" fill="rgb(33, 33, 33)" stroke="none" stroke-width="1px">0</text><text x="0" y="159.30000020684392" dx="0em" dy="0.3em" style="text-anchor: end; visibility: inherit; font-family: Roboto, sans-serif; font-size: 12px; font-weight: 200;" fill="rgb(33, 33, 33)" stroke="none" stroke-width="1px">2e-8</text><text x="0" y="141.60000041368784" dx="0em" dy="0.3em" style="text-anchor: end; visibility: hidden; font-family: Roboto, sans-serif; font-size: 12px; font-weight: 200;" fill="rgb(33, 33, 33)" stroke="none" stroke-width="1px">4e-8</text><text x="0" y="123.90000062053176" dx="0em" dy="0.3em" style="text-anchor: end; visibility: inherit; font-family: Roboto, sans-serif; font-size: 12px; font-weight: 200;" fill="rgb(33, 33, 33)" stroke="none" stroke-width="1px">6e-8</text><text x="0" y="106.20000082737569" dx="0em" dy="0.3em" style="text-anchor: end; visibility: hidden; font-family: Roboto, sans-serif; font-size: 12px; font-weight: 200;" fill="rgb(33, 33, 33)" stroke="none" stroke-width="1px">8e-8</text><text x="0" y="88.50000103421962" dx="0em" dy="0.3em" style="text-anchor: end; visibility: inherit; font-family: Roboto, sans-serif; font-size: 12px; font-weight: 200;" fill="rgb(33, 33, 33)" stroke="none" stroke-width="1px">1e-7</text><text x="0" y="70.80000124106354" dx="0em" dy="0.3em" style="text-anchor: end; visibility: hidden; font-family: Roboto, sans-serif; font-size: 12px; font-weight: 200;" fill="rgb(33, 33, 33)" stroke="none" stroke-width="1px">1.2e-7</text><text x="0" y="53.100001447907445" dx="0em" dy="0.3em" style="text-anchor: end; visibility: inherit; font-family: Roboto, sans-serif; font-size: 12px; font-weight: 200;" fill="rgb(33, 33, 33)" stroke="none" stroke-width="1px">1.4e-7</text><text x="0" y="35.40000165475138" dx="0em" dy="0.3em" style="text-anchor: end; visibility: hidden; font-family: Roboto, sans-serif; font-size: 12px; font-weight: 200;" fill="rgb(33, 33, 33)" stroke="none" stroke-width="1px">1.6e-7</text><text x="0" y="17.700001861595293" dx="0em" dy="0.3em" style="text-anchor: end; visibility: inherit; font-family: Roboto, sans-serif; font-size: 12px; font-weight: 200;" fill="rgb(33, 33, 33)" stroke="none" stroke-width="1px">1.8e-7</text><text x="0" y="0.0000020684392242342753" dx="0em" dy="0.3em" style="text-anchor: end; visibility: hidden; font-family: Roboto, sans-serif; font-size: 12px; font-weight: 200;" fill="rgb(33, 33, 33)" stroke="none" stroke-width="1px">2e-7</text></g><line x1="72.34375" y1="0" x2="72.34375" y2="177" fill="rgb(0, 0, 0)" stroke="rgb(204, 204, 204)" stroke-width="1px"></line></g></g><g transform="translate(72, 0)" clip-path="url(#clip_0)"><clipPath id="clip_0"><rect width="257" height="177"></rect></clipPath><g><g><g><line x1="0" y1="0" x2="0" y2="177" fill="rgb(0, 0, 0)" stroke="rgb(66, 66, 66)" stroke-width="1px" opacity="0.25"></line><line x1="18.404017857142858" y1="0" x2="18.404017857142858" y2="177" fill="rgb(0, 0, 0)" stroke="rgb(66, 66, 66)" stroke-width="1px" opacity="0.25"></line><line x1="36.808035714285715" y1="0" x2="36.808035714285715" y2="177" fill="rgb(0, 0, 0)" stroke="rgb(66, 66, 66)" stroke-width="1px" opacity="0.25"></line><line x1="55.21205357142857" y1="0" x2="55.21205357142857" y2="177" fill="rgb(0, 0, 0)" stroke="rgb(66, 66, 66)" stroke-width="1px" opacity="0.25"></line><line x1="73.61607142857143" y1="0" x2="73.61607142857143" y2="177" fill="rgb(0, 0, 0)" stroke="rgb(66, 66, 66)" stroke-width="1px" opacity="0.25"></line><line x1="92.02008928571429" y1="0" x2="92.02008928571429" y2="177" fill="rgb(0, 0, 0)" stroke="rgb(66, 66, 66)" stroke-width="1px" opacity="0.25"></line><line x1="110.42410714285714" y1="0" x2="110.42410714285714" y2="177" fill="rgb(0, 0, 0)" stroke="rgb(66, 66, 66)" stroke-width="1px" opacity="0.25"></line><line x1="128.828125" y1="0" x2="128.828125" y2="177" fill="rgb(0, 0, 0)" stroke="rgb(66, 66, 66)" stroke-width="1px" opacity="0.25"></line><line x1="147.23214285714286" y1="0" x2="147.23214285714286" y2="177" fill="rgb(0, 0, 0)" stroke="rgb(66, 66, 66)" stroke-width="1px" opacity="0.25"></line><line x1="165.63616071428572" y1="0" x2="165.63616071428572" y2="177" fill="rgb(0, 0, 0)" stroke="rgb(66, 66, 66)" stroke-width="1px" opacity="0.25"></line><line x1="184.04017857142858" y1="0" x2="184.04017857142858" y2="177" fill="rgb(0, 0, 0)" stroke="rgb(66, 66, 66)" stroke-width="1px" opacity="0.25"></line><line x1="202.44419642857142" y1="0" x2="202.44419642857142" y2="177" fill="rgb(0, 0, 0)" stroke="rgb(66, 66, 66)" stroke-width="1px" opacity="0.25"></line><line x1="220.84821428571428" y1="0" x2="220.84821428571428" y2="177" fill="rgb(0, 0, 0)" stroke="rgb(66, 66, 66)" stroke-width="1px" opacity="0.25"></line><line x1="239.25223214285714" y1="0" x2="239.25223214285714" y2="177" fill="rgb(0, 0, 0)" stroke="rgb(66, 66, 66)" stroke-width="1px" opacity="0.25"></line><line x1="257.65625" y1="0" x2="257.65625" y2="177" fill="rgb(0, 0, 0)" stroke="rgb(66, 66, 66)" stroke-width="1px" opacity="0.25"></line></g><g><line x1="0" y1="177" x2="257.65625" y2="177" fill="rgb(0, 0, 0)" stroke="rgb(66, 66, 66)" stroke-width="1px" opacity="0.25"></line><line x1="0" y1="159.30000020684392" x2="257.65625" y2="159.30000020684392" fill="rgb(0, 0, 0)" stroke="rgb(66, 66, 66)" stroke-width="1px" opacity="0.25"></line><line x1="0" y1="141.60000041368784" x2="257.65625" y2="141.60000041368784" fill="rgb(0, 0, 0)" stroke="rgb(66, 66, 66)" stroke-width="1px" opacity="0.25"></line><line x1="0" y1="123.90000062053176" x2="257.65625" y2="123.90000062053176" fill="rgb(0, 0, 0)" stroke="rgb(66, 66, 66)" stroke-width="1px" opacity="0.25"></line><line x1="0" y1="106.20000082737569" x2="257.65625" y2="106.20000082737569" fill="rgb(0, 0, 0)" stroke="rgb(66, 66, 66)" stroke-width="1px" opacity="0.25"></line><line x1="0" y1="88.50000103421962" x2="257.65625" y2="88.50000103421962" fill="rgb(0, 0, 0)" stroke="rgb(66, 66, 66)" stroke-width="1px" opacity="0.25"></line><line x1="0" y1="70.80000124106354" x2="257.65625" y2="70.80000124106354" fill="rgb(0, 0, 0)" stroke="rgb(66, 66, 66)" stroke-width="1px" opacity="0.25"></line><line x1="0" y1="53.100001447907445" x2="257.65625" y2="53.100001447907445" fill="rgb(0, 0, 0)" stroke="rgb(66, 66, 66)" stroke-width="1px" opacity="0.25"></line><line x1="0" y1="35.40000165475138" x2="257.65625" y2="35.40000165475138" fill="rgb(0, 0, 0)" stroke="rgb(66, 66, 66)" stroke-width="1px" opacity="0.25"></line><line x1="0" y1="17.700001861595293" x2="257.65625" y2="17.700001861595293" fill="rgb(0, 0, 0)" stroke="rgb(66, 66, 66)" stroke-width="1px" opacity="0.25"></line><line x1="0" y1="0.0000020684392242342753" x2="257.65625" y2="0.0000020684392242342753" fill="rgb(0, 0, 0)" stroke="rgb(66, 66, 66)" stroke-width="1px" opacity="0.25"></line></g></g></g><g><g><line x1="0" y1="177" x2="257.65625" y2="177" fill="rgb(0, 0, 0)" stroke="rgb(153, 153, 153)" stroke-width="1.5px"></line></g></g><g><g><line x1="18.404017857142858" y1="0" x2="18.404017857142858" y2="177" fill="rgb(0, 0, 0)" stroke="rgb(153, 153, 153)" stroke-width="1.5px"></line></g></g><g><g><g><g><g><path stroke="rgb(255, 112, 67)" stroke-width="2px" d="M19.32421875,88.5L20.244419642857142,88.5L21.164620535714285,88.5L22.084821428571427,88.5L23.005022321428573,88.5L23.925223214285715,88.5L24.845424107142858,88.5L25.765625,88.5L26.685825892857146,88.5L27.606026785714285,88.5L28.526227678571427,88.5L29.44642857142857,88.5L30.366629464285715,88.5L31.286830357142858,88.5L32.20703125,88.5L33.12723214285714,88.5L34.047433035714285,88.5L34.96763392857142,88.5L35.88783482142857,88.5L36.808035714285715,88.5L37.72823660714286,88.5L38.6484375,88.5L39.568638392857146,88.5L40.488839285714285,88.5L41.40904017857143,88.5L42.32924107142857,88.5L43.24944196428571,88.5L44.169642857142854,88.5L45.08984375,88.5L46.010044642857146,88.5L46.930245535714285,88.5L47.85044642857143,88.5L48.77064732142857,88.5L49.690848214285715,88.5L50.611049107142854,88.5L51.53125,88.5L52.451450892857146,88.5L53.37165178571429,88.5L54.29185267857143,88.5L55.21205357142857,88.5L56.132254464285715,88.5L57.052455357142854,88.5L57.97265625,88.5L58.89285714285714,88.5L59.813058035714285,88.5L60.73325892857143,88.5L61.65345982142858,88.5L62.573660714285715,88.5L63.49386160714286,88.5L64.4140625,88.5L65.33426339285714,88.5L66.25446428571428,88.5L67.17466517857143,88.5L68.09486607142857,88.5L69.01506696428571,88.5L69.93526785714285,88.5L70.85546875,88.5L71.77566964285714,88.5L72.69587053571429,88.5L73.61607142857143,88.5L74.53627232142858,88.5L75.45647321428572,88.5L76.37667410714286,88.5L77.296875,88.5L78.21707589285714,88.5L79.13727678571429,88.5L80.05747767857143,88.5L80.97767857142857,88.5L81.89787946428571,88.5L82.81808035714286,88.5L83.73828125,88.5L84.65848214285714,88.5L85.57868303571428,88.5L86.49888392857142,88.5L87.41908482142857,88.5L88.33928571428571,88.5L89.25948660714286,88.5L90.1796875,88.5L91.09988839285715,88.5L92.02008928571429,88.5L92.94029017857143,88.5L93.86049107142857,88.5L94.78069196428572,88.5L95.70089285714286,88.5L96.62109375,88.5L97.54129464285714,88.5L98.46149553571428,88.5L99.38169642857143,88.5L100.30189732142857,88.5L101.22209821428571,88.5L102.14229910714285,88.5L103.0625,88.5L103.98270089285714,88.5L104.90290178571429,88.5L105.82310267857143,88.5L106.74330357142858,88.5L107.66350446428572,88.5L108.58370535714286,88.5L109.50390625,88.5L110.42410714285714,88.5L111.34430803571429,88.5L112.26450892857143,88.5L113.18470982142857,88.5L114.10491071428571,88.5L115.02511160714286,88.5L115.9453125,88.5L116.86551339285714,88.5L117.78571428571428,88.5L118.70591517857142,88.5L119.62611607142857,88.5L120.54631696428571,88.5L121.46651785714286,88.5L122.38671875,88.5L123.30691964285715,88.5L124.22712053571429,88.5L125.14732142857143,88.5L126.06752232142857,88.5L126.98772321428572,88.5L127.90792410714286,88.5L128.828125,88.5L129.74832589285714,88.5L130.66852678571428,88.5L131.58872767857142,88.5L132.50892857142856,88.5L133.42912946428572,88.5L134.34933035714286,88.5L135.26953125,88.5L136.18973214285714,88.5L137.10993303571428,88.5L138.03013392857142,88.5L138.95033482142856,88.5L139.8705357142857,88.5L140.79073660714283,88.5L141.7109375,88.5L142.63113839285714,88.5L143.55133928571428,88.5L144.47154017857142,88.5L145.39174107142858,88.5L146.31194196428572,88.5L147.23214285714286,88.5L148.15234375,88.5L149.07254464285717,88.5L149.9927455357143,88.5L150.91294642857144,88.5L151.83314732142858,88.5L152.75334821428572,88.5L153.67354910714286,88.5L154.59375,88.5L155.51395089285714,88.5L156.43415178571428,88.5L157.35435267857144,88.5L158.27455357142858,88.5L159.19475446428572,88.5L160.11495535714286,88.5L161.03515625,88.5L161.95535714285714,88.5L162.87555803571428,88.5L163.79575892857142,88.5L164.71595982142856,88.5L165.63616071428572,88.5L166.55636160714286,88.5L167.4765625,88.5L168.39676339285714,88.5L169.31696428571428,88.5L170.23716517857142,88.5L171.15736607142856,88.5L172.0775669642857,88.5L172.99776785714283,88.5L173.91796875,88.5L174.83816964285714,88.5L175.75837053571428,88.5L176.67857142857142,88.5L177.59877232142858,88.5L178.51897321428572,88.5L179.43917410714286,88.5L180.359375,88.5L181.27957589285717,88.5L182.1997767857143,88.5L183.11997767857144,88.5L184.04017857142858,88.5L184.96037946428572,88.5L185.88058035714286,88.5L186.80078125,88.5L187.72098214285714,88.5L188.64118303571428,88.5L189.56138392857144,88.5L190.48158482142858,88.5L191.40178571428572,88.5L192.32198660714286,88.5L193.2421875,88.5L194.16238839285714,88.5L195.08258928571428,88.5L196.00279017857142,88.5L196.92299107142856,88.5L197.84319196428572,88.5L198.76339285714286,88.5L199.68359375,88.5L200.60379464285714,88.5L201.52399553571428,88.5L202.44419642857142,88.5L203.36439732142856,88.5L204.2845982142857,88.5L205.20479910714283,88.5L206.125,88.5L207.04520089285714,88.5L207.96540178571428,88.5L208.88560267857142,88.5L209.80580357142858,88.5L210.72600446428572,88.5L211.64620535714286,88.5L212.56640625,88.5L213.48660714285717,88.5L214.4068080357143,88.5L215.32700892857144,88.5L216.24720982142858,88.5L217.16741071428572,88.5L218.08761160714286,88.5L219.0078125,88.5L219.92801339285714,88.5L220.84821428571428,88.5L221.76841517857144,88.5L222.68861607142858,88.5L223.60881696428572,88.5L224.52901785714286,88.5L225.44921875,88.5L226.36941964285714,88.5L227.28962053571428,88.5L228.20982142857142,88.5L229.13002232142856,88.5L230.05022321428572,88.5L230.97042410714286,88.5L231.890625,88.5L232.81082589285714,88.5L233.73102678571428,88.5L234.65122767857142,88.5L235.57142857142856,88.5L236.4916294642857,88.5L237.41183035714283,88.5L238.33203125,88.5L239.25223214285714,88.5" style="fill: none;" fill="none"></path></g></g></g></g></g></g><g transform="translate(72, 177)" clip-path="url(#clip_1)"><clipPath id="clip_1"><rect width="257" height="23"></rect></clipPath><g><g><line x1="0" y1="0" x2="0" y2="5" style="visibility: inherit;" fill="rgb(0, 0, 0)" stroke="rgb(204, 204, 204)" stroke-width="1px"></line><line x1="18.404017857142858" y1="0" x2="18.404017857142858" y2="5" style="visibility: inherit;" fill="rgb(0, 0, 0)" stroke="rgb(204, 204, 204)" stroke-width="1px"></line><line x1="36.808035714285715" y1="0" x2="36.808035714285715" y2="5" style="visibility: inherit;" fill="rgb(0, 0, 0)" stroke="rgb(204, 204, 204)" stroke-width="1px"></line><line x1="55.21205357142857" y1="0" x2="55.21205357142857" y2="5" style="visibility: inherit;" fill="rgb(0, 0, 0)" stroke="rgb(204, 204, 204)" stroke-width="1px"></line><line x1="73.61607142857143" y1="0" x2="73.61607142857143" y2="5" style="visibility: inherit;" fill="rgb(0, 0, 0)" stroke="rgb(204, 204, 204)" stroke-width="1px"></line><line x1="92.02008928571429" y1="0" x2="92.02008928571429" y2="5" style="visibility: inherit;" fill="rgb(0, 0, 0)" stroke="rgb(204, 204, 204)" stroke-width="1px"></line><line x1="110.42410714285714" y1="0" x2="110.42410714285714" y2="5" style="visibility: inherit;" fill="rgb(0, 0, 0)" stroke="rgb(204, 204, 204)" stroke-width="1px"></line><line x1="128.828125" y1="0" x2="128.828125" y2="5" style="visibility: inherit;" fill="rgb(0, 0, 0)" stroke="rgb(204, 204, 204)" stroke-width="1px"></line><line x1="147.23214285714286" y1="0" x2="147.23214285714286" y2="5" style="visibility: inherit;" fill="rgb(0, 0, 0)" stroke="rgb(204, 204, 204)" stroke-width="1px"></line><line x1="165.63616071428572" y1="0" x2="165.63616071428572" y2="5" style="visibility: inherit;" fill="rgb(0, 0, 0)" stroke="rgb(204, 204, 204)" stroke-width="1px"></line><line x1="184.04017857142858" y1="0" x2="184.04017857142858" y2="5" style="visibility: inherit;" fill="rgb(0, 0, 0)" stroke="rgb(204, 204, 204)" stroke-width="1px"></line><line x1="202.44419642857142" y1="0" x2="202.44419642857142" y2="5" style="visibility: inherit;" fill="rgb(0, 0, 0)" stroke="rgb(204, 204, 204)" stroke-width="1px"></line><line x1="220.84821428571428" y1="0" x2="220.84821428571428" y2="5" style="visibility: inherit;" fill="rgb(0, 0, 0)" stroke="rgb(204, 204, 204)" stroke-width="1px"></line><line x1="239.25223214285714" y1="0" x2="239.25223214285714" y2="5" style="visibility: inherit;" fill="rgb(0, 0, 0)" stroke="rgb(204, 204, 204)" stroke-width="1px"></line><line x1="257.65625" y1="0" x2="257.65625" y2="5" style="visibility: inherit;" fill="rgb(0, 0, 0)" stroke="rgb(204, 204, 204)" stroke-width="1px"></line></g><g transform="translate(0, 8)"><text x="0" y="0" dx="0em" dy="0.95em" style="text-anchor: middle; visibility: hidden; font-family: Roboto, sans-serif; font-size: 12px; font-weight: 200;" fill="rgb(33, 33, 33)" stroke="none" stroke-width="1px">-2k</text><text x="18.404017857142858" y="0" dx="0em" dy="0.95em" style="text-anchor: middle; visibility: inherit; font-family: Roboto, sans-serif; font-size: 12px; font-weight: 200;" fill="rgb(33, 33, 33)" stroke="none" stroke-width="1px">0</text><text x="36.808035714285715" y="0" dx="0em" dy="0.95em" style="text-anchor: middle; visibility: hidden; font-family: Roboto, sans-serif; font-size: 12px; font-weight: 200;" fill="rgb(33, 33, 33)" stroke="none" stroke-width="1px">2k</text><text x="55.21205357142857" y="0" dx="0em" dy="0.95em" style="text-anchor: middle; visibility: inherit; font-family: Roboto, sans-serif; font-size: 12px; font-weight: 200;" fill="rgb(33, 33, 33)" stroke="none" stroke-width="1px">4k</text><text x="73.61607142857143" y="0" dx="0em" dy="0.95em" style="text-anchor: middle; visibility: hidden; font-family: Roboto, sans-serif; font-size: 12px; font-weight: 200;" fill="rgb(33, 33, 33)" stroke="none" stroke-width="1px">6k</text><text x="92.02008928571429" y="0" dx="0em" dy="0.95em" style="text-anchor: middle; visibility: inherit; font-family: Roboto, sans-serif; font-size: 12px; font-weight: 200;" fill="rgb(33, 33, 33)" stroke="none" stroke-width="1px">8k</text><text x="110.42410714285714" y="0" dx="0em" dy="0.95em" style="text-anchor: middle; visibility: hidden; font-family: Roboto, sans-serif; font-size: 12px; font-weight: 200;" fill="rgb(33, 33, 33)" stroke="none" stroke-width="1px">10k</text><text x="128.828125" y="0" dx="0em" dy="0.95em" style="text-anchor: middle; visibility: inherit; font-family: Roboto, sans-serif; font-size: 12px; font-weight: 200;" fill="rgb(33, 33, 33)" stroke="none" stroke-width="1px">12k</text><text x="147.23214285714286" y="0" dx="0em" dy="0.95em" style="text-anchor: middle; visibility: hidden; font-family: Roboto, sans-serif; font-size: 12px; font-weight: 200;" fill="rgb(33, 33, 33)" stroke="none" stroke-width="1px">14k</text><text x="165.63616071428572" y="0" dx="0em" dy="0.95em" style="text-anchor: middle; visibility: inherit; font-family: Roboto, sans-serif; font-size: 12px; font-weight: 200;" fill="rgb(33, 33, 33)" stroke="none" stroke-width="1px">16k</text><text x="184.04017857142858" y="0" dx="0em" dy="0.95em" style="text-anchor: middle; visibility: hidden; font-family: Roboto, sans-serif; font-size: 12px; font-weight: 200;" fill="rgb(33, 33, 33)" stroke="none" stroke-width="1px">18k</text><text x="202.44419642857142" y="0" dx="0em" dy="0.95em" style="text-anchor: middle; visibility: inherit; font-family: Roboto, sans-serif; font-size: 12px; font-weight: 200;" fill="rgb(33, 33, 33)" stroke="none" stroke-width="1px">20k</text><text x="220.84821428571428" y="0" dx="0em" dy="0.95em" style="text-anchor: middle; visibility: hidden; font-family: Roboto, sans-serif; font-size: 12px; font-weight: 200;" fill="rgb(33, 33, 33)" stroke="none" stroke-width="1px">22k</text><text x="239.25223214285714" y="0" dx="0em" dy="0.95em" style="text-anchor: middle; visibility: inherit; font-family: Roboto, sans-serif; font-size: 12px; font-weight: 200;" fill="rgb(33, 33, 33)" stroke="none" stroke-width="1px">24k</text><text x="257.65625" y="0" dx="0em" dy="0.95em" style="text-anchor: middle; visibility: hidden; font-family: Roboto, sans-serif; font-size: 12px; font-weight: 200;" fill="rgb(33, 33, 33)" stroke="none" stroke-width="1px">26k</text></g><line x1="0" y1="0" x2="257.65625" y2="0" fill="rgb(0, 0, 0)" stroke="rgb(204, 204, 204)" stroke-width="1px"></line></g></g></g></g></svg>