<svg viewBox="0 0 330 200" xmlns="http://www.w3.org/2000/svg"><g><g><g><g><g><line x1="82.734375" y1="177" x2="77.734375" y2="177" style="visibility: inherit;" fill="rgb(0, 0, 0)" stroke="rgb(204, 204, 204)" stroke-width="1px"></line><line x1="82.734375" y1="160.90909090909093" x2="77.734375" y2="160.90909090909093" style="visibility: inherit;" fill="rgb(0, 0, 0)" stroke="rgb(204, 204, 204)" stroke-width="1px"></line><line x1="82.734375" y1="144.8181818181818" x2="77.734375" y2="144.8181818181818" style="visibility: inherit;" fill="rgb(0, 0, 0)" stroke="rgb(204, 204, 204)" stroke-width="1px"></line><line x1="82.734375" y1="128.72727272727272" x2="77.734375" y2="128.72727272727272" style="visibility: inherit;" fill="rgb(0, 0, 0)" stroke="rgb(204, 204, 204)" stroke-width="1px"></line><line x1="82.734375" y1="112.63636363636365" x2="77.734375" y2="112.63636363636365" style="visibility: inherit;" fill="rgb(0, 0, 0)" stroke="rgb(204, 204, 204)" stroke-width="1px"></line><line x1="82.734375" y1="96.54545454545453" x2="77.734375" y2="96.54545454545453" style="visibility: inherit;" fill="rgb(0, 0, 0)" stroke="rgb(204, 204, 204)" stroke-width="1px"></line><line x1="82.734375" y1="80.45454545454547" x2="77.734375" y2="80.45454545454547" style="visibility: inherit;" fill="rgb(0, 0, 0)" stroke="rgb(204, 204, 204)" stroke-width="1px"></line><line x1="82.734375" y1="64.36363636363636" x2="77.734375" y2="64.36363636363636" style="visibility: inherit;" fill="rgb(0, 0, 0)" stroke="rgb(204, 204, 204)" stroke-width="1px"></line><line x1="82.734375" y1="48.27272727272725" x2="77.734375" y2="48.27272727272725" style="visibility: inherit;" fill="rgb(0, 0, 0)" stroke="rgb(204, 204, 204)" stroke-width="1px"></line><line x1="82.734375" y1="32.18181818181815" x2="77.734375" y2="32.18181818181815" style="visibility: inherit;" fill="rgb(0, 0, 0)" stroke="rgb(204, 204, 204)" stroke-width="1px"></line><line x1="82.734375" y1="16.090909090909058" x2="77.734375" y2="16.090909090909058" style="visibility: inherit;" fill="rgb(0, 0, 0)" stroke="rgb(204, 204, 204)" stroke-width="1px"></line><line x1="82.734375" y1="0" x2="77.734375" y2="0" style="visibility: inherit;" fill="rgb(0, 0, 0)" stroke="rgb(204, 204, 204)" stroke-width="1px"></line></g><g transform="translate(72.734375, 0)"><text x="0" y="177" dx="0em" dy="0.3em" style="text-anchor: end; visibility: hidden; font-family: Roboto, sans-serif; font-size: 12px; font-weight: 200;" fill="rgb(33, 33, 33)" stroke="none" stroke-width="1px">5e-6</text><text x="0" y="160.90909090909093" dx="0em" dy="0.3em" style="text-anchor: end; visibility: inherit; font-family: Roboto, sans-serif; font-size: 12px; font-weight: 200;" fill="rgb(33, 33, 33)" stroke="none" stroke-width="1px">5.5e-6</text><text x="0" y="144.8181818181818" dx="0em" dy="0.3em" style="text-anchor: end; visibility: hidden; font-family: Roboto, sans-serif; font-size: 12px; font-weight: 200;" fill="rgb(33, 33, 33)" stroke="none" stroke-width="1px">6e-6</text><text x="0" y="128.72727272727272" dx="0em" dy="0.3em" style="text-anchor: end; visibility: inherit; font-family: Roboto, sans-serif; font-size: 12px; font-weight: 200;" fill="rgb(33, 33, 33)" stroke="none" stroke-width="1px">6.5e-6</text><text x="0" y="112.63636363636365" dx="0em" dy="0.3em" style="text-anchor: end; visibility: hidden; font-family: Roboto, sans-serif; font-size: 12px; font-weight: 200;" fill="rgb(33, 33, 33)" stroke="none" stroke-width="1px">7e-6</text><text x="0" y="96.54545454545453" dx="0em" dy="0.3em" style="text-anchor: end; visibility: inherit; font-family: Roboto, sans-serif; font-size: 12px; font-weight: 200;" fill="rgb(33, 33, 33)" stroke="none" stroke-width="1px">7.5e-6</text><text x="0" y="80.45454545454547" dx="0em" dy="0.3em" style="text-anchor: end; visibility: hidden; font-family: Roboto, sans-serif; font-size: 12px; font-weight: 200;" fill="rgb(33, 33, 33)" stroke="none" stroke-width="1px">8e-6</text><text x="0" y="64.36363636363636" dx="0em" dy="0.3em" style="text-anchor: end; visibility: inherit; font-family: Roboto, sans-serif; font-size: 12px; font-weight: 200;" fill="rgb(33, 33, 33)" stroke="none" stroke-width="1px">8.5e-6</text><text x="0" y="48.27272727272725" dx="0em" dy="0.3em" style="text-anchor: end; visibility: hidden; font-family: Roboto, sans-serif; font-size: 12px; font-weight: 200;" fill="rgb(33, 33, 33)" stroke="none" stroke-width="1px">9e-6</text><text x="0" y="32.18181818181815" dx="0em" dy="0.3em" style="text-anchor: end; visibility: inherit; font-family: Roboto, sans-serif; font-size: 12px; font-weight: 200;" fill="rgb(33, 33, 33)" stroke="none" stroke-width="1px">9.5e-6</text><text x="0" y="16.090909090909058" dx="0em" dy="0.3em" style="text-anchor: end; visibility: hidden; font-family: Roboto, sans-serif; font-size: 12px; font-weight: 200;" fill="rgb(33, 33, 33)" stroke="none" stroke-width="1px">1e-5</text><text x="0" y="0" dx="0em" dy="0.3em" style="text-anchor: end; visibility: hidden; font-family: Roboto, sans-serif; font-size: 12px; font-weight: 200;" fill="rgb(33, 33, 33)" stroke="none" stroke-width="1px">1.05e-5</text></g><line x1="82.734375" y1="0" x2="82.734375" y2="177" fill="rgb(0, 0, 0)" stroke="rgb(204, 204, 204)" stroke-width="1px"></line></g></g><g transform="translate(82, 0)" clip-path="url(#clip_0)"><clipPath id="clip_0"><rect width="247" height="177"></rect></clipPath><g><g><g><line x1="0" y1="0" x2="0" y2="177" fill="rgb(0, 0, 0)" stroke="rgb(66, 66, 66)" stroke-width="1px" opacity="0.25"></line><line x1="17.661830357142858" y1="0" x2="17.661830357142858" y2="177" fill="rgb(0, 0, 0)" stroke="rgb(66, 66, 66)" stroke-width="1px" opacity="0.25"></line><line x1="35.323660714285715" y1="0" x2="35.323660714285715" y2="177" fill="rgb(0, 0, 0)" stroke="rgb(66, 66, 66)" stroke-width="1px" opacity="0.25"></line><line x1="52.98549107142857" y1="0" x2="52.98549107142857" y2="177" fill="rgb(0, 0, 0)" stroke="rgb(66, 66, 66)" stroke-width="1px" opacity="0.25"></line><line x1="70.64732142857143" y1="0" x2="70.64732142857143" y2="177" fill="rgb(0, 0, 0)" stroke="rgb(66, 66, 66)" stroke-width="1px" opacity="0.25"></line><line x1="88.30915178571429" y1="0" x2="88.30915178571429" y2="177" fill="rgb(0, 0, 0)" stroke="rgb(66, 66, 66)" stroke-width="1px" opacity="0.25"></line><line x1="105.97098214285714" y1="0" x2="105.97098214285714" y2="177" fill="rgb(0, 0, 0)" stroke="rgb(66, 66, 66)" stroke-width="1px" opacity="0.25"></line><line x1="123.6328125" y1="0" x2="123.6328125" y2="177" fill="rgb(0, 0, 0)" stroke="rgb(66, 66, 66)" stroke-width="1px" opacity="0.25"></line><line x1="141.29464285714286" y1="0" x2="141.29464285714286" y2="177" fill="rgb(0, 0, 0)" stroke="rgb(66, 66, 66)" stroke-width="1px" opacity="0.25"></line><line x1="158.95647321428572" y1="0" x2="158.95647321428572" y2="177" fill="rgb(0, 0, 0)" stroke="rgb(66, 66, 66)" stroke-width="1px" opacity="0.25"></line><line x1="176.61830357142858" y1="0" x2="176.61830357142858" y2="177" fill="rgb(0, 0, 0)" stroke="rgb(66, 66, 66)" stroke-width="1px" opacity="0.25"></line><line x1="194.28013392857142" y1="0" x2="194.28013392857142" y2="177" fill="rgb(0, 0, 0)" stroke="rgb(66, 66, 66)" stroke-width="1px" opacity="0.25"></line><line x1="211.94196428571428" y1="0" x2="211.94196428571428" y2="177" fill="rgb(0, 0, 0)" stroke="rgb(66, 66, 66)" stroke-width="1px" opacity="0.25"></line><line x1="229.60379464285714" y1="0" x2="229.60379464285714" y2="177" fill="rgb(0, 0, 0)" stroke="rgb(66, 66, 66)" stroke-width="1px" opacity="0.25"></line><line x1="247.265625" y1="0" x2="247.265625" y2="177" fill="rgb(0, 0, 0)" stroke="rgb(66, 66, 66)" stroke-width="1px" opacity="0.25"></line></g><g><line x1="0" y1="177" x2="247.265625" y2="177" fill="rgb(0, 0, 0)" stroke="rgb(66, 66, 66)" stroke-width="1px" opacity="0.25"></line><line x1="0" y1="160.90909090909093" x2="247.265625" y2="160.90909090909093" fill="rgb(0, 0, 0)" stroke="rgb(66, 66, 66)" stroke-width="1px" opacity="0.25"></line><line x1="0" y1="144.8181818181818" x2="247.265625" y2="144.8181818181818" fill="rgb(0, 0, 0)" stroke="rgb(66, 66, 66)" stroke-width="1px" opacity="0.25"></line><line x1="0" y1="128.72727272727272" x2="247.265625" y2="128.72727272727272" fill="rgb(0, 0, 0)" stroke="rgb(66, 66, 66)" stroke-width="1px" opacity="0.25"></line><line x1="0" y1="112.63636363636365" x2="247.265625" y2="112.63636363636365" fill="rgb(0, 0, 0)" stroke="rgb(66, 66, 66)" stroke-width="1px" opacity="0.25"></line><line x1="0" y1="96.54545454545453" x2="247.265625" y2="96.54545454545453" fill="rgb(0, 0, 0)" stroke="rgb(66, 66, 66)" stroke-width="1px" opacity="0.25"></line><line x1="0" y1="80.45454545454547" x2="247.265625" y2="80.45454545454547" fill="rgb(0, 0, 0)" stroke="rgb(66, 66, 66)" stroke-width="1px" opacity="0.25"></line><line x1="0" y1="64.36363636363636" x2="247.265625" y2="64.36363636363636" fill="rgb(0, 0, 0)" stroke="rgb(66, 66, 66)" stroke-width="1px" opacity="0.25"></line><line x1="0" y1="48.27272727272725" x2="247.265625" y2="48.27272727272725" fill="rgb(0, 0, 0)" stroke="rgb(66, 66, 66)" stroke-width="1px" opacity="0.25"></line><line x1="0" y1="32.18181818181815" x2="247.265625" y2="32.18181818181815" fill="rgb(0, 0, 0)" stroke="rgb(66, 66, 66)" stroke-width="1px" opacity="0.25"></line><line x1="0" y1="16.090909090909058" x2="247.265625" y2="16.090909090909058" fill="rgb(0, 0, 0)" stroke="rgb(66, 66, 66)" stroke-width="1px" opacity="0.25"></line><line x1="0" y1="0" x2="247.265625" y2="0" fill="rgb(0, 0, 0)" stroke="rgb(66, 66, 66)" stroke-width="1px" opacity="0.25"></line></g></g></g><g><g><line x1="0" y1="337.90909090909093" x2="247.265625" y2="337.90909090909093" fill="rgb(0, 0, 0)" stroke="rgb(153, 153, 153)" stroke-width="1.5px"></line></g></g><g><g><line x1="17.661830357142858" y1="0" x2="17.661830357142858" y2="177" fill="rgb(0, 0, 0)" stroke="rgb(153, 153, 153)" stroke-width="1.5px"></line></g></g><g><g><g><g><g><path stroke="rgb(255, 112, 67)" stroke-width="2px" d="M18.544921875,16.09091722072015L19.428013392857142,16.09091722072015L20.311104910714285,16.09091722072015L21.194196428571427,16.09091722072015L22.077287946428573,16.09091722072015L22.960379464285715,16.09091722072015L23.843470982142858,16.090917220720208L24.7265625,16.09091722072015L25.609654017857146,16.09091722072015L26.492745535714285,16.09091722072011L27.375837053571427,16.09091722072011L28.25892857142857,16.09091722072015L29.142020089285715,16.09091722072015L30.025111607142858,16.09091722072015L30.908203125,16.090917220720208L31.79129464285714,16.09091722072015L32.674386160714285,16.09091722072011L33.55747767857142,16.09091722072011L34.44056919642857,16.09091722072011L35.323660714285715,22.527530076464426L36.20675223214286,26.389347173637912L37.08984375,28.706383212674027L37.972935267857146,30.096585317718784L38.856026785714285,30.93069955425081L39.73911830357143,31.431165566657988L40.62220982142857,31.7314442634836L41.50530133928571,31.911611153757384L42.388392857142854,32.0197111699062L43.271484375,32.08457113710999L44.154575892857146,32.12348710213752L45.037667410714285,32.14683667564786L45.92075892857143,32.16084641777188L46.80385044642857,32.16925226233269L47.686941964285715,32.1742957688123L48.570033482142854,32.17732187260762L49.453125,32.179137534851456L50.336216517857146,32.180226932185796L51.21930803571429,32.180880570582104L52.10239955357143,32.1812727536183L52.98549107142857,38.29605325461541L53.868582589285715,41.9649215499823L54.751674107142854,44.16624252531914L55.634765625,45.487035109843255L56.51785714285714,46.27951066031371L57.400948660714285,46.754995990508064L58.28404017857143,47.04028718859316L59.16713169642858,47.21146190743275L60.050223214285715,47.314166738732354L60.93331473214286,47.375789637510714L61.81640625,47.41276337677716L62.69949776785714,47.43494762033691L63.58258928571428,47.448258166472606L64.46568080357143,47.45624449415399L65.34877232142857,47.4610362907629L66.23186383928571,47.4639113687282L67.11495535714285,47.465636415507376L67.998046875,47.4666714435749L68.88113839285714,47.467292460415415L69.76422991071429,47.46766507051969L70.64732142857143,53.27669953582837L71.53041294642858,56.7621202150134L72.41350446428572,58.85337262252436L73.29659598214286,60.10812406703086L74.1796875,60.860974933734795L75.06277901785714,61.31268545375715L75.94587053571429,61.583711765770545L76.82896205357143,61.746327552978606L77.71205357142857,61.84389702530345L78.59514508928571,61.90243870869835L79.47823660714286,61.93756371873525L80.361328125,61.95863872475744L81.24441964285714,61.97128372837073L82.12751116071428,61.97887073053867L83.01060267857142,61.98342293183949L83.89369419642857,61.98615425261997L84.77678571428571,61.98779304508823L85.65987723214286,61.98877632056918L86.54296875,61.98936628585779L87.42606026785715,61.98972026503096L88.30915178571429,67.50831120219239L89.19224330357143,70.81946576448928L90.07533482142857,72.80615850186743L90.95842633928572,73.9981741442943L91.84151785714286,74.71338352975046L92.724609375,75.14250916102411L93.60770089285714,75.39998453978833L94.49079241071428,75.55446976704685L95.37388392857143,75.64716090340194L96.25697544642857,75.70277558521504L97.14006696428571,75.7361443943029L98.02315848214285,75.7561656797556L98.90625,75.76817845102723L99.78934151785714,75.77538611379025L100.67243303571429,75.77971071144802L101.55552455357143,75.78230547004267L102.43861607142858,75.78386232519946L103.32170758928572,75.78479643829355L104.20479910714286,75.78535690615L105.087890625,75.78569318686388L105.97098214285714,81.02835867515395L106.85407366071429,84.17395796812801L107.73716517857143,86.06131754391245L108.62025669642857,87.1937332893831L109.50334821428571,87.87318273666551L110.38643973214286,88.2808524050349L111.26953125,88.52545420605658L112.15262276785714,88.67221528666954L113.03571428571428,88.76027193503734L113.91880580357142,88.81310592405801L114.80189732142857,88.84480631747047L115.68498883928571,88.8638265535179L116.56808035714286,88.87523869514636L117.451171875,88.88208598012343L118.33426339285715,88.88619435110965L119.21735491071429,88.88865937370142L120.10044642857143,88.89013838725646L120.98353794642857,88.8910257953895L121.86662946428572,88.89155824026935L122.74972098214286,88.89187770719721L123.6328125,93.87240406738401L124.51590401785714,96.86071988349603L125.39899553571428,98.65370937316327L126.28208705357142,99.72950306696362L127.16517857142856,100.37497928324379L128.04827008928572,100.76226501301196L128.93136160714286,100.9946364508728L129.814453125,101.1340593135893L130.69754464285714,101.21771303121925L131.58063616071428,101.26790526179717L132.46372767857142,101.29802060014396L133.34681919642856,101.31608980315202L134.2299107142857,101.32693132495687L135.11300223214283,101.33343623803978L135.99609375,101.33733918588949L136.87918526785714,101.33968095459937L137.76227678571428,101.34108601582524L138.64536830357142,101.34192905256079L139.52845982142858,101.34243487460213L140.41155133928572,101.34273836782693L141.29464285714286,106.07423870248228L142.177734375,108.91313890327548L143.06082589285717,110.6164790237514L143.9439174107143,111.63848309603694L144.82700892857144,112.25168553940827L145.71010044642858,112.61960700543109L146.59319196428572,112.84035988504476L147.47628348214286,112.97281161281296L148.359375,113.0522826494739L149.24246651785714,113.09996527147047L150.12555803571428,113.1285748446684L151.00864955357144,113.14574058858715L151.89174107142858,113.15604003493837L152.77483258928572,113.16221970274914L153.65792410714286,113.16592750343558L154.541015625,113.16815218384745L155.42410714285714,113.16948699209459L156.30719866071428,113.17028787704285L157.19029017857142,113.17076840801184L158.07338169642856,113.1710567265932L158.95647321428572,117.66598262991036L159.83956473214286,120.36293817190061L160.72265625,121.98111149709479L161.60574776785714,122.95201549221129L162.48883928571428,123.53455788928119L163.37193080357142,123.88408332752313L164.25502232142856,124.09379859046828L165.1381138392857,124.21962774823538L166.02120535714283,124.29512524289564L166.904296875,124.34042373969181L167.78738839285714,124.3676028377695L168.67047991071428,124.38391029661614L169.55357142857142,124.39369477192409L170.43666294642858,124.39956545710888L171.31975446428572,124.40308786821973L172.20284598214286,124.40520131488624L173.0859375,124.40646938288617L173.96902901785717,124.40723022368613L174.8521205357143,124.40768672816608L175.73521205357144,124.40796063085408L176.61830357142858,128.67813731210745L177.50139508928572,131.24024332085946L178.38448660714286,132.77750692611065L179.267578125,133.69986508926138L180.15066964285714,134.2532799871518L181.03376116071428,134.5853289258861L181.91685267857144,134.78455828912664L182.79994419642858,134.90409590707097L183.68303571428572,134.97581847783758L184.56612723214286,135.01885202029754L185.44921875,135.0446721457735L186.33231026785714,135.0601642210591L187.21540178571428,135.06945946623046L188.09849330357142,135.07503661333328L188.98158482142856,135.07838290159495L189.86467633928572,135.08039067455198L190.74776785714286,135.08159533832617L191.630859375,135.08231813659071L192.51395089285714,135.08275181554941L193.39704241071428,135.08301202292463L194.28013392857142,139.13968513846308L195.16322544642856,141.57368900778613L196.0463169642857,143.03409132937998L196.92940848214283,143.91033272233628L197.8125,144.43607755811007L198.69559151785714,144.75152445957437L199.57868303571428,144.9407926004529L200.46177455357142,145.05435348498006L201.34486607142858,145.12249001569637L202.22795758928572,145.16337193412613L203.11104910714286,145.18790108518397L203.994140625,145.2026185758187L204.87723214285717,145.21144907019954L205.7603236607143,145.21674736682803L206.64341517857144,145.21992634480515L207.52650669642858,145.22183373159137L208.40959821428572,145.22297816366313L209.29268973214286,145.22366482290616L210.17578125,145.224076818452L211.05887276785714,145.2243240157795L211.94196428571428,149.07815381689994L212.82505580357144,151.3904516975722L213.70814732142858,152.77783042597557L214.59123883928572,153.6102576630176L215.47433035714286,154.1097140052428L216.357421875,154.4093878105779L217.24051339285714,154.58919209377896L218.12360491071428,154.6970746636996L219.00669642857142,154.761804205652L219.88978794642856,154.80064193082345L220.77287946428572,154.82394456592627L221.65597098214286,154.83792614698802L222.5390625,154.84631509562507L223.42215401785714,154.85134846480727L224.30524553571428,154.85436848631662L225.18833705357142,154.8561804992222L226.07142857142856,154.85726770696556L226.9545200892857,154.85792003161154L227.83761160714283,154.85831142639915L228.720703125,154.85854626327173L229.60379464285714,158.5196895497458" style="fill: none;" fill="none"></path></g></g></g></g><g opacity="0.2"><g><g><g><path stroke="rgb(255, 112, 67)" stroke-width="2px" d="M18.544921875,16.09091722072015L19.428013392857142,16.09091722072015L20.311104910714285,16.09091722072015L21.194196428571427,16.09091722072015L22.077287946428573,16.09091722072015L22.960379464285715,16.09091722072015L23.843470982142858,16.09091722072015L24.7265625,16.09091722072015L25.609654017857146,16.09091722072015L26.492745535714285,16.09091722072015L27.375837053571427,16.09091722072015L28.25892857142857,16.09091722072015L29.142020089285715,16.09091722072015L30.025111607142858,16.09091722072015L30.908203125,16.09091722072015L31.79129464285714,16.09091722072015L32.674386160714285,16.09091722072015L33.55747767857142,16.09091722072015L34.44056919642857,16.09091722072015L35.323660714285715,32.18186102817045L36.20675223214286,32.18186102817045L37.08984375,32.18186102817045L37.972935267857146,32.18186102817045L38.856026785714285,32.18186102817045L39.73911830357143,32.18186102817045L40.62220982142857,32.18186102817045L41.50530133928571,32.18186102817045L42.388392857142854,32.18186102817045L43.271484375,32.18186102817045L44.154575892857146,32.18186102817045L45.037667410714285,32.18186102817045L45.92075892857143,32.18186102817045L46.80385044642857,32.18186102817045L47.686941964285715,32.18186102817045L48.570033482142854,32.18186102817045L49.453125,32.18186102817045L50.336216517857146,32.18186102817045L51.21930803571429,32.18186102817045L52.10239955357143,32.18186102817045L52.98549107142857,47.46822398567614L53.868582589285715,47.46822398567614L54.751674107142854,47.46822398567614L55.634765625,47.46822398567614L56.51785714285714,47.46822398567614L57.400948660714285,47.46822398567614L58.28404017857143,47.46822398567614L59.16713169642858,47.46822398567614L60.050223214285715,47.46822398567614L60.93331473214286,47.46822398567614L61.81640625,47.46822398567614L62.69949776785714,47.46822398567614L63.58258928571428,47.46822398567614L64.46568080357143,47.46822398567614L65.34877232142857,47.46822398567614L66.23186383928571,47.46822398567614L67.11495535714285,47.46822398567614L67.998046875,47.46822398567614L68.88113839285714,47.46822398567614L69.76422991071429,47.46822398567614L70.64732142857143,61.990251233790666L71.53041294642858,61.990251233790666L72.41350446428572,61.990251233790666L73.29659598214286,61.990251233790666L74.1796875,61.990251233790666L75.06277901785714,61.990251233790666L75.94587053571429,61.990251233790666L76.82896205357143,61.990251233790666L77.71205357142857,61.990251233790666L78.59514508928571,61.990251233790666L79.47823660714286,61.990251233790666L80.361328125,61.990251233790666L81.24441964285714,61.990251233790666L82.12751116071428,61.990251233790666L83.01060267857142,61.990251233790666L83.89369419642857,61.990251233790666L84.77678571428571,61.990251233790666L85.65987723214286,61.990251233790666L86.54296875,61.990251233790666L87.42606026785715,61.990251233790666L88.30915178571429,75.78619760793464L89.19224330357143,75.78619760793464L90.07533482142857,75.78619760793464L90.95842633928572,75.78619760793464L91.84151785714286,75.78619760793464L92.724609375,75.78619760793464L93.60770089285714,75.78619760793464L94.49079241071428,75.78619760793464L95.37388392857143,75.78619760793464L96.25697544642857,75.78619760793464L97.14006696428571,75.78619760793464L98.02315848214285,75.78619760793464L98.90625,75.78619760793464L99.78934151785714,75.78619760793464L100.67243303571429,75.78619760793464L101.55552455357143,75.78619760793464L102.43861607142858,75.78619760793464L103.32170758928572,75.78619760793464L104.20479910714286,75.78619760793464L105.087890625,75.78619760793464L105.97098214285714,88.89235690758902L106.85407366071429,88.89235690758902L107.73716517857143,88.89235690758902L108.62025669642857,88.89235690758902L109.50334821428571,88.89235690758902L110.38643973214286,88.89235690758902L111.26953125,88.89235690758902L112.15262276785714,88.89235690758902L113.03571428571428,88.89235690758902L113.91880580357142,88.89235690758902L114.80189732142857,88.89235690758902L115.68498883928571,88.89235690758902L116.56808035714286,88.89235690758902L117.451171875,88.89235690758902L118.33426339285715,88.89235690758902L119.21735491071429,88.89235690758902L120.10044642857143,88.89235690758902L120.98353794642857,88.89235690758902L121.86662946428572,88.89235690758902L122.74972098214286,88.89235690758902L123.6328125,101.3431936076641L124.51590401785714,101.3431936076641L125.39899553571428,101.3431936076641L126.28208705357142,101.3431936076641L127.16517857142856,101.3431936076641L128.04827008928572,101.3431936076641L128.93136160714286,101.3431936076641L129.814453125,101.3431936076641L130.69754464285714,101.3431936076641L131.58063616071428,101.3431936076641L132.46372767857142,101.3431936076641L133.34681919642856,101.3431936076641L134.2299107142857,101.3431936076641L135.11300223214283,101.3431936076641L135.99609375,101.3431936076641L136.87918526785714,101.3431936076641L137.76227678571428,101.3431936076641L138.64536830357142,101.3431936076641L139.52845982142858,101.3431936076641L140.41155133928572,101.3431936076641L141.29464285714286,113.17148920446529L142.177734375,113.17148920446529L143.06082589285717,113.17148920446529L143.9439174107143,113.17148920446529L144.82700892857144,113.17148920446529L145.71010044642858,113.17148920446529L146.59319196428572,113.17148920446529L147.47628348214286,113.17148920446529L148.359375,113.17148920446529L149.24246651785714,113.17148920446529L150.12555803571428,113.17148920446529L151.00864955357144,113.17148920446529L151.89174107142858,113.17148920446529L152.77483258928572,113.17148920446529L153.65792410714286,113.17148920446529L154.541015625,113.17148920446529L155.42410714285714,113.17148920446529L156.30719866071428,113.17148920446529L157.19029017857142,113.17148920446529L158.07338169642856,113.17148920446529L158.95647321428572,124.40837148488605L159.83956473214286,124.40837148488605L160.72265625,124.40837148488605L161.60574776785714,124.40837148488605L162.48883928571428,124.40837148488605L163.37193080357142,124.40837148488605L164.25502232142856,124.40837148488605L165.1381138392857,124.40837148488605L166.02120535714283,124.40837148488605L166.904296875,124.40837148488605L167.78738839285714,124.40837148488605L168.67047991071428,124.40837148488605L169.55357142857142,124.40837148488605L170.43666294642858,124.40837148488605L171.31975446428572,124.40837148488605L172.20284598214286,124.40837148488605L173.0859375,124.40837148488605L173.96902901785717,124.40837148488605L174.8521205357143,124.40837148488605L175.73521205357144,124.40837148488605L176.61830357142858,135.08340233398752L177.50139508928572,135.08340233398752L178.38448660714286,135.08340233398752L179.267578125,135.08340233398752L180.15066964285714,135.08340233398752L181.03376116071428,135.08340233398752L181.91685267857144,135.08340233398752L182.79994419642858,135.08340233398752L183.68303571428572,135.08340233398752L184.56612723214286,135.08340233398752L185.44921875,135.08340233398752L186.33231026785714,135.08340233398752L187.21540178571428,135.08340233398752L188.09849330357142,135.08340233398752L188.98158482142856,135.08340233398752L189.86467633928572,135.08340233398752L190.74776785714286,135.08340233398752L191.630859375,135.08340233398752L192.51395089285714,135.08340233398752L193.39704241071428,135.08340233398752L194.28013392857142,145.2246948117708L195.16322544642856,145.2246948117708L196.0463169642857,145.2246948117708L196.92940848214283,145.2246948117708L197.8125,145.2246948117708L198.69559151785714,145.2246948117708L199.57868303571428,145.2246948117708L200.46177455357142,145.2246948117708L201.34486607142858,145.2246948117708L202.22795758928572,145.2246948117708L203.11104910714286,145.2246948117708L203.994140625,145.2246948117708L204.87723214285717,145.2246948117708L205.7603236607143,145.2246948117708L206.64341517857144,145.2246948117708L207.52650669642858,145.2246948117708L208.40959821428572,145.2246948117708L209.29268973214286,145.2246948117708L210.17578125,145.2246948117708L211.05887276785714,145.2246948117708L211.94196428571428,154.8588985185806L212.82505580357144,154.8588985185806L213.70814732142858,154.8588985185806L214.59123883928572,154.8588985185806L215.47433035714286,154.8588985185806L216.357421875,154.8588985185806L217.24051339285714,154.8588985185806L218.12360491071428,154.8588985185806L219.00669642857142,154.8588985185806L219.88978794642856,154.8588985185806L220.77287946428572,154.8588985185806L221.65597098214286,154.8588985185806L222.5390625,154.8588985185806L223.42215401785714,154.8588985185806L224.30524553571428,154.8588985185806L225.18833705357142,154.8588985185806L226.07142857142856,154.8588985185806L226.9545200892857,154.8588985185806L227.83761160714283,154.8588985185806L228.720703125,154.8588985185806L229.60379464285714,164.01140447945696" style="fill: none;" fill="none"></path></g></g></g></g></g></g><g transform="translate(82, 177)" clip-path="url(#clip_1)"><clipPath id="clip_1"><rect width="247" height="23"></rect></clipPath><g><g><line x1="0" y1="0" x2="0" y2="5" style="visibility: inherit;" fill="rgb(0, 0, 0)" stroke="rgb(204, 204, 204)" stroke-width="1px"></line><line x1="17.661830357142858" y1="0" x2="17.661830357142858" y2="5" style="visibility: inherit;" fill="rgb(0, 0, 0)" stroke="rgb(204, 204, 204)" stroke-width="1px"></line><line x1="35.323660714285715" y1="0" x2="35.323660714285715" y2="5" style="visibility: inherit;" fill="rgb(0, 0, 0)" stroke="rgb(204, 204, 204)" stroke-width="1px"></line><line x1="52.98549107142857" y1="0" x2="52.98549107142857" y2="5" style="visibility: inherit;" fill="rgb(0, 0, 0)" stroke="rgb(204, 204, 204)" stroke-width="1px"></line><line x1="70.64732142857143" y1="0" x2="70.64732142857143" y2="5" style="visibility: inherit;" fill="rgb(0, 0, 0)" stroke="rgb(204, 204, 204)" stroke-width="1px"></line><line x1="88.30915178571429" y1="0" x2="88.30915178571429" y2="5" style="visibility: inherit;" fill="rgb(0, 0, 0)" stroke="rgb(204, 204, 204)" stroke-width="1px"></line><line x1="105.97098214285714" y1="0" x2="105.97098214285714" y2="5" style="visibility: inherit;" fill="rgb(0, 0, 0)" stroke="rgb(204, 204, 204)" stroke-width="1px"></line><line x1="123.6328125" y1="0" x2="123.6328125" y2="5" style="visibility: inherit;" fill="rgb(0, 0, 0)" stroke="rgb(204, 204, 204)" stroke-width="1px"></line><line x1="141.29464285714286" y1="0" x2="141.29464285714286" y2="5" style="visibility: inherit;" fill="rgb(0, 0, 0)" stroke="rgb(204, 204, 204)" stroke-width="1px"></line><line x1="158.95647321428572" y1="0" x2="158.95647321428572" y2="5" style="visibility: inherit;" fill="rgb(0, 0, 0)" stroke="rgb(204, 204, 204)" stroke-width="1px"></line><line x1="176.61830357142858" y1="0" x2="176.61830357142858" y2="5" style="visibility: inherit;" fill="rgb(0, 0, 0)" stroke="rgb(204, 204, 204)" stroke-width="1px"></line><line x1="194.28013392857142" y1="0" x2="194.28013392857142" y2="5" style="visibility: inherit;" fill="rgb(0, 0, 0)" stroke="rgb(204, 204, 204)" stroke-width="1px"></line><line x1="211.94196428571428" y1="0" x2="211.94196428571428" y2="5" style="visibility: inherit;" fill="rgb(0, 0, 0)" stroke="rgb(204, 204, 204)" stroke-width="1px"></line><line x1="229.60379464285714" y1="0" x2="229.60379464285714" y2="5" style="visibility: inherit;" fill="rgb(0, 0, 0)" stroke="rgb(204, 204, 204)" stroke-width="1px"></line><line x1="247.265625" y1="0" x2="247.265625" y2="5" style="visibility: inherit;" fill="rgb(0, 0, 0)" stroke="rgb(204, 204, 204)" stroke-width="1px"></line></g><g transform="translate(0, 8)"><text x="0" y="0" dx="0em" dy="0.95em" style="text-anchor: middle; visibility: hidden; font-family: Roboto, sans-serif; font-size: 12px; font-weight: 200;" fill="rgb(33, 33, 33)" stroke="none" stroke-width="1px">-2k</text><text x="17.661830357142858" y="0" dx="0em" dy="0.95em" style="text-anchor: middle; visibility: inherit; font-family: Roboto, sans-serif; font-size: 12px; font-weight: 200;" fill="rgb(33, 33, 33)" stroke="none" stroke-width="1px">0</text><text x="35.323660714285715" y="0" dx="0em" dy="0.95em" style="text-anchor: middle; visibility: hidden; font-family: Roboto, sans-serif; font-size: 12px; font-weight: 200;" fill="rgb(33, 33, 33)" stroke="none" stroke-width="1px">2k</text><text x="52.98549107142857" y="0" dx="0em" dy="0.95em" style="text-anchor: middle; visibility: inherit; font-family: Roboto, sans-serif; font-size: 12px; font-weight: 200;" fill="rgb(33, 33, 33)" stroke="none" stroke-width="1px">4k</text><text x="70.64732142857143" y="0" dx="0em" dy="0.95em" style="text-anchor: middle; visibility: hidden; font-family: Roboto, sans-serif; font-size: 12px; font-weight: 200;" fill="rgb(33, 33, 33)" stroke="none" stroke-width="1px">6k</text><text x="88.30915178571429" y="0" dx="0em" dy="0.95em" style="text-anchor: middle; visibility: inherit; font-family: Roboto, sans-serif; font-size: 12px; font-weight: 200;" fill="rgb(33, 33, 33)" stroke="none" stroke-width="1px">8k</text><text x="105.97098214285714" y="0" dx="0em" dy="0.95em" style="text-anchor: middle; visibility: hidden; font-family: Roboto, sans-serif; font-size: 12px; font-weight: 200;" fill="rgb(33, 33, 33)" stroke="none" stroke-width="1px">10k</text><text x="123.6328125" y="0" dx="0em" dy="0.95em" style="text-anchor: middle; visibility: inherit; font-family: Roboto, sans-serif; font-size: 12px; font-weight: 200;" fill="rgb(33, 33, 33)" stroke="none" stroke-width="1px">12k</text><text x="141.29464285714286" y="0" dx="0em" dy="0.95em" style="text-anchor: middle; visibility: hidden; font-family: Roboto, sans-serif; font-size: 12px; font-weight: 200;" fill="rgb(33, 33, 33)" stroke="none" stroke-width="1px">14k</text><text x="158.95647321428572" y="0" dx="0em" dy="0.95em" style="text-anchor: middle; visibility: inherit; font-family: Roboto, sans-serif; font-size: 12px; font-weight: 200;" fill="rgb(33, 33, 33)" stroke="none" stroke-width="1px">16k</text><text x="176.61830357142858" y="0" dx="0em" dy="0.95em" style="text-anchor: middle; visibility: hidden; font-family: Roboto, sans-serif; font-size: 12px; font-weight: 200;" fill="rgb(33, 33, 33)" stroke="none" stroke-width="1px">18k</text><text x="194.28013392857142" y="0" dx="0em" dy="0.95em" style="text-anchor: middle; visibility: inherit; font-family: Roboto, sans-serif; font-size: 12px; font-weight: 200;" fill="rgb(33, 33, 33)" stroke="none" stroke-width="1px">20k</text><text x="211.94196428571428" y="0" dx="0em" dy="0.95em" style="text-anchor: middle; visibility: hidden; font-family: Roboto, sans-serif; font-size: 12px; font-weight: 200;" fill="rgb(33, 33, 33)" stroke="none" stroke-width="1px">22k</text><text x="229.60379464285714" y="0" dx="0em" dy="0.95em" style="text-anchor: middle; visibility: inherit; font-family: Roboto, sans-serif; font-size: 12px; font-weight: 200;" fill="rgb(33, 33, 33)" stroke="none" stroke-width="1px">24k</text><text x="247.265625" y="0" dx="0em" dy="0.95em" style="text-anchor: middle; visibility: hidden; font-family: Roboto, sans-serif; font-size: 12px; font-weight: 200;" fill="rgb(33, 33, 33)" stroke="none" stroke-width="1px">26k</text></g><line x1="0" y1="0" x2="247.265625" y2="0" fill="rgb(0, 0, 0)" stroke="rgb(204, 204, 204)" stroke-width="1px"></line></g></g></g></g></svg>