<svg viewBox="0 0 330 200" xmlns="http://www.w3.org/2000/svg"><g><g><g><g><g><line x1="41.171875" y1="177" x2="36.171875" y2="177" style="visibility: inherit;" fill="rgb(0, 0, 0)" stroke="rgb(204, 204, 204)" stroke-width="1px"></line><line x1="41.171875" y1="162.25" x2="36.171875" y2="162.25" style="visibility: inherit;" fill="rgb(0, 0, 0)" stroke="rgb(204, 204, 204)" stroke-width="1px"></line><line x1="41.171875" y1="147.5" x2="36.171875" y2="147.5" style="visibility: inherit;" fill="rgb(0, 0, 0)" stroke="rgb(204, 204, 204)" stroke-width="1px"></line><line x1="41.171875" y1="132.75" x2="36.171875" y2="132.75" style="visibility: inherit;" fill="rgb(0, 0, 0)" stroke="rgb(204, 204, 204)" stroke-width="1px"></line><line x1="41.171875" y1="118" x2="36.171875" y2="118" style="visibility: inherit;" fill="rgb(0, 0, 0)" stroke="rgb(204, 204, 204)" stroke-width="1px"></line><line x1="41.171875" y1="103.24999999999999" x2="36.171875" y2="103.24999999999999" style="visibility: inherit;" fill="rgb(0, 0, 0)" stroke="rgb(204, 204, 204)" stroke-width="1px"></line><line x1="41.171875" y1="88.5" x2="36.171875" y2="88.5" style="visibility: inherit;" fill="rgb(0, 0, 0)" stroke="rgb(204, 204, 204)" stroke-width="1px"></line><line x1="41.171875" y1="73.75" x2="36.171875" y2="73.75" style="visibility: inherit;" fill="rgb(0, 0, 0)" stroke="rgb(204, 204, 204)" stroke-width="1px"></line><line x1="41.171875" y1="58.999999999999986" x2="36.171875" y2="58.999999999999986" style="visibility: inherit;" fill="rgb(0, 0, 0)" stroke="rgb(204, 204, 204)" stroke-width="1px"></line><line x1="41.171875" y1="44.25" x2="36.171875" y2="44.25" style="visibility: inherit;" fill="rgb(0, 0, 0)" stroke="rgb(204, 204, 204)" stroke-width="1px"></line><line x1="41.171875" y1="29.499999999999993" x2="36.171875" y2="29.499999999999993" style="visibility: inherit;" fill="rgb(0, 0, 0)" stroke="rgb(204, 204, 204)" stroke-width="1px"></line><line x1="41.171875" y1="14.749999999999988" x2="36.171875" y2="14.749999999999988" style="visibility: inherit;" fill="rgb(0, 0, 0)" stroke="rgb(204, 204, 204)" stroke-width="1px"></line><line x1="41.171875" y1="0" x2="36.171875" y2="0" style="visibility: inherit;" fill="rgb(0, 0, 0)" stroke="rgb(204, 204, 204)" stroke-width="1px"></line></g><g transform="translate(31.171875, 0)"><text x="0" y="177" dx="0em" dy="0.3em" style="text-anchor: end; visibility: hidden; font-family: Roboto, sans-serif; font-size: 12px; font-weight: 200;" fill="rgb(33, 33, 33)" stroke="none" stroke-width="1px">0</text><text x="0" y="162.25" dx="0em" dy="0.3em" style="text-anchor: end; visibility: inherit; font-family: Roboto, sans-serif; font-size: 12px; font-weight: 200;" fill="rgb(33, 33, 33)" stroke="none" stroke-width="1px">0.1</text><text x="0" y="147.5" dx="0em" dy="0.3em" style="text-anchor: end; visibility: hidden; font-family: Roboto, sans-serif; font-size: 12px; font-weight: 200;" fill="rgb(33, 33, 33)" stroke="none" stroke-width="1px">0.2</text><text x="0" y="132.75" dx="0em" dy="0.3em" style="text-anchor: end; visibility: inherit; font-family: Roboto, sans-serif; font-size: 12px; font-weight: 200;" fill="rgb(33, 33, 33)" stroke="none" stroke-width="1px">0.3</text><text x="0" y="118" dx="0em" dy="0.3em" style="text-anchor: end; visibility: hidden; font-family: Roboto, sans-serif; font-size: 12px; font-weight: 200;" fill="rgb(33, 33, 33)" stroke="none" stroke-width="1px">0.4</text><text x="0" y="103.24999999999999" dx="0em" dy="0.3em" style="text-anchor: end; visibility: inherit; font-family: Roboto, sans-serif; font-size: 12px; font-weight: 200;" fill="rgb(33, 33, 33)" stroke="none" stroke-width="1px">0.5</text><text x="0" y="88.5" dx="0em" dy="0.3em" style="text-anchor: end; visibility: hidden; font-family: Roboto, sans-serif; font-size: 12px; font-weight: 200;" fill="rgb(33, 33, 33)" stroke="none" stroke-width="1px">0.6</text><text x="0" y="73.75" dx="0em" dy="0.3em" style="text-anchor: end; visibility: inherit; font-family: Roboto, sans-serif; font-size: 12px; font-weight: 200;" fill="rgb(33, 33, 33)" stroke="none" stroke-width="1px">0.7</text><text x="0" y="58.999999999999986" dx="0em" dy="0.3em" style="text-anchor: end; visibility: hidden; font-family: Roboto, sans-serif; font-size: 12px; font-weight: 200;" fill="rgb(33, 33, 33)" stroke="none" stroke-width="1px">0.8</text><text x="0" y="44.25" dx="0em" dy="0.3em" style="text-anchor: end; visibility: inherit; font-family: Roboto, sans-serif; font-size: 12px; font-weight: 200;" fill="rgb(33, 33, 33)" stroke="none" stroke-width="1px">0.9</text><text x="0" y="29.499999999999993" dx="0em" dy="0.3em" style="text-anchor: end; visibility: hidden; font-family: Roboto, sans-serif; font-size: 12px; font-weight: 200;" fill="rgb(33, 33, 33)" stroke="none" stroke-width="1px">1</text><text x="0" y="14.749999999999988" dx="0em" dy="0.3em" style="text-anchor: end; visibility: inherit; font-family: Roboto, sans-serif; font-size: 12px; font-weight: 200;" fill="rgb(33, 33, 33)" stroke="none" stroke-width="1px">1.1</text><text x="0" y="0" dx="0em" dy="0.3em" style="text-anchor: end; visibility: hidden; font-family: Roboto, sans-serif; font-size: 12px; font-weight: 200;" fill="rgb(33, 33, 33)" stroke="none" stroke-width="1px">1.2</text></g><line x1="41.171875" y1="0" x2="41.171875" y2="177" fill="rgb(0, 0, 0)" stroke="rgb(204, 204, 204)" stroke-width="1px"></line></g></g><g transform="translate(41, 0)" clip-path="url(#clip_0)"><clipPath id="clip_0"><rect width="288" height="177"></rect></clipPath><g><g><g><line x1="0" y1="0" x2="0" y2="177" fill="rgb(0, 0, 0)" stroke="rgb(66, 66, 66)" stroke-width="1px" opacity="0.25"></line><line x1="20.630580357142858" y1="0" x2="20.630580357142858" y2="177" fill="rgb(0, 0, 0)" stroke="rgb(66, 66, 66)" stroke-width="1px" opacity="0.25"></line><line x1="41.261160714285715" y1="0" x2="41.261160714285715" y2="177" fill="rgb(0, 0, 0)" stroke="rgb(66, 66, 66)" stroke-width="1px" opacity="0.25"></line><line x1="61.89174107142857" y1="0" x2="61.89174107142857" y2="177" fill="rgb(0, 0, 0)" stroke="rgb(66, 66, 66)" stroke-width="1px" opacity="0.25"></line><line x1="82.52232142857143" y1="0" x2="82.52232142857143" y2="177" fill="rgb(0, 0, 0)" stroke="rgb(66, 66, 66)" stroke-width="1px" opacity="0.25"></line><line x1="103.15290178571429" y1="0" x2="103.15290178571429" y2="177" fill="rgb(0, 0, 0)" stroke="rgb(66, 66, 66)" stroke-width="1px" opacity="0.25"></line><line x1="123.78348214285714" y1="0" x2="123.78348214285714" y2="177" fill="rgb(0, 0, 0)" stroke="rgb(66, 66, 66)" stroke-width="1px" opacity="0.25"></line><line x1="144.4140625" y1="0" x2="144.4140625" y2="177" fill="rgb(0, 0, 0)" stroke="rgb(66, 66, 66)" stroke-width="1px" opacity="0.25"></line><line x1="165.04464285714286" y1="0" x2="165.04464285714286" y2="177" fill="rgb(0, 0, 0)" stroke="rgb(66, 66, 66)" stroke-width="1px" opacity="0.25"></line><line x1="185.67522321428572" y1="0" x2="185.67522321428572" y2="177" fill="rgb(0, 0, 0)" stroke="rgb(66, 66, 66)" stroke-width="1px" opacity="0.25"></line><line x1="206.30580357142858" y1="0" x2="206.30580357142858" y2="177" fill="rgb(0, 0, 0)" stroke="rgb(66, 66, 66)" stroke-width="1px" opacity="0.25"></line><line x1="226.93638392857142" y1="0" x2="226.93638392857142" y2="177" fill="rgb(0, 0, 0)" stroke="rgb(66, 66, 66)" stroke-width="1px" opacity="0.25"></line><line x1="247.56696428571428" y1="0" x2="247.56696428571428" y2="177" fill="rgb(0, 0, 0)" stroke="rgb(66, 66, 66)" stroke-width="1px" opacity="0.25"></line><line x1="268.19754464285717" y1="0" x2="268.19754464285717" y2="177" fill="rgb(0, 0, 0)" stroke="rgb(66, 66, 66)" stroke-width="1px" opacity="0.25"></line><line x1="288.828125" y1="0" x2="288.828125" y2="177" fill="rgb(0, 0, 0)" stroke="rgb(66, 66, 66)" stroke-width="1px" opacity="0.25"></line></g><g><line x1="0" y1="177" x2="288.828125" y2="177" fill="rgb(0, 0, 0)" stroke="rgb(66, 66, 66)" stroke-width="1px" opacity="0.25"></line><line x1="0" y1="162.25" x2="288.828125" y2="162.25" fill="rgb(0, 0, 0)" stroke="rgb(66, 66, 66)" stroke-width="1px" opacity="0.25"></line><line x1="0" y1="147.5" x2="288.828125" y2="147.5" fill="rgb(0, 0, 0)" stroke="rgb(66, 66, 66)" stroke-width="1px" opacity="0.25"></line><line x1="0" y1="132.75" x2="288.828125" y2="132.75" fill="rgb(0, 0, 0)" stroke="rgb(66, 66, 66)" stroke-width="1px" opacity="0.25"></line><line x1="0" y1="118" x2="288.828125" y2="118" fill="rgb(0, 0, 0)" stroke="rgb(66, 66, 66)" stroke-width="1px" opacity="0.25"></line><line x1="0" y1="103.24999999999999" x2="288.828125" y2="103.24999999999999" fill="rgb(0, 0, 0)" stroke="rgb(66, 66, 66)" stroke-width="1px" opacity="0.25"></line><line x1="0" y1="88.5" x2="288.828125" y2="88.5" fill="rgb(0, 0, 0)" stroke="rgb(66, 66, 66)" stroke-width="1px" opacity="0.25"></line><line x1="0" y1="73.75" x2="288.828125" y2="73.75" fill="rgb(0, 0, 0)" stroke="rgb(66, 66, 66)" stroke-width="1px" opacity="0.25"></line><line x1="0" y1="58.999999999999986" x2="288.828125" y2="58.999999999999986" fill="rgb(0, 0, 0)" stroke="rgb(66, 66, 66)" stroke-width="1px" opacity="0.25"></line><line x1="0" y1="44.25" x2="288.828125" y2="44.25" fill="rgb(0, 0, 0)" stroke="rgb(66, 66, 66)" stroke-width="1px" opacity="0.25"></line><line x1="0" y1="29.499999999999993" x2="288.828125" y2="29.499999999999993" fill="rgb(0, 0, 0)" stroke="rgb(66, 66, 66)" stroke-width="1px" opacity="0.25"></line><line x1="0" y1="14.749999999999988" x2="288.828125" y2="14.749999999999988" fill="rgb(0, 0, 0)" stroke="rgb(66, 66, 66)" stroke-width="1px" opacity="0.25"></line><line x1="0" y1="0" x2="288.828125" y2="0" fill="rgb(0, 0, 0)" stroke="rgb(66, 66, 66)" stroke-width="1px" opacity="0.25"></line></g></g></g><g><g><line x1="0" y1="177" x2="288.828125" y2="177" fill="rgb(0, 0, 0)" stroke="rgb(153, 153, 153)" stroke-width="1.5px"></line></g></g><g><g><line x1="20.630580357142858" y1="0" x2="20.630580357142858" y2="177" fill="rgb(0, 0, 0)" stroke="rgb(153, 153, 153)" stroke-width="1.5px"></line></g></g><g><g><g><g><g><path stroke="rgb(255, 112, 67)" stroke-width="2px" d="M21.662109375,86.43595498800276L22.693638392857142,100.49080161191522L23.725167410714285,108.69924727964158L24.756696428571427,101.1352777854156L25.788225446428573,103.77706216872359L26.819754464285715,111.7888766969209L27.851283482142858,118.15456798128771L28.8828125,122.02811188364244L29.914341517857146,130.9343384999475L30.945870535714285,112.46735725540134L31.977399553571427,118.23307837474252L33.00892857142857,122.45437294167309L34.040457589285715,131.1836913786842L35.071986607142854,126.73077842404602L36.103515625,126.57401459014208L37.13504464285714,128.7508594123558L38.166573660714285,128.93459944230642L39.19810267857142,134.68622429880276L40.22963169642857,129.4035000474517L41.261160714285715,134.00301118306808L42.29268973214286,118.61111437754533L43.32421875,132.61228016907953L44.355747767857146,136.3034054067252L45.387276785714285,129.18803176741284L46.41880580357143,129.04416153333844L47.45033482142857,133.42427826548789L48.48186383928571,140.33286728513855L49.513392857142854,135.9940550567737L50.544921875,133.6807175482351L51.576450892857146,112.45755833913307L52.607979910714285,125.96098879596684L53.63950892857143,130.15649022842157L54.67103794642857,136.51902707611237L55.702566964285715,134.51382544968112L56.734095982142854,144.4660295116124L57.765625,140.95182465071045L58.797154017857146,129.33062984042442L59.82868303571429,135.8898962919671L60.86021205357143,130.6009396604935L61.89174107142857,134.68074547253474L62.923270089285715,138.16437737924568L63.954799107142854,138.5012246060962L64.986328125,138.4319687895929L66.01785714285714,144.9091719884742L67.04938616071429,140.24235183542552L68.08091517857143,129.67331488391753L69.11244419642857,135.96932815015626L70.14397321428571,134.04815351660892L71.17550223214286,145.04535929841222L72.20703125,139.64115601465159L73.23856026785714,142.80005690269246L74.27008928571428,145.38329931982656L75.30161830357143,145.01013310783026L76.33314732142857,143.14424639959685L77.36467633928571,138.95136457097L78.39620535714285,127.94801783210498L79.427734375,126.04238027123445L80.45926339285714,140.08418394945951L81.49079241071429,139.51390276445676L82.52232142857143,136.7623622005803L83.55385044642858,138.87715660545967L84.58537946428572,136.79770503052316L85.61690848214286,131.58271057372232L86.6484375,132.42620340564812L87.67996651785714,131.23714440810062L88.71149553571429,123.87554047553165L89.74302455357143,121.43581227092996L90.77455357142857,128.77064808386L91.80608258928571,135.46090788947006L92.83761160714286,140.1203453261045L93.869140625,140.7935798328154L94.90066964285714,144.98118398851352L95.93219866071428,143.69504485288974L96.96372767857142,138.63951082086396L97.99525669642857,131.7175735715379L99.02678571428571,136.72536820074018L100.05831473214286,139.55401522159633L101.08984375,135.25493395471608L102.12137276785715,133.33277443137192L103.15290178571429,135.3592395608808L104.18443080357143,133.65938089044005L105.21595982142857,141.28395688385433L106.24748883928572,142.61065573901334L107.27901785714286,142.96243911630154L108.310546875,141.6355990090742L109.34207589285714,141.29532887153474L110.37360491071428,142.63287580974486L111.40513392857143,140.56247997264617L112.43666294642857,147.89254821676343L113.46819196428571,149.99051597916085L114.49972098214285,147.76728645088076L115.53125,140.68280069900632L116.56277901785714,142.95432634277986L117.59430803571429,142.93613481595423L118.62583705357143,148.67475864931527L119.65736607142858,144.1488770284926L120.68889508928572,132.28707319132536L121.72042410714286,134.5346775867465L122.751953125,137.85015645730036L123.78348214285714,141.09826626543725L124.81501116071429,144.33239650824382L125.84654017857143,132.6725527650041L126.87806919642857,140.58134237265128L127.90959821428571,141.66855245730602L128.94112723214286,135.88187735021904L129.97265625,142.86541456723688L131.00418526785714,135.9640023573904L132.03571428571428,137.6756883719366L133.06724330357142,137.80372380368715L134.09877232142858,137.7885576614905L135.13030133928572,143.7145865606766L136.16183035714286,141.46746754333384L137.193359375,138.50632985046508L138.22488839285714,145.7956830269754L139.25641741071428,136.69336747566823L140.28794642857142,139.70890773498988L141.31947544642856,140.14220217564093L142.35100446428572,143.10355596362584L143.38253348214286,140.6203871108236L144.4140625,143.81456814331662L145.44559151785714,109.56830787731916L146.47712053571428,120.02487761422223L147.50864955357142,132.5664610007061L148.54017857142856,138.05261486105047L149.57170758928572,135.60192046363306L150.60323660714286,136.9740578281829L151.634765625,135.20100266027148L152.66629464285714,131.94942905478294L153.69782366071428,143.03304426057704L154.72935267857142,154.54470973571284L155.76088169642856,156.6356076560029L156.7924107142857,150.4385743475919L157.82393973214283,142.34049157720597L158.85546875,143.53333153976078L159.88699776785714,142.05881399901554L160.91852678571428,146.76706143314746L161.95005580357142,146.05788084027236L162.98158482142858,147.72025702987352L164.01311383928572,149.91910695489787L165.04464285714286,146.68554519090975L166.076171875,149.99905364199833L167.10770089285717,146.2075277834198L168.1392299107143,148.2996057849563L169.17075892857144,149.04023393579942L170.20228794642858,149.21366779559028L171.23381696428572,152.9964162054847L172.26534598214286,143.69987818260134L173.296875,149.4717641214081L174.32840401785714,151.83077520665816L175.35993303571428,150.08135369144256L176.39146205357144,146.60452225042806L177.42299107142858,141.64287946363345L178.45452008928572,131.26094052040608L179.48604910714286,139.669264685178L180.517578125,139.07724345389855L181.54910714285714,141.90829740562353L182.58063616071428,144.05793179332204L183.61216517857142,139.33151922976364L184.64369419642856,138.67343187543983L185.67522321428572,139.9867071700885L186.70675223214286,146.9651747669455L187.73828125,145.7503494754837L188.76981026785714,152.76070172699724L189.80133928571428,141.17326181001923L190.83286830357142,137.83438264648592L191.86439732142856,143.04476113510415L192.8959263392857,150.36608847613505L193.92745535714283,147.72990626475436L194.958984375,153.01830364990963L195.99051339285714,149.7357562883421L197.02204241071428,145.14840868137622L198.05357142857142,150.16855660094228L199.08510044642858,150.9213159144724L200.11662946428572,151.08650235598114L201.14815848214286,147.16365126529234L202.1796875,146.8716145054036L203.21121651785717,150.1073816445788L204.2427455357143,147.0395841644597L205.27427455357144,128.03251893796872L206.30580357142858,137.8915874032876L207.33733258928572,138.09467328600294L208.36886160714286,142.75998855240468L209.400390625,143.5763951248367L210.43191964285714,141.44256549515958L211.46344866071428,144.63449506723066L212.49497767857144,143.09260749377717L213.52650669642858,143.77962646816914L214.55803571428572,143.64232148787227L215.58956473214286,139.37078231013325L216.62109375,141.48739232979122L217.65262276785714,139.71511791564168L218.68415178571428,145.98275264154162L219.71568080357142,145.50887900918892L220.74720982142856,140.91784150201184L221.77873883928572,134.6172440278417L222.81026785714286,141.83892248737135L223.841796875,145.72599859039374L224.87332589285714,145.92510890364878L225.90485491071428,141.08667659402033L226.93638392857142,142.11496074879253L227.96791294642856,144.54731223216106L228.9994419642857,143.66011598843605L230.03097098214283,147.7460255899326L231.0625,152.83978790660478L232.09402901785714,149.55110857558117L233.12555803571428,143.31610788507382L234.15708705357142,142.54253241481257L235.18861607142858,149.63763227946683L236.22014508928572,145.69344215921834L237.25167410714286,147.83161433835193L238.283203125,148.09364827155687L239.31473214285717,143.10856014299165L240.3462611607143,145.6851214337812L241.37779017857144,148.49804113617338L242.40931919642858,153.84065030998468L243.44084821428572,146.73260385982084L244.47237723214286,149.77067889685563L245.50390625,149.62123420783956L246.53543526785714,145.78156730502295L247.56696428571428,146.75480536502272L248.59849330357144,148.4733564846615L249.63002232142858,145.46567229884266L250.66155133928572,145.57396894071937L251.69308035714286,151.49536794945263L252.724609375,93.44852980688015L253.75613839285714,120.12379111924646L254.78766741071428,136.30826531397628L255.81919642857142,134.6579712423523L256.85072544642856,133.86193103151558L257.8822544642857,137.4142544690194L258.9137834821429,141.52878981968297L259.9453125,141.67791107380708L260.97684151785717,146.62139010181616L262.0083705357143,153.68576460928077L263.03989955357144,154.90413425475572L264.07142857142856,148.27550808256993L265.1029575892857,150.76238192716912L266.13448660714283,147.6163437402229L267.166015625,149.33837045645598L268.19754464285717,145.354611381387" style="fill: none;" fill="none"></path></g><g><path stroke="rgb(0, 119, 187)" stroke-width="2px" d="M20.630580357142858,7.6108316779136524L41.261160714285715,77.17616650089623L61.89174107142857,100.32518193034494L82.52232142857143,111.15054634295625L103.15290178571429,117.19010928730268L123.78348214285714,120.92916305098686L144.4140625,123.28709973744981L165.04464285714286,124.66085914984238L185.67522321428572,125.8316170822405L206.30580357142858,126.31435177741507L226.93638392857142,127.28609187274999L247.56696428571428,126.95900148943309L268.19754464285717,127.29479428776034" style="fill: none;" fill="none"></path></g></g></g></g><g opacity="0.2"><g><g><g><path stroke="rgb(255, 112, 67)" stroke-width="2px" d="M21.662109375,86.43595498800276L22.693638392857142,108.92370958626269L23.725167410714285,116.57935512065887L24.756696428571427,92.24004966020583L25.788225446428573,107.2261758595705L26.819754464285715,122.87210044264793L27.851283482142858,127.2576083689928L28.8828125,127.67577607929707L29.914341517857146,144.0692928135395L30.945870535714285,85.04604232311247L31.977399553571427,126.82936538755892L33.00892857142857,128.76334269344807L34.040457589285715,144.24916629493237L35.071986607142854,120.06013271212578L36.103515625,126.3390531092882L37.13504464285714,132.01459136605263L38.166573660714285,129.2101317346096L39.19810267857142,143.31220124661922L40.22963169642857,121.48021844029427L41.261160714285715,140.90185747295618L42.29268973214286,95.52411329746245L43.32421875,153.61356814205647L44.355747767857146,141.8400203883648L45.387276785714285,118.51505559682846L46.41880580357143,128.82835720479488L47.45033482142857,139.994434684515L48.48186383928571,150.69573313742876L49.513392857142854,129.4858433753252L50.544921875,130.21071341633797L51.576450892857146,80.62283125519753L52.607979910714285,146.2161300033331L53.63950892857143,136.44974154233932L54.67103794642857,146.06283158808947L55.702566964285715,131.50602315366268L56.734095982142854,159.39433517679572L57.765625,135.680517449975L58.797154017857146,111.89883780479431L59.82868303571429,145.72879590839148L60.86021205357143,122.66750474274158L61.89174107142857,140.80045417696238L62.923270089285715,143.38982523232698L63.954799107142854,139.00649544596672L64.986328125,138.328085064888L66.01785714285714,154.62497678399086L67.04938616071429,133.2421216070652L68.08091517857143,113.81975945830345L69.11244419642857,145.4133480489254L70.14397321428571,131.16639156639576L71.17550223214286,161.54116797074676L72.20703125,131.5348510891199L73.23856026785714,147.53840823471546L74.27008928571428,149.25816294550896L75.30161830357143,144.45038378983736L76.33314732142857,140.34541633725166L77.36467633928571,132.6620418280363L78.39620535714285,111.44299772381783L79.427734375,123.18392392992972L80.45926339285714,161.14688946679235L81.49079241071429,138.65848098695278L82.52232142857143,132.6350513547659L83.55385044642858,142.04934821277857L84.58537946428572,133.67852766811848L85.61690848214286,123.76021888852118L86.6484375,133.6914426535368L87.67996651785714,129.4535559117794L88.71149553571429,112.83313457667828L89.74302455357143,117.77621996402739L90.77455357142857,139.77290180325508L91.80608258928571,145.49629759788513L92.83761160714286,147.1095014810562L93.869140625,141.80343159288168L94.90066964285714,151.26259022206068L95.93219866071428,141.76583614945412L96.96372767857142,131.05620977282524L97.99525669642857,121.33466769754887L99.02678571428571,144.23706014454365L100.05831473214286,143.79698575288057L101.08984375,128.80631205439568L102.12137276785715,130.44953514635563L103.15290178571429,138.39893725514412L104.18443080357143,131.10959288477898L105.21595982142857,152.72082087397575L106.24748883928572,144.60070402175188L107.27901785714286,143.4901141822338L108.310546875,139.64533884823322L109.34207589285714,140.7849236652255L110.37360491071428,144.6391962170601L111.40513392857143,137.4568862169981L112.43666294642857,158.8876505829394L113.46819196428571,153.13746762275696L114.49972098214285,144.43244215846062L115.53125,130.05607207119465L116.56277901785714,146.3616148084402L117.59430803571429,142.90884752571583L118.62583705357143,157.28269439935684L119.65736607142858,137.36005459725857L120.68889508928572,114.49436743557453L121.72042410714286,137.90608417987823L122.751953125,142.82337476313114L123.78348214285714,145.97043097764254L124.81501116071429,149.1835918724537L125.84654017857143,115.18278715014456L126.87806919642857,152.444526784122L127.90959821428571,143.29936758428812L128.94112723214286,127.20186468958855L129.97265625,153.34072039276361L131.00418526785714,125.61188404262066L132.03571428571428,140.2432173937559L133.06724330357142,137.99577695131302L134.09877232142858,137.76580844819546L135.13030133928572,152.60362990945578L136.16183035714286,138.09678901731968L137.193359375,134.064623311162L138.22488839285714,156.7297127917409L139.25641741071428,123.03989414870739L140.28794642857142,144.23221812397242L141.31947544642856,140.79214383661747L142.35100446428572,147.54558664560318L143.38253348214286,136.89563383162022L144.4140625,148.60583969205618L145.44559151785714,58.19891747832298L146.47712053571428,135.70973221957684L147.50864955357142,151.37883608043194L148.54017857142856,146.28184565156698L149.57170758928572,131.92587886750698L150.60323660714286,139.03226387500763L151.634765625,132.54141990840435L152.66629464285714,127.07206864655016L153.69782366071428,159.65846706926823L154.72935267857142,171.81220794841647L155.76088169642856,159.771954536438L156.7924107142857,141.14302438497543L157.82393973214283,130.19336742162704L158.85546875,145.322591483593L159.88699776785714,139.84703768789768L160.91852678571428,153.82943258434534L161.95005580357142,144.99410995095968L162.98158482142858,150.21382131427526L164.01311383928572,153.2173818424344L165.04464285714286,141.8352025449276L166.076171875,154.96931631863117L167.10770089285717,140.52023899555206L168.1392299107143,151.437722787261L169.17075892857144,150.15117616206408L170.20228794642858,149.4738185852766L171.23381696428572,158.67053882032633L172.26534598214286,129.75507114827633L173.296875,158.12959302961826L174.32840401785714,155.36929183453321L175.35993303571428,147.45722141861916L176.39146205357144,141.3892750889063L177.42299107142858,134.20041528344154L178.45452008928572,115.68803210556507L179.48604910714286,152.28175093233585L180.517578125,138.18921160697937L181.54910714285714,146.15487833321095L182.58063616071428,147.28238337486982L183.61216517857142,132.24190038442612L184.64369419642856,137.6863008439541L185.67522321428572,141.9566201120615L186.70675223214286,157.43287616223097L187.73828125,143.92811153829098L188.76981026785714,163.2762301042676L189.80133928571428,123.79210193455219L190.83286830357142,132.826063901186L191.86439732142856,150.8603288680315L192.8959263392857,161.3480794876814L193.92745535714283,143.77563294768333L194.958984375,160.95089972764254L195.99051339285714,144.81193524599075L197.02204241071428,138.26738727092743L198.05357142857142,157.69877848029137L199.08510044642858,152.05045488476753L200.11662946428572,151.33428201824427L201.14815848214286,141.2793746292591L202.1796875,146.43355936557055L203.21121651785717,154.96103235334158L204.2427455357143,142.4378879442811L205.27427455357144,99.52192109823227L206.30580357142858,152.6801901012659L207.33733258928572,138.39930211007595L208.36886160714286,149.7579614520073L209.400390625,144.80100498348475L210.43191964285714,138.24182105064392L211.46344866071428,149.42238942533731L212.49497767857144,140.7797761335969L213.52650669642858,144.81015492975712L214.55803571428572,143.43636401742697L215.58956473214286,132.96347354352474L216.62109375,144.6623073592782L217.65262276785714,137.05670629441738L218.68415178571428,155.3842047303915L219.71568080357142,144.79806856065989L220.74720982142856,134.03128524124622L221.77873883928572,125.1663478165865L222.81026785714286,152.67144017666578L223.841796875,151.5566127449274L224.87332589285714,146.22377437353134L225.90485491071428,133.82902812957764L226.93638392857142,143.65738698095083L227.96791294642856,148.19583945721388L228.9994419642857,142.3293216228485L230.03097098214283,153.8748899921775L231.0625,160.48043138161302L232.09402901785714,144.61808957904577L233.12555803571428,133.96360684931278L234.15708705357142,141.38216920942068L235.18861607142858,160.2802820764482L236.22014508928572,139.7771569788456L237.25167410714286,151.03887260705233L238.283203125,148.4866991713643L239.31473214285717,135.6309279501438L240.3462611607143,149.54996336996555L241.37779017857144,152.71742068976164L242.40931919642858,161.8545640707016L243.44084821428572,136.07053418457508L244.47237723214286,154.32779145240784L245.50390625,149.39706717431545L246.53543526785714,140.02206695079803L247.56696428571428,148.21466245502234L248.59849330357144,151.05118316411972L249.63002232142858,140.95414602011442L250.66155133928572,145.7364139035344L251.69308035714286,160.37746646255255L252.724609375,6.3782725930213795L253.75613839285714,160.13668308779597L254.78766741071428,160.584976606071L255.81919642857142,132.1825301349163L256.85072544642856,132.6678707152605L257.8822544642857,142.74273962527514L258.9137834821429,147.70059284567833L259.9453125,141.90159295499325L260.97684151785717,154.03660864382982L262.0083705357143,164.28232637047768L263.03989955357144,156.7316887229681L264.07142857142856,138.33256882429123L265.1029575892857,154.49269269406796L266.13448660714283,142.89728645980358L267.166015625,151.9214105308056L268.19754464285717,139.37897276878357" style="fill: none;" fill="none"></path></g><g><path stroke="rgb(0, 119, 187)" stroke-width="2px" d="M20.630580357142858,7.6108316779136524L41.261160714285715,118.91536739468575L61.89174107142857,122.5482367426157L82.52232142857143,123.8811748921871L103.15290178571429,125.07536266744137L123.78348214285714,126.10162046551704L144.4140625,126.6589869260788L165.04464285714286,126.6638135612011L185.67522321428572,127.55825762450695L206.30580357142858,127.03115653991699L226.93638392857142,128.73488840460777L247.56696428571428,126.47014592587948L268.19754464285717,127.79738706350327" style="fill: none;" fill="none"></path></g></g></g></g></g></g><g transform="translate(41, 177)" clip-path="url(#clip_1)"><clipPath id="clip_1"><rect width="288" height="23"></rect></clipPath><g><g><line x1="0" y1="0" x2="0" y2="5" style="visibility: inherit;" fill="rgb(0, 0, 0)" stroke="rgb(204, 204, 204)" stroke-width="1px"></line><line x1="20.630580357142858" y1="0" x2="20.630580357142858" y2="5" style="visibility: inherit;" fill="rgb(0, 0, 0)" stroke="rgb(204, 204, 204)" stroke-width="1px"></line><line x1="41.261160714285715" y1="0" x2="41.261160714285715" y2="5" style="visibility: inherit;" fill="rgb(0, 0, 0)" stroke="rgb(204, 204, 204)" stroke-width="1px"></line><line x1="61.89174107142857" y1="0" x2="61.89174107142857" y2="5" style="visibility: inherit;" fill="rgb(0, 0, 0)" stroke="rgb(204, 204, 204)" stroke-width="1px"></line><line x1="82.52232142857143" y1="0" x2="82.52232142857143" y2="5" style="visibility: inherit;" fill="rgb(0, 0, 0)" stroke="rgb(204, 204, 204)" stroke-width="1px"></line><line x1="103.15290178571429" y1="0" x2="103.15290178571429" y2="5" style="visibility: inherit;" fill="rgb(0, 0, 0)" stroke="rgb(204, 204, 204)" stroke-width="1px"></line><line x1="123.78348214285714" y1="0" x2="123.78348214285714" y2="5" style="visibility: inherit;" fill="rgb(0, 0, 0)" stroke="rgb(204, 204, 204)" stroke-width="1px"></line><line x1="144.4140625" y1="0" x2="144.4140625" y2="5" style="visibility: inherit;" fill="rgb(0, 0, 0)" stroke="rgb(204, 204, 204)" stroke-width="1px"></line><line x1="165.04464285714286" y1="0" x2="165.04464285714286" y2="5" style="visibility: inherit;" fill="rgb(0, 0, 0)" stroke="rgb(204, 204, 204)" stroke-width="1px"></line><line x1="185.67522321428572" y1="0" x2="185.67522321428572" y2="5" style="visibility: inherit;" fill="rgb(0, 0, 0)" stroke="rgb(204, 204, 204)" stroke-width="1px"></line><line x1="206.30580357142858" y1="0" x2="206.30580357142858" y2="5" style="visibility: inherit;" fill="rgb(0, 0, 0)" stroke="rgb(204, 204, 204)" stroke-width="1px"></line><line x1="226.93638392857142" y1="0" x2="226.93638392857142" y2="5" style="visibility: inherit;" fill="rgb(0, 0, 0)" stroke="rgb(204, 204, 204)" stroke-width="1px"></line><line x1="247.56696428571428" y1="0" x2="247.56696428571428" y2="5" style="visibility: inherit;" fill="rgb(0, 0, 0)" stroke="rgb(204, 204, 204)" stroke-width="1px"></line><line x1="268.19754464285717" y1="0" x2="268.19754464285717" y2="5" style="visibility: inherit;" fill="rgb(0, 0, 0)" stroke="rgb(204, 204, 204)" stroke-width="1px"></line><line x1="288.828125" y1="0" x2="288.828125" y2="5" style="visibility: inherit;" fill="rgb(0, 0, 0)" stroke="rgb(204, 204, 204)" stroke-width="1px"></line></g><g transform="translate(0, 8)"><text x="0" y="0" dx="0em" dy="0.95em" style="text-anchor: middle; visibility: hidden; font-family: Roboto, sans-serif; font-size: 12px; font-weight: 200;" fill="rgb(33, 33, 33)" stroke="none" stroke-width="1px">-2k</text><text x="20.630580357142858" y="0" dx="0em" dy="0.95em" style="text-anchor: middle; visibility: inherit; font-family: Roboto, sans-serif; font-size: 12px; font-weight: 200;" fill="rgb(33, 33, 33)" stroke="none" stroke-width="1px">0</text><text x="41.261160714285715" y="0" dx="0em" dy="0.95em" style="text-anchor: middle; visibility: hidden; font-family: Roboto, sans-serif; font-size: 12px; font-weight: 200;" fill="rgb(33, 33, 33)" stroke="none" stroke-width="1px">2k</text><text x="61.89174107142857" y="0" dx="0em" dy="0.95em" style="text-anchor: middle; visibility: inherit; font-family: Roboto, sans-serif; font-size: 12px; font-weight: 200;" fill="rgb(33, 33, 33)" stroke="none" stroke-width="1px">4k</text><text x="82.52232142857143" y="0" dx="0em" dy="0.95em" style="text-anchor: middle; visibility: hidden; font-family: Roboto, sans-serif; font-size: 12px; font-weight: 200;" fill="rgb(33, 33, 33)" stroke="none" stroke-width="1px">6k</text><text x="103.15290178571429" y="0" dx="0em" dy="0.95em" style="text-anchor: middle; visibility: inherit; font-family: Roboto, sans-serif; font-size: 12px; font-weight: 200;" fill="rgb(33, 33, 33)" stroke="none" stroke-width="1px">8k</text><text x="123.78348214285714" y="0" dx="0em" dy="0.95em" style="text-anchor: middle; visibility: hidden; font-family: Roboto, sans-serif; font-size: 12px; font-weight: 200;" fill="rgb(33, 33, 33)" stroke="none" stroke-width="1px">10k</text><text x="144.4140625" y="0" dx="0em" dy="0.95em" style="text-anchor: middle; visibility: inherit; font-family: Roboto, sans-serif; font-size: 12px; font-weight: 200;" fill="rgb(33, 33, 33)" stroke="none" stroke-width="1px">12k</text><text x="165.04464285714286" y="0" dx="0em" dy="0.95em" style="text-anchor: middle; visibility: hidden; font-family: Roboto, sans-serif; font-size: 12px; font-weight: 200;" fill="rgb(33, 33, 33)" stroke="none" stroke-width="1px">14k</text><text x="185.67522321428572" y="0" dx="0em" dy="0.95em" style="text-anchor: middle; visibility: inherit; font-family: Roboto, sans-serif; font-size: 12px; font-weight: 200;" fill="rgb(33, 33, 33)" stroke="none" stroke-width="1px">16k</text><text x="206.30580357142858" y="0" dx="0em" dy="0.95em" style="text-anchor: middle; visibility: hidden; font-family: Roboto, sans-serif; font-size: 12px; font-weight: 200;" fill="rgb(33, 33, 33)" stroke="none" stroke-width="1px">18k</text><text x="226.93638392857142" y="0" dx="0em" dy="0.95em" style="text-anchor: middle; visibility: inherit; font-family: Roboto, sans-serif; font-size: 12px; font-weight: 200;" fill="rgb(33, 33, 33)" stroke="none" stroke-width="1px">20k</text><text x="247.56696428571428" y="0" dx="0em" dy="0.95em" style="text-anchor: middle; visibility: hidden; font-family: Roboto, sans-serif; font-size: 12px; font-weight: 200;" fill="rgb(33, 33, 33)" stroke="none" stroke-width="1px">22k</text><text x="268.19754464285717" y="0" dx="0em" dy="0.95em" style="text-anchor: middle; visibility: inherit; font-family: Roboto, sans-serif; font-size: 12px; font-weight: 200;" fill="rgb(33, 33, 33)" stroke="none" stroke-width="1px">24k</text><text x="288.828125" y="0" dx="0em" dy="0.95em" style="text-anchor: middle; visibility: hidden; font-family: Roboto, sans-serif; font-size: 12px; font-weight: 200;" fill="rgb(33, 33, 33)" stroke="none" stroke-width="1px">26k</text></g><line x1="0" y1="0" x2="288.828125" y2="0" fill="rgb(0, 0, 0)" stroke="rgb(204, 204, 204)" stroke-width="1px"></line></g></g></g></g></svg>