<svg viewBox="0 0 330 200" xmlns="http://www.w3.org/2000/svg"><g><g><g><g><g><line x1="41.171875" y1="177" x2="36.171875" y2="177" style="visibility: inherit;" fill="rgb(0, 0, 0)" stroke="rgb(204, 204, 204)" stroke-width="1px"></line><line x1="41.171875" y1="157.33333333333331" x2="36.171875" y2="157.33333333333331" style="visibility: inherit;" fill="rgb(0, 0, 0)" stroke="rgb(204, 204, 204)" stroke-width="1px"></line><line x1="41.171875" y1="137.66666666666666" x2="36.171875" y2="137.66666666666666" style="visibility: inherit;" fill="rgb(0, 0, 0)" stroke="rgb(204, 204, 204)" stroke-width="1px"></line><line x1="41.171875" y1="118" x2="36.171875" y2="118" style="visibility: inherit;" fill="rgb(0, 0, 0)" stroke="rgb(204, 204, 204)" stroke-width="1px"></line><line x1="41.171875" y1="98.33333333333334" x2="36.171875" y2="98.33333333333334" style="visibility: inherit;" fill="rgb(0, 0, 0)" stroke="rgb(204, 204, 204)" stroke-width="1px"></line><line x1="41.171875" y1="78.66666666666666" x2="36.171875" y2="78.66666666666666" style="visibility: inherit;" fill="rgb(0, 0, 0)" stroke="rgb(204, 204, 204)" stroke-width="1px"></line><line x1="41.171875" y1="58.999999999999964" x2="36.171875" y2="58.999999999999964" style="visibility: inherit;" fill="rgb(0, 0, 0)" stroke="rgb(204, 204, 204)" stroke-width="1px"></line><line x1="41.171875" y1="39.33333333333333" x2="36.171875" y2="39.33333333333333" style="visibility: inherit;" fill="rgb(0, 0, 0)" stroke="rgb(204, 204, 204)" stroke-width="1px"></line><line x1="41.171875" y1="19.666666666666636" x2="36.171875" y2="19.666666666666636" style="visibility: inherit;" fill="rgb(0, 0, 0)" stroke="rgb(204, 204, 204)" stroke-width="1px"></line><line x1="41.171875" y1="0" x2="36.171875" y2="0" style="visibility: inherit;" fill="rgb(0, 0, 0)" stroke="rgb(204, 204, 204)" stroke-width="1px"></line></g><g transform="translate(31.171875, 0)"><text x="0" y="177" dx="0em" dy="0.3em" style="text-anchor: end; visibility: hidden; font-family: Roboto, sans-serif; font-size: 12px; font-weight: 200;" fill="rgb(33, 33, 33)" stroke="none" stroke-width="1px">0.3</text><text x="0" y="157.33333333333331" dx="0em" dy="0.3em" style="text-anchor: end; visibility: inherit; font-family: Roboto, sans-serif; font-size: 12px; font-weight: 200;" fill="rgb(33, 33, 33)" stroke="none" stroke-width="1px">0.4</text><text x="0" y="137.66666666666666" dx="0em" dy="0.3em" style="text-anchor: end; visibility: hidden; font-family: Roboto, sans-serif; font-size: 12px; font-weight: 200;" fill="rgb(33, 33, 33)" stroke="none" stroke-width="1px">0.5</text><text x="0" y="118" dx="0em" dy="0.3em" style="text-anchor: end; visibility: inherit; font-family: Roboto, sans-serif; font-size: 12px; font-weight: 200;" fill="rgb(33, 33, 33)" stroke="none" stroke-width="1px">0.6</text><text x="0" y="98.33333333333334" dx="0em" dy="0.3em" style="text-anchor: end; visibility: hidden; font-family: Roboto, sans-serif; font-size: 12px; font-weight: 200;" fill="rgb(33, 33, 33)" stroke="none" stroke-width="1px">0.7</text><text x="0" y="78.66666666666666" dx="0em" dy="0.3em" style="text-anchor: end; visibility: inherit; font-family: Roboto, sans-serif; font-size: 12px; font-weight: 200;" fill="rgb(33, 33, 33)" stroke="none" stroke-width="1px">0.8</text><text x="0" y="58.999999999999964" dx="0em" dy="0.3em" style="text-anchor: end; visibility: hidden; font-family: Roboto, sans-serif; font-size: 12px; font-weight: 200;" fill="rgb(33, 33, 33)" stroke="none" stroke-width="1px">0.9</text><text x="0" y="39.33333333333333" dx="0em" dy="0.3em" style="text-anchor: end; visibility: inherit; font-family: Roboto, sans-serif; font-size: 12px; font-weight: 200;" fill="rgb(33, 33, 33)" stroke="none" stroke-width="1px">1</text><text x="0" y="19.666666666666636" dx="0em" dy="0.3em" style="text-anchor: end; visibility: hidden; font-family: Roboto, sans-serif; font-size: 12px; font-weight: 200;" fill="rgb(33, 33, 33)" stroke="none" stroke-width="1px">1.1</text><text x="0" y="0" dx="0em" dy="0.3em" style="text-anchor: end; visibility: hidden; font-family: Roboto, sans-serif; font-size: 12px; font-weight: 200;" fill="rgb(33, 33, 33)" stroke="none" stroke-width="1px">1.2</text></g><line x1="41.171875" y1="0" x2="41.171875" y2="177" fill="rgb(0, 0, 0)" stroke="rgb(204, 204, 204)" stroke-width="1px"></line></g></g><g transform="translate(41, 0)" clip-path="url(#clip_0)"><clipPath id="clip_0"><rect width="288" height="177"></rect></clipPath><g><g><g><line x1="0" y1="0" x2="0" y2="177" fill="rgb(0, 0, 0)" stroke="rgb(66, 66, 66)" stroke-width="1px" opacity="0.25"></line><line x1="20.630580357142858" y1="0" x2="20.630580357142858" y2="177" fill="rgb(0, 0, 0)" stroke="rgb(66, 66, 66)" stroke-width="1px" opacity="0.25"></line><line x1="41.261160714285715" y1="0" x2="41.261160714285715" y2="177" fill="rgb(0, 0, 0)" stroke="rgb(66, 66, 66)" stroke-width="1px" opacity="0.25"></line><line x1="61.89174107142857" y1="0" x2="61.89174107142857" y2="177" fill="rgb(0, 0, 0)" stroke="rgb(66, 66, 66)" stroke-width="1px" opacity="0.25"></line><line x1="82.52232142857143" y1="0" x2="82.52232142857143" y2="177" fill="rgb(0, 0, 0)" stroke="rgb(66, 66, 66)" stroke-width="1px" opacity="0.25"></line><line x1="103.15290178571429" y1="0" x2="103.15290178571429" y2="177" fill="rgb(0, 0, 0)" stroke="rgb(66, 66, 66)" stroke-width="1px" opacity="0.25"></line><line x1="123.78348214285714" y1="0" x2="123.78348214285714" y2="177" fill="rgb(0, 0, 0)" stroke="rgb(66, 66, 66)" stroke-width="1px" opacity="0.25"></line><line x1="144.4140625" y1="0" x2="144.4140625" y2="177" fill="rgb(0, 0, 0)" stroke="rgb(66, 66, 66)" stroke-width="1px" opacity="0.25"></line><line x1="165.04464285714286" y1="0" x2="165.04464285714286" y2="177" fill="rgb(0, 0, 0)" stroke="rgb(66, 66, 66)" stroke-width="1px" opacity="0.25"></line><line x1="185.67522321428572" y1="0" x2="185.67522321428572" y2="177" fill="rgb(0, 0, 0)" stroke="rgb(66, 66, 66)" stroke-width="1px" opacity="0.25"></line><line x1="206.30580357142858" y1="0" x2="206.30580357142858" y2="177" fill="rgb(0, 0, 0)" stroke="rgb(66, 66, 66)" stroke-width="1px" opacity="0.25"></line><line x1="226.93638392857142" y1="0" x2="226.93638392857142" y2="177" fill="rgb(0, 0, 0)" stroke="rgb(66, 66, 66)" stroke-width="1px" opacity="0.25"></line><line x1="247.56696428571428" y1="0" x2="247.56696428571428" y2="177" fill="rgb(0, 0, 0)" stroke="rgb(66, 66, 66)" stroke-width="1px" opacity="0.25"></line><line x1="268.19754464285717" y1="0" x2="268.19754464285717" y2="177" fill="rgb(0, 0, 0)" stroke="rgb(66, 66, 66)" stroke-width="1px" opacity="0.25"></line><line x1="288.828125" y1="0" x2="288.828125" y2="177" fill="rgb(0, 0, 0)" stroke="rgb(66, 66, 66)" stroke-width="1px" opacity="0.25"></line></g><g><line x1="0" y1="177" x2="288.828125" y2="177" fill="rgb(0, 0, 0)" stroke="rgb(66, 66, 66)" stroke-width="1px" opacity="0.25"></line><line x1="0" y1="157.33333333333331" x2="288.828125" y2="157.33333333333331" fill="rgb(0, 0, 0)" stroke="rgb(66, 66, 66)" stroke-width="1px" opacity="0.25"></line><line x1="0" y1="137.66666666666666" x2="288.828125" y2="137.66666666666666" fill="rgb(0, 0, 0)" stroke="rgb(66, 66, 66)" stroke-width="1px" opacity="0.25"></line><line x1="0" y1="118" x2="288.828125" y2="118" fill="rgb(0, 0, 0)" stroke="rgb(66, 66, 66)" stroke-width="1px" opacity="0.25"></line><line x1="0" y1="98.33333333333334" x2="288.828125" y2="98.33333333333334" fill="rgb(0, 0, 0)" stroke="rgb(66, 66, 66)" stroke-width="1px" opacity="0.25"></line><line x1="0" y1="78.66666666666666" x2="288.828125" y2="78.66666666666666" fill="rgb(0, 0, 0)" stroke="rgb(66, 66, 66)" stroke-width="1px" opacity="0.25"></line><line x1="0" y1="58.999999999999964" x2="288.828125" y2="58.999999999999964" fill="rgb(0, 0, 0)" stroke="rgb(66, 66, 66)" stroke-width="1px" opacity="0.25"></line><line x1="0" y1="39.33333333333333" x2="288.828125" y2="39.33333333333333" fill="rgb(0, 0, 0)" stroke="rgb(66, 66, 66)" stroke-width="1px" opacity="0.25"></line><line x1="0" y1="19.666666666666636" x2="288.828125" y2="19.666666666666636" fill="rgb(0, 0, 0)" stroke="rgb(66, 66, 66)" stroke-width="1px" opacity="0.25"></line><line x1="0" y1="0" x2="288.828125" y2="0" fill="rgb(0, 0, 0)" stroke="rgb(66, 66, 66)" stroke-width="1px" opacity="0.25"></line></g></g></g><g><g><line x1="0" y1="236.00000000000003" x2="288.828125" y2="236.00000000000003" fill="rgb(0, 0, 0)" stroke="rgb(153, 153, 153)" stroke-width="1.5px"></line></g></g><g><g><line x1="20.630580357142858" y1="0" x2="20.630580357142858" y2="177" fill="rgb(0, 0, 0)" stroke="rgb(153, 153, 153)" stroke-width="1.5px"></line></g></g><g><g><g><g><g><path stroke="rgb(255, 112, 67)" stroke-width="2px" d="M21.662109375,64.70886782805124L22.693638392857142,76.99914540847142L23.725167410714285,34.25573973915204L24.756696428571427,34.89833399478132L25.788225446428573,57.17315716333148L26.819754464285715,36.883908629940265L27.851283482142858,36.85776878832638L28.8828125,36.912980250718356L29.914341517857146,23.530680657458916L30.945870535714285,44.7096122303079L31.977399553571427,65.7311793340605L33.00892857142857,72.99277320530885L34.040457589285715,64.47439866288262L35.071986607142854,75.00472257697822L36.103515625,32.65603778329003L37.13504464285714,52.144453379468835L38.166573660714285,63.73085714914817L39.19810267857142,58.156869173421974L40.22963169642857,54.873329189774516L41.261160714285715,20.030330232121745L42.29268973214286,47.39503040972666L43.32421875,61.49556781757986L44.355747767857146,67.02542108301789L45.387276785714285,63.783190539678394L46.41880580357143,66.98926493936908L47.45033482142857,85.3176581549182L48.48186383928571,74.74316711284175L49.513392857142854,84.1572353182391L50.544921875,63.669497610506816L51.576450892857146,82.24373688533214L52.607979910714285,100.5260814493307L53.63950892857143,110.00818190930119L54.67103794642857,99.34417515907882L55.702566964285715,106.51137007295674L56.734095982142854,103.25682529389708L57.765625,109.19785485383257L58.797154017857146,101.31233653344098L59.82868303571429,92.05255281417854L60.86021205357143,97.7932102539244L61.89174107142857,112.53042811882176L62.923270089285715,78.40133707208962L63.954799107142854,84.17219685484635L64.986328125,89.2847361835877L66.01785714285714,95.50649601764222L67.04938616071429,86.58746836021263L68.08091517857143,79.80302584984143L69.11244419642857,91.26759145790464L70.14397321428571,98.42726618942277L71.17550223214286,108.05476618757893L72.20703125,119.32660860001843L73.23856026785714,116.39137879715811L74.27008928571428,125.28654865251458L75.30161830357143,114.92326940590206L76.33314732142857,116.40344200230237L77.36467633928571,85.28089818374305L78.39620535714285,90.26245332369984L79.427734375,102.88568067914403L80.45926339285714,108.84137029866153L81.49079241071429,131.3275274003749L82.52232142857143,121.76126679371974L83.55385044642858,107.35024562234348L84.58537946428572,104.42083526504831L85.61690848214286,85.09676452191329L86.6484375,102.96747418072825L87.67996651785714,108.63152541216418L88.71149553571429,125.75971743362871L89.74302455357143,136.47854025104283L90.77455357142857,127.27219024661366L91.80608258928571,101.70316002784084L92.83761160714286,119.55173873514677L93.869140625,115.06636663840658L94.90066964285714,122.25420285403594L95.93219866071428,109.80147055669543L96.96372767857142,119.05218829244724L97.99525669642857,119.0879582575779L99.02678571428571,116.80913092365783L100.05831473214286,125.94431590440428L101.08984375,124.68860007565749L102.12137276785715,126.85109353805501L103.15290178571429,137.61298867510706L104.18443080357143,136.90655054517757L105.21595982142857,134.79639557521443L106.24748883928572,142.10751512559793L107.27901785714286,130.69260988382024L108.310546875,122.56692181675149L109.34207589285714,121.17051709482179L110.37360491071428,106.60484949423336L111.40513392857143,120.61115362449563L112.43666294642857,122.26257261954194L113.46819196428571,120.32702136827973L114.49972098214285,83.74797689592917L115.53125,105.45655114457655L116.56277901785714,120.4122559647102L117.59430803571429,131.73555561822684L118.62583705357143,126.73152303450524L119.65736607142858,131.95753697407176L120.68889508928572,129.6639328073577L121.72042410714286,116.76858094957169L122.751953125,111.96346480623896L123.78348214285714,123.29039809888214L124.81501116071429,128.63832605949406L125.84654017857143,128.997315548289L126.87806919642857,122.42916223750204L127.90959821428571,137.52358373808278L128.94112723214286,146.07574630264887L129.97265625,149.4361499497361L131.00418526785714,144.835448738877L132.03571428571428,147.89144042150815L133.06724330357142,147.7170520644385L134.09877232142858,143.83475387221566L135.13030133928572,130.04071514681573L136.16183035714286,142.74463092213227L137.193359375,143.77452007288943L138.22488839285714,148.31877793086696L139.25641741071428,157.76826860038318L140.28794642857142,143.2155305476658L141.31947544642856,135.53541545460655L142.35100446428572,119.408822864632L143.38253348214286,125.97283052424997L144.4140625,125.95014725737022L145.44559151785714,133.20587062008528L146.47712053571428,142.8133164674084L147.50864955357142,137.78668681164825L148.54017857142856,144.06273478297538L149.57170758928572,136.70059175110745L150.60323660714286,146.24235670656097L151.634765625,147.31231453949292L152.66629464285714,140.71903952122182L153.69782366071428,162.84444416857033L154.72935267857142,147.76373252846562L155.76088169642856,143.7373927210436L156.7924107142857,147.90767693765952L157.82393973214283,139.84747947204903L158.85546875,137.96562507718082L159.88699776785714,144.108553602115L160.91852678571428,128.02909277706283L161.95005580357142,133.84220878379904L162.98158482142858,127.3598081117711L164.01311383928572,133.63828913246638L165.04464285714286,139.72256350442794L166.076171875,121.9424555615089L167.10770089285717,139.45677743249146L168.1392299107143,145.5533888134937L169.17075892857144,137.03375581464653L170.20228794642858,132.60528453724476L171.23381696428572,147.07618848008053L172.26534598214286,150.31015785250347L173.296875,139.49169907398988L174.32840401785714,147.20264627989908L175.35993303571428,157.25673678590923L176.39146205357144,141.60188102965L177.42299107142858,152.2764928832319L178.45452008928572,143.6627173877557L179.48604910714286,136.67165677886007L180.517578125,148.37820366108895L181.54910714285714,86.1505416577129L182.58063616071428,114.96817234824509L183.61216517857142,131.53340626361216L184.64369419642856,137.16567122500487L185.67522321428572,131.72113705214667L186.70675223214286,139.8185041698027L187.73828125,144.6112306248471L188.76981026785714,146.7290865420098L189.80133928571428,140.2533197465814L190.83286830357142,146.9253793436255L191.86439732142856,141.90337595212256L192.8959263392857,146.75545923432387L193.92745535714283,149.48912654233382L194.958984375,158.99792729563956L195.99051339285714,164.17077157545555L197.02204241071428,41.30753515749252L198.05357142857142,73.46363232089526L199.08510044642858,103.59054801595279L200.11662946428572,122.66866585651279L201.14815848214286,133.1155374747867L202.1796875,133.38412778590248L203.21121651785717,133.3360117336956L204.2427455357143,146.69882675374632L205.27427455357144,139.930652723899L206.30580357142858,135.86430918347273L207.33733258928572,138.88983417652904L208.36886160714286,143.04814028602556L209.400390625,131.7551242025398L210.43191964285714,146.46540755699294L211.46344866071428,155.53845277629424L212.49497767857144,151.1814617427317L213.52650669642858,152.34703761610157L214.55803571428572,152.43783207499644L215.58956473214286,160.60781949220296L216.62109375,158.08583405092278L217.65262276785714,153.2781733104085L218.68415178571428,143.59559977621802L219.71568080357142,164.20309536797387L220.74720982142856,161.95919277554302L221.77873883928572,151.66778286070954L222.81026785714286,150.1861681765596L223.841796875,143.92451854306137L224.87332589285714,148.35650751446292L225.90485491071428,153.48169589114946L226.93638392857142,154.94132622921126L227.96791294642856,144.5312745303531L228.9994419642857,155.0755029120417L230.03097098214283,157.5407927988989L231.0625,164.08374993954237L232.09402901785714,161.38872186116853L233.12555803571428,158.68631170455106L234.15708705357142,150.6850656088004L235.18861607142858,158.86067167614755L236.22014508928572,159.49312162217413L237.25167410714286,161.53458111971764L238.283203125,137.78555228803643L239.31473214285717,134.93554642892335L240.3462611607143,141.09382443684214L241.37779017857144,137.78496915335182L242.40931919642858,146.025923718421L243.44084821428572,147.2076200660517L244.47237723214286,158.32802098690172L245.50390625,159.63262362697938L246.53543526785714,160.98863824657136L247.56696428571428,153.83051197797974L248.59849330357144,153.9942092005665L249.63002232142858,135.19351645534763L250.66155133928572,133.78839040731705L251.69308035714286,147.47851182382496L252.724609375,138.5236263674171L253.75613839285714,141.51795749674267L254.78766741071428,148.03698990033087L255.81919642857142,156.68802788229397L256.85072544642856,154.98174250744748L257.8822544642857,160.85523580286682L258.9137834821429,159.936229817711L259.9453125,128.44284685808975L260.97684151785717,140.75989919717247L262.0083705357143,134.36135249425055L263.03989955357144,146.16314336313258L264.07142857142856,147.81150509111157L265.1029575892857,158.31847778871895L266.13448660714283,158.12951900113768L267.166015625,164.0584696226268L268.19754464285717,155.46134471652599" style="fill: none;" fill="none"></path></g><g><path stroke="rgb(0, 119, 187)" stroke-width="2px" d="M20.630580357142858,10.055685599644963L41.261160714285715,26.886165201663957L61.89174107142857,49.286969167034606L82.52232142857143,68.61465629307077L103.15290178571429,83.90495081395152L123.78348214285714,95.96251191131603L144.4140625,105.56975102190196L165.04464285714286,112.89480928698246L185.67522321428572,118.82054844728262L226.93638392857142,124.59295422182308L268.19754464285717,129.664602041363" style="fill: none;" fill="none"></path></g></g></g></g><g opacity="0.2"><g><g><g><path stroke="rgb(255, 112, 67)" stroke-width="2px" d="M21.662109375,64.70886782805124L22.693638392857142,84.37331195672351L23.725167410714285,-6.777929703394568L24.756696428571427,35.65402483940123L25.788225446428573,86.25516629219054L26.819754464285715,8.816573778788245L27.851283482142858,36.820388396581L28.8828125,36.993479092915855L29.914341517857146,3.7943881352742426L30.945870535714285,76.15785733858743L31.977399553571427,97.07286592324573L33.00892857142857,83.84564673900603L34.040457589285715,51.72465082009633L35.071986607142854,90.7795784473419L36.103515625,-30.817210117975865L37.13504464285714,81.36333203315733L38.166573660714285,81.10555982589722L39.19810267857142,49.7973024447759L40.22963169642857,49.94851942857105L41.261160714285715,-32.23098341623943L42.29268973214286,88.44057993094124L43.32421875,82.64590994517008L44.355747767857146,75.3200918038686L45.387276785714285,58.9198831319809L46.41880580357143,71.79835375150044L47.45033482142857,112.81016981601715L48.48186383928571,58.881457606951386L49.513392857142854,98.27832317352294L50.544921875,32.93790992101033L51.576450892857146,110.10508553187051L52.607979910714285,127.94959223270416L53.63950892857143,124.23133071263631L54.67103794642857,83.34816630681354L55.702566964285715,117.26216193040213L56.734095982142854,98.37500826517739L57.765625,118.10939904054004L58.797154017857146,89.48405917485553L59.82868303571429,78.16287732124329L60.86021205357143,106.40419638156891L61.89174107142857,134.63625486691794L62.923270089285715,27.207700570424382L63.954799107142854,92.82848652203876L64.986328125,96.95354517300922L66.01785714285714,104.83913576602936L67.04938616071429,73.208926876386L68.08091517857143,69.62636208534241L69.11244419642857,108.464439868927L70.14397321428571,109.1667782862981L71.17550223214286,122.49601618448892L72.20703125,136.23437221844992L73.23856026785714,111.98853409290314L74.27008928571428,138.62930343548456L75.30161830357143,99.37835053602853L76.33314732142857,118.6237008968989L77.36467633928571,38.597082455952965L78.39620535714285,97.73478603363036L79.427734375,121.82052171230316L80.45926339285714,117.77490472793579L81.49079241071429,165.05676305294037L82.52232142857143,107.41187588373819L83.55385044642858,85.73371386528014L84.58537946428572,100.02671972910561L85.61690848214286,56.1106584072113L86.6484375,129.7735386689504L87.67996651785714,117.12760225931802L88.71149553571429,151.4520054658254L89.74302455357143,152.55677447716394L90.77455357142857,113.46266523996988L91.80608258928571,63.349614699681595L92.83761160714286,146.32460679610568L93.869140625,108.3383084932963L94.90066964285714,133.03595717748004L95.93219866071428,91.1223721106847L96.96372767857142,132.92826489607492L97.99525669642857,119.14161320527393L99.02678571428571,113.3908899227778L100.05831473214286,139.6470933755239L101.08984375,122.80502633253732L102.12137276785715,130.0948337316513L103.15290178571429,153.75583138068515L104.18443080357143,135.8468933502833L105.21595982142857,131.63116312026978L106.24748883928572,153.07419445117313L107.27901785714286,113.57025202115375L108.310546875,110.37838971614838L109.34207589285714,119.07591001192728L110.37360491071428,84.75634809335072L111.40513392857143,141.62060981988907L112.43666294642857,124.73970111211142L113.46819196428571,117.42369449138641L114.49972098214285,28.87941018740335L115.53125,138.0194125175476L116.56277901785714,142.84581319491068L117.59430803571429,148.72050509850183L118.62583705357143,119.22547415892282L119.65736607142858,139.79655788342157L120.68889508928572,126.22352655728656L121.72042410714286,97.42555316289264L122.751953125,104.75579059123993L123.78348214285714,140.2807980378469L124.81501116071429,136.660218000412L125.84654017857143,129.53579978148142L126.87806919642857,112.57693227132161L127.90959821428571,160.16521598895392L128.94112723214286,158.903990149498L129.97265625,154.4767554203669L131.00418526785714,137.93439692258835L132.03571428571428,152.4754279454549L133.06724330357142,147.45546952883402L134.09877232142858,138.01130658388138L135.13030133928572,109.34965705871582L136.16183035714286,161.80050458510718L137.193359375,145.3193537990252L138.22488839285714,155.1351647178332L139.25641741071428,171.9425046046575L140.28794642857142,121.38642346858978L141.31947544642856,124.0152428150177L142.35100446428572,95.2189339796702L143.38253348214286,135.81884201367694L144.4140625,125.91612235705057L145.44559151785714,144.08945566415787L146.47712053571428,157.22448523839316L147.50864955357142,130.246742328008L148.54017857142856,153.47680673996607L149.57170758928572,125.65737720330556L150.60323660714286,160.55500413974124L151.634765625,148.91725128889084L152.66629464285714,130.8291269938151L153.69782366071428,196.03255113959312L154.72935267857142,125.1426650683085L155.76088169642856,137.69788300991058L156.7924107142857,154.1631032625834L157.82393973214283,127.75718327363332L158.85546875,135.14284348487854L159.88699776785714,153.3229463895162L160.91852678571428,103.90990153948465L161.95005580357142,142.56188279390335L162.98158482142858,117.63620710372925L164.01311383928572,143.05601066350937L165.04464285714286,148.8489750623703L166.076171875,95.27229364713031L167.10770089285717,165.72826023896533L168.1392299107143,154.69830588499704L169.17075892857144,124.25430631637573L170.20228794642858,125.96257762114205L171.23381696428572,168.78254439433414L172.26534598214286,155.1611119111379L173.296875,123.26401090621948L174.32840401785714,158.7690670887629L175.35993303571428,172.3378725449244L176.39146205357144,118.11959739526112L177.42299107142858,168.28841066360474L178.45452008928572,130.7420541445414L179.48604910714286,126.18506586551666L180.517578125,165.93802398443222L181.54910714285714,-7.190951347351101L182.58063616071428,158.19461838404337L183.61216517857142,156.38125713666278L184.64369419642856,145.6140686670939L185.67522321428572,123.55433579285939L186.70675223214286,151.96455484628677L187.73828125,151.80032030741373L188.76981026785714,149.90587041775385L189.80133928571428,130.5396695534388L190.83286830357142,156.93346873919168L191.86439732142856,134.37037086486816L192.8959263392857,154.03358415762582L193.92745535714283,153.58962750434875L194.958984375,173.26112842559814L195.99051339285714,171.93003799517948L197.02204241071428,-142.98731946945193L198.05357142857142,121.69777806599933L199.08510044642858,148.78092155853906L200.11662946428572,151.2858426173528L201.14815848214286,148.7858449021975L202.1796875,133.78701325257617L203.21121651785717,133.26383765538532L204.2427455357143,166.7430492838224L205.27427455357144,129.77839167912802L206.30580357142858,129.76479387283325L207.33733258928572,143.42812166611353L208.36886160714286,149.28559945027033L209.400390625,114.81560007731119L210.43191964285714,168.53083258867264L211.46344866071428,169.14802060524622L212.49497767857144,144.6459751923879L213.52650669642858,154.09540142615637L214.55803571428572,152.57402376333872L215.58956473214286,172.86280061801276L216.62109375,154.30285588900247L217.65262276785714,146.06668219963709L218.68415178571428,129.07173947493234L219.71568080357142,195.1143387556076L220.74720982142856,158.59333888689676L221.77873883928572,136.23066798845926L222.81026785714286,147.96374615033469L223.841796875,134.53204409281412L224.87332589285714,155.00449097156525L225.90485491071428,161.1694784561793L226.93638392857142,157.13077173630396L227.96791294642856,128.91619698206583L228.9994419642857,170.89184548457465L230.03097098214283,161.23872762918472L231.0625,173.8981856505076L232.09402901785714,157.34617974360785L233.12555803571428,154.63269646962482L234.15708705357142,138.68319646517435L235.18861607142858,171.12408077716827L236.22014508928572,160.441796541214L237.25167410714286,164.5967703660329L238.283203125,102.16200904051462L239.31473214285717,130.6605376402537L240.3462611607143,150.33124144872028L241.37779017857144,132.82168622811633L242.40931919642858,158.38735556602478L243.44084821428572,148.9801645874977L244.47237723214286,175.0086223681768L245.50390625,161.5895275870959L246.53543526785714,163.02266017595926L247.56696428571428,143.09332257509232L248.59849330357144,154.23975503444672L249.63002232142858,106.9924773375193L250.66155133928572,131.68070133527118L251.69308035714286,168.0136939485868L252.724609375,125.09129818280536L253.75613839285714,146.00945419073105L254.78766741071428,157.81553850571314L255.81919642857142,169.6645848552386L256.85072544642856,152.4223144451777L257.8822544642857,169.66547574599582L258.9137834821429,158.55772083997726L259.9453125,81.20277241865793L260.97684151785717,159.23547770579657L262.0083705357143,124.76353243986765L263.03989955357144,163.8658296664556L264.07142857142856,150.28404768308005L265.1029575892857,174.07893683513007L266.13448660714283,157.84608081976572L267.166015625,172.95189555486044L268.19754464285717,142.56565735737482" style="fill: none;" fill="none"></path></g><g><path stroke="rgb(0, 119, 187)" stroke-width="2px" d="M20.630580357142858,10.055685599644963L41.261160714285715,36.984452962875366L61.89174107142857,70.7917409737905L82.52232142857143,91.34401635328928L103.15290178571429,103.86795934041342L123.78348214285714,112.64245963096619L144.4140625,119.30825666586556L165.04464285714286,123.57481455802917L185.67522321428572,127.55986269315083L226.93638392857142,133.16430405775705L268.19754464285717,137.22607429822287" style="fill: none;" fill="none"></path></g></g></g></g></g></g><g transform="translate(41, 177)" clip-path="url(#clip_1)"><clipPath id="clip_1"><rect width="288" height="23"></rect></clipPath><g><g><line x1="0" y1="0" x2="0" y2="5" style="visibility: inherit;" fill="rgb(0, 0, 0)" stroke="rgb(204, 204, 204)" stroke-width="1px"></line><line x1="20.630580357142858" y1="0" x2="20.630580357142858" y2="5" style="visibility: inherit;" fill="rgb(0, 0, 0)" stroke="rgb(204, 204, 204)" stroke-width="1px"></line><line x1="41.261160714285715" y1="0" x2="41.261160714285715" y2="5" style="visibility: inherit;" fill="rgb(0, 0, 0)" stroke="rgb(204, 204, 204)" stroke-width="1px"></line><line x1="61.89174107142857" y1="0" x2="61.89174107142857" y2="5" style="visibility: inherit;" fill="rgb(0, 0, 0)" stroke="rgb(204, 204, 204)" stroke-width="1px"></line><line x1="82.52232142857143" y1="0" x2="82.52232142857143" y2="5" style="visibility: inherit;" fill="rgb(0, 0, 0)" stroke="rgb(204, 204, 204)" stroke-width="1px"></line><line x1="103.15290178571429" y1="0" x2="103.15290178571429" y2="5" style="visibility: inherit;" fill="rgb(0, 0, 0)" stroke="rgb(204, 204, 204)" stroke-width="1px"></line><line x1="123.78348214285714" y1="0" x2="123.78348214285714" y2="5" style="visibility: inherit;" fill="rgb(0, 0, 0)" stroke="rgb(204, 204, 204)" stroke-width="1px"></line><line x1="144.4140625" y1="0" x2="144.4140625" y2="5" style="visibility: inherit;" fill="rgb(0, 0, 0)" stroke="rgb(204, 204, 204)" stroke-width="1px"></line><line x1="165.04464285714286" y1="0" x2="165.04464285714286" y2="5" style="visibility: inherit;" fill="rgb(0, 0, 0)" stroke="rgb(204, 204, 204)" stroke-width="1px"></line><line x1="185.67522321428572" y1="0" x2="185.67522321428572" y2="5" style="visibility: inherit;" fill="rgb(0, 0, 0)" stroke="rgb(204, 204, 204)" stroke-width="1px"></line><line x1="206.30580357142858" y1="0" x2="206.30580357142858" y2="5" style="visibility: inherit;" fill="rgb(0, 0, 0)" stroke="rgb(204, 204, 204)" stroke-width="1px"></line><line x1="226.93638392857142" y1="0" x2="226.93638392857142" y2="5" style="visibility: inherit;" fill="rgb(0, 0, 0)" stroke="rgb(204, 204, 204)" stroke-width="1px"></line><line x1="247.56696428571428" y1="0" x2="247.56696428571428" y2="5" style="visibility: inherit;" fill="rgb(0, 0, 0)" stroke="rgb(204, 204, 204)" stroke-width="1px"></line><line x1="268.19754464285717" y1="0" x2="268.19754464285717" y2="5" style="visibility: inherit;" fill="rgb(0, 0, 0)" stroke="rgb(204, 204, 204)" stroke-width="1px"></line><line x1="288.828125" y1="0" x2="288.828125" y2="5" style="visibility: inherit;" fill="rgb(0, 0, 0)" stroke="rgb(204, 204, 204)" stroke-width="1px"></line></g><g transform="translate(0, 8)"><text x="0" y="0" dx="0em" dy="0.95em" style="text-anchor: middle; visibility: hidden; font-family: Roboto, sans-serif; font-size: 12px; font-weight: 200;" fill="rgb(33, 33, 33)" stroke="none" stroke-width="1px">-2k</text><text x="20.630580357142858" y="0" dx="0em" dy="0.95em" style="text-anchor: middle; visibility: inherit; font-family: Roboto, sans-serif; font-size: 12px; font-weight: 200;" fill="rgb(33, 33, 33)" stroke="none" stroke-width="1px">0</text><text x="41.261160714285715" y="0" dx="0em" dy="0.95em" style="text-anchor: middle; visibility: hidden; font-family: Roboto, sans-serif; font-size: 12px; font-weight: 200;" fill="rgb(33, 33, 33)" stroke="none" stroke-width="1px">2k</text><text x="61.89174107142857" y="0" dx="0em" dy="0.95em" style="text-anchor: middle; visibility: inherit; font-family: Roboto, sans-serif; font-size: 12px; font-weight: 200;" fill="rgb(33, 33, 33)" stroke="none" stroke-width="1px">4k</text><text x="82.52232142857143" y="0" dx="0em" dy="0.95em" style="text-anchor: middle; visibility: hidden; font-family: Roboto, sans-serif; font-size: 12px; font-weight: 200;" fill="rgb(33, 33, 33)" stroke="none" stroke-width="1px">6k</text><text x="103.15290178571429" y="0" dx="0em" dy="0.95em" style="text-anchor: middle; visibility: inherit; font-family: Roboto, sans-serif; font-size: 12px; font-weight: 200;" fill="rgb(33, 33, 33)" stroke="none" stroke-width="1px">8k</text><text x="123.78348214285714" y="0" dx="0em" dy="0.95em" style="text-anchor: middle; visibility: hidden; font-family: Roboto, sans-serif; font-size: 12px; font-weight: 200;" fill="rgb(33, 33, 33)" stroke="none" stroke-width="1px">10k</text><text x="144.4140625" y="0" dx="0em" dy="0.95em" style="text-anchor: middle; visibility: inherit; font-family: Roboto, sans-serif; font-size: 12px; font-weight: 200;" fill="rgb(33, 33, 33)" stroke="none" stroke-width="1px">12k</text><text x="165.04464285714286" y="0" dx="0em" dy="0.95em" style="text-anchor: middle; visibility: hidden; font-family: Roboto, sans-serif; font-size: 12px; font-weight: 200;" fill="rgb(33, 33, 33)" stroke="none" stroke-width="1px">14k</text><text x="185.67522321428572" y="0" dx="0em" dy="0.95em" style="text-anchor: middle; visibility: inherit; font-family: Roboto, sans-serif; font-size: 12px; font-weight: 200;" fill="rgb(33, 33, 33)" stroke="none" stroke-width="1px">16k</text><text x="206.30580357142858" y="0" dx="0em" dy="0.95em" style="text-anchor: middle; visibility: hidden; font-family: Roboto, sans-serif; font-size: 12px; font-weight: 200;" fill="rgb(33, 33, 33)" stroke="none" stroke-width="1px">18k</text><text x="226.93638392857142" y="0" dx="0em" dy="0.95em" style="text-anchor: middle; visibility: inherit; font-family: Roboto, sans-serif; font-size: 12px; font-weight: 200;" fill="rgb(33, 33, 33)" stroke="none" stroke-width="1px">20k</text><text x="247.56696428571428" y="0" dx="0em" dy="0.95em" style="text-anchor: middle; visibility: hidden; font-family: Roboto, sans-serif; font-size: 12px; font-weight: 200;" fill="rgb(33, 33, 33)" stroke="none" stroke-width="1px">22k</text><text x="268.19754464285717" y="0" dx="0em" dy="0.95em" style="text-anchor: middle; visibility: inherit; font-family: Roboto, sans-serif; font-size: 12px; font-weight: 200;" fill="rgb(33, 33, 33)" stroke="none" stroke-width="1px">24k</text><text x="288.828125" y="0" dx="0em" dy="0.95em" style="text-anchor: middle; visibility: hidden; font-family: Roboto, sans-serif; font-size: 12px; font-weight: 200;" fill="rgb(33, 33, 33)" stroke="none" stroke-width="1px">26k</text></g><line x1="0" y1="0" x2="288.828125" y2="0" fill="rgb(0, 0, 0)" stroke="rgb(204, 204, 204)" stroke-width="1px"></line></g></g></g></g></svg>