<svg viewBox="0 0 330 200" xmlns="http://www.w3.org/2000/svg"><g><g><g><g><g><line x1="61.953125" y1="177" x2="56.953125" y2="177" style="visibility: inherit;" fill="rgb(0, 0, 0)" stroke="rgb(204, 204, 204)" stroke-width="1px"></line><line x1="61.953125" y1="162.24999999999997" x2="56.953125" y2="162.24999999999997" style="visibility: inherit;" fill="rgb(0, 0, 0)" stroke="rgb(204, 204, 204)" stroke-width="1px"></line><line x1="61.953125" y1="147.49999999999997" x2="56.953125" y2="147.49999999999997" style="visibility: inherit;" fill="rgb(0, 0, 0)" stroke="rgb(204, 204, 204)" stroke-width="1px"></line><line x1="61.953125" y1="132.74999999999997" x2="56.953125" y2="132.74999999999997" style="visibility: inherit;" fill="rgb(0, 0, 0)" stroke="rgb(204, 204, 204)" stroke-width="1px"></line><line x1="61.953125" y1="117.99999999999993" x2="56.953125" y2="117.99999999999993" style="visibility: inherit;" fill="rgb(0, 0, 0)" stroke="rgb(204, 204, 204)" stroke-width="1px"></line><line x1="61.953125" y1="103.24999999999991" x2="56.953125" y2="103.24999999999991" style="visibility: inherit;" fill="rgb(0, 0, 0)" stroke="rgb(204, 204, 204)" stroke-width="1px"></line><line x1="61.953125" y1="88.4999999999999" x2="56.953125" y2="88.4999999999999" style="visibility: inherit;" fill="rgb(0, 0, 0)" stroke="rgb(204, 204, 204)" stroke-width="1px"></line><line x1="61.953125" y1="73.75000000000009" x2="56.953125" y2="73.75000000000009" style="visibility: inherit;" fill="rgb(0, 0, 0)" stroke="rgb(204, 204, 204)" stroke-width="1px"></line><line x1="61.953125" y1="59.000000000000064" x2="56.953125" y2="59.000000000000064" style="visibility: inherit;" fill="rgb(0, 0, 0)" stroke="rgb(204, 204, 204)" stroke-width="1px"></line><line x1="61.953125" y1="44.25000000000006" x2="56.953125" y2="44.25000000000006" style="visibility: inherit;" fill="rgb(0, 0, 0)" stroke="rgb(204, 204, 204)" stroke-width="1px"></line><line x1="61.953125" y1="29.500000000000032" x2="56.953125" y2="29.500000000000032" style="visibility: inherit;" fill="rgb(0, 0, 0)" stroke="rgb(204, 204, 204)" stroke-width="1px"></line><line x1="61.953125" y1="14.750000000000027" x2="56.953125" y2="14.750000000000027" style="visibility: inherit;" fill="rgb(0, 0, 0)" stroke="rgb(204, 204, 204)" stroke-width="1px"></line><line x1="61.953125" y1="0" x2="56.953125" y2="0" style="visibility: inherit;" fill="rgb(0, 0, 0)" stroke="rgb(204, 204, 204)" stroke-width="1px"></line></g><g transform="translate(51.953125, 0)"><text x="0" y="177" dx="0em" dy="0.3em" style="text-anchor: end; visibility: hidden; font-family: Roboto, sans-serif; font-size: 12px; font-weight: 200;" fill="rgb(33, 33, 33)" stroke="none" stroke-width="1px">0.222</text><text x="0" y="162.24999999999997" dx="0em" dy="0.3em" style="text-anchor: end; visibility: inherit; font-family: Roboto, sans-serif; font-size: 12px; font-weight: 200;" fill="rgb(33, 33, 33)" stroke="none" stroke-width="1px">0.224</text><text x="0" y="147.49999999999997" dx="0em" dy="0.3em" style="text-anchor: end; visibility: hidden; font-family: Roboto, sans-serif; font-size: 12px; font-weight: 200;" fill="rgb(33, 33, 33)" stroke="none" stroke-width="1px">0.226</text><text x="0" y="132.74999999999997" dx="0em" dy="0.3em" style="text-anchor: end; visibility: inherit; font-family: Roboto, sans-serif; font-size: 12px; font-weight: 200;" fill="rgb(33, 33, 33)" stroke="none" stroke-width="1px">0.228</text><text x="0" y="117.99999999999993" dx="0em" dy="0.3em" style="text-anchor: end; visibility: hidden; font-family: Roboto, sans-serif; font-size: 12px; font-weight: 200;" fill="rgb(33, 33, 33)" stroke="none" stroke-width="1px">0.23</text><text x="0" y="103.24999999999991" dx="0em" dy="0.3em" style="text-anchor: end; visibility: inherit; font-family: Roboto, sans-serif; font-size: 12px; font-weight: 200;" fill="rgb(33, 33, 33)" stroke="none" stroke-width="1px">0.232</text><text x="0" y="88.4999999999999" dx="0em" dy="0.3em" style="text-anchor: end; visibility: hidden; font-family: Roboto, sans-serif; font-size: 12px; font-weight: 200;" fill="rgb(33, 33, 33)" stroke="none" stroke-width="1px">0.234</text><text x="0" y="73.75000000000009" dx="0em" dy="0.3em" style="text-anchor: end; visibility: inherit; font-family: Roboto, sans-serif; font-size: 12px; font-weight: 200;" fill="rgb(33, 33, 33)" stroke="none" stroke-width="1px">0.236</text><text x="0" y="59.000000000000064" dx="0em" dy="0.3em" style="text-anchor: end; visibility: hidden; font-family: Roboto, sans-serif; font-size: 12px; font-weight: 200;" fill="rgb(33, 33, 33)" stroke="none" stroke-width="1px">0.238</text><text x="0" y="44.25000000000006" dx="0em" dy="0.3em" style="text-anchor: end; visibility: inherit; font-family: Roboto, sans-serif; font-size: 12px; font-weight: 200;" fill="rgb(33, 33, 33)" stroke="none" stroke-width="1px">0.24</text><text x="0" y="29.500000000000032" dx="0em" dy="0.3em" style="text-anchor: end; visibility: hidden; font-family: Roboto, sans-serif; font-size: 12px; font-weight: 200;" fill="rgb(33, 33, 33)" stroke="none" stroke-width="1px">0.242</text><text x="0" y="14.750000000000027" dx="0em" dy="0.3em" style="text-anchor: end; visibility: inherit; font-family: Roboto, sans-serif; font-size: 12px; font-weight: 200;" fill="rgb(33, 33, 33)" stroke="none" stroke-width="1px">0.244</text><text x="0" y="0" dx="0em" dy="0.3em" style="text-anchor: end; visibility: hidden; font-family: Roboto, sans-serif; font-size: 12px; font-weight: 200;" fill="rgb(33, 33, 33)" stroke="none" stroke-width="1px">0.246</text></g><line x1="61.953125" y1="0" x2="61.953125" y2="177" fill="rgb(0, 0, 0)" stroke="rgb(204, 204, 204)" stroke-width="1px"></line></g></g><g transform="translate(61, 0)" clip-path="url(#clip_0)"><clipPath id="clip_0"><rect width="268" height="177"></rect></clipPath><g><g><g><line x1="0" y1="0" x2="0" y2="177" fill="rgb(0, 0, 0)" stroke="rgb(66, 66, 66)" stroke-width="1px" opacity="0.25"></line><line x1="19.146205357142858" y1="0" x2="19.146205357142858" y2="177" fill="rgb(0, 0, 0)" stroke="rgb(66, 66, 66)" stroke-width="1px" opacity="0.25"></line><line x1="38.292410714285715" y1="0" x2="38.292410714285715" y2="177" fill="rgb(0, 0, 0)" stroke="rgb(66, 66, 66)" stroke-width="1px" opacity="0.25"></line><line x1="57.43861607142857" y1="0" x2="57.43861607142857" y2="177" fill="rgb(0, 0, 0)" stroke="rgb(66, 66, 66)" stroke-width="1px" opacity="0.25"></line><line x1="76.58482142857143" y1="0" x2="76.58482142857143" y2="177" fill="rgb(0, 0, 0)" stroke="rgb(66, 66, 66)" stroke-width="1px" opacity="0.25"></line><line x1="95.73102678571429" y1="0" x2="95.73102678571429" y2="177" fill="rgb(0, 0, 0)" stroke="rgb(66, 66, 66)" stroke-width="1px" opacity="0.25"></line><line x1="114.87723214285714" y1="0" x2="114.87723214285714" y2="177" fill="rgb(0, 0, 0)" stroke="rgb(66, 66, 66)" stroke-width="1px" opacity="0.25"></line><line x1="134.0234375" y1="0" x2="134.0234375" y2="177" fill="rgb(0, 0, 0)" stroke="rgb(66, 66, 66)" stroke-width="1px" opacity="0.25"></line><line x1="153.16964285714286" y1="0" x2="153.16964285714286" y2="177" fill="rgb(0, 0, 0)" stroke="rgb(66, 66, 66)" stroke-width="1px" opacity="0.25"></line><line x1="172.31584821428572" y1="0" x2="172.31584821428572" y2="177" fill="rgb(0, 0, 0)" stroke="rgb(66, 66, 66)" stroke-width="1px" opacity="0.25"></line><line x1="191.46205357142858" y1="0" x2="191.46205357142858" y2="177" fill="rgb(0, 0, 0)" stroke="rgb(66, 66, 66)" stroke-width="1px" opacity="0.25"></line><line x1="210.60825892857142" y1="0" x2="210.60825892857142" y2="177" fill="rgb(0, 0, 0)" stroke="rgb(66, 66, 66)" stroke-width="1px" opacity="0.25"></line><line x1="229.75446428571428" y1="0" x2="229.75446428571428" y2="177" fill="rgb(0, 0, 0)" stroke="rgb(66, 66, 66)" stroke-width="1px" opacity="0.25"></line><line x1="248.90066964285714" y1="0" x2="248.90066964285714" y2="177" fill="rgb(0, 0, 0)" stroke="rgb(66, 66, 66)" stroke-width="1px" opacity="0.25"></line><line x1="268.046875" y1="0" x2="268.046875" y2="177" fill="rgb(0, 0, 0)" stroke="rgb(66, 66, 66)" stroke-width="1px" opacity="0.25"></line></g><g><line x1="0" y1="177" x2="268.046875" y2="177" fill="rgb(0, 0, 0)" stroke="rgb(66, 66, 66)" stroke-width="1px" opacity="0.25"></line><line x1="0" y1="162.24999999999997" x2="268.046875" y2="162.24999999999997" fill="rgb(0, 0, 0)" stroke="rgb(66, 66, 66)" stroke-width="1px" opacity="0.25"></line><line x1="0" y1="147.49999999999997" x2="268.046875" y2="147.49999999999997" fill="rgb(0, 0, 0)" stroke="rgb(66, 66, 66)" stroke-width="1px" opacity="0.25"></line><line x1="0" y1="132.74999999999997" x2="268.046875" y2="132.74999999999997" fill="rgb(0, 0, 0)" stroke="rgb(66, 66, 66)" stroke-width="1px" opacity="0.25"></line><line x1="0" y1="117.99999999999993" x2="268.046875" y2="117.99999999999993" fill="rgb(0, 0, 0)" stroke="rgb(66, 66, 66)" stroke-width="1px" opacity="0.25"></line><line x1="0" y1="103.24999999999991" x2="268.046875" y2="103.24999999999991" fill="rgb(0, 0, 0)" stroke="rgb(66, 66, 66)" stroke-width="1px" opacity="0.25"></line><line x1="0" y1="88.4999999999999" x2="268.046875" y2="88.4999999999999" fill="rgb(0, 0, 0)" stroke="rgb(66, 66, 66)" stroke-width="1px" opacity="0.25"></line><line x1="0" y1="73.75000000000009" x2="268.046875" y2="73.75000000000009" fill="rgb(0, 0, 0)" stroke="rgb(66, 66, 66)" stroke-width="1px" opacity="0.25"></line><line x1="0" y1="59.000000000000064" x2="268.046875" y2="59.000000000000064" fill="rgb(0, 0, 0)" stroke="rgb(66, 66, 66)" stroke-width="1px" opacity="0.25"></line><line x1="0" y1="44.25000000000006" x2="268.046875" y2="44.25000000000006" fill="rgb(0, 0, 0)" stroke="rgb(66, 66, 66)" stroke-width="1px" opacity="0.25"></line><line x1="0" y1="29.500000000000032" x2="268.046875" y2="29.500000000000032" fill="rgb(0, 0, 0)" stroke="rgb(66, 66, 66)" stroke-width="1px" opacity="0.25"></line><line x1="0" y1="14.750000000000027" x2="268.046875" y2="14.750000000000027" fill="rgb(0, 0, 0)" stroke="rgb(66, 66, 66)" stroke-width="1px" opacity="0.25"></line><line x1="0" y1="0" x2="268.046875" y2="0" fill="rgb(0, 0, 0)" stroke="rgb(66, 66, 66)" stroke-width="1px" opacity="0.25"></line></g></g></g><g><g><line x1="0" y1="1814.2500000000002" x2="268.046875" y2="1814.2500000000002" fill="rgb(0, 0, 0)" stroke="rgb(153, 153, 153)" stroke-width="1.5px"></line></g></g><g><g><line x1="19.146205357142858" y1="0" x2="19.146205357142858" y2="177" fill="rgb(0, 0, 0)" stroke="rgb(153, 153, 153)" stroke-width="1.5px"></line></g></g><g><g><g><g><g><path stroke="rgb(255, 112, 67)" stroke-width="2px" d="M20.103515625,13.587828904390308L21.060825892857142,13.820739874616036L22.018136160714285,14.100617394763495L22.975446428571427,14.462066232993713L23.932756696428573,14.874503992823602L24.890066964285715,15.291561392336797L25.847377232142858,15.699434751471479L26.8046875,15.91276229068731L27.761997767857146,16.266333554221987L28.719308035714285,16.657463729449834L29.676618303571427,17.13490677140013L30.63392857142857,17.680622646781917L31.591238839285715,18.28877268470161L32.548549107142854,18.94240728439362L33.505859375,19.59470432513309L34.46316964285714,20.25177781608674L35.420479910714285,20.93005465676402L36.37779017857142,21.62099151037339L37.33510044642857,22.244719605559382L38.292410714285715,22.898605865479663L39.24972098214286,23.503817645617666L40.20703125,24.150339916174698L41.164341517857146,24.790659105013834L42.121651785714285,25.47002960801877L43.07896205357143,26.112520384888086L44.03627232142857,26.79798648943091L44.99358258928571,27.550075425703174L45.950892857142854,28.331544190126575L46.908203125,29.0474276256643L47.865513392857146,29.818162892505153L48.822823660714285,30.618248654780196L49.78013392857143,31.40060216059729L50.73744419642857,32.199482639256836L51.694754464285715,32.99544345014352L52.652064732142854,33.68441599404913L53.609375,34.4501702554297L54.566685267857146,35.21249636092309L55.52399553571429,35.974831620177255L56.48130580357143,36.77528432745485L57.43861607142857,37.59970646455049L58.395926339285715,38.45574196260792L59.353236607142854,39.22981693234499L60.310546875,39.97783771707232L61.26785714285714,40.76302005992197L62.225167410714285,41.51199067329712L63.18247767857143,42.325172970914025L64.13978794642857,42.92768196479134L65.09709821428571,43.61017178427108L66.05440848214286,44.338584053114296L67.01171875,44.99423666453619L67.96902901785714,45.721052888970696L68.92633928571428,46.48239101406619L69.88364955357143,47.21283508799595L70.84095982142857,47.93502900279932L71.79827008928571,48.67530703709992L72.75558035714285,49.3874444196612L73.712890625,50.055179436802455L74.67020089285714,50.79627845275377L75.62751116071429,51.52719512932278L76.58482142857143,52.306950434165095L77.54213169642858,53.03552103884019L78.49944196428572,53.76643755940789L79.45675223214286,54.55151174013706L80.4140625,55.34156254258698L81.37137276785714,56.110202391904515L82.32868303571429,56.80493741629226L83.28599330357143,57.51994843123999L84.24330357142857,58.23934439920559L85.20061383928571,58.83776024641499L86.15792410714286,59.50126580990475L87.115234375,60.21595772860715L88.07254464285714,60.92346929763718L89.02985491071428,61.60126468691208L89.98716517857142,62.34549867005944L90.94447544642857,63.106473677705594L91.90178571428571,63.902945228428244L92.85909598214286,64.65618373633058L93.81640625,65.34963443088898L94.77371651785715,66.06673214559771L95.73102678571429,66.8335364802183L96.68833705357143,67.59090991279496L97.64564732142857,68.26174130118497L98.60295758928572,68.9018793825901L99.56026785714286,69.58030784872764L100.517578125,70.26509426085707L101.47488839285714,70.9572560730491L102.43219866071428,71.5819271411248L103.38950892857143,72.21656803522983L104.34681919642857,72.90000633141088L105.30412946428571,73.54353250706605L106.26143973214285,74.21177338745841L107.21875,74.91273416988034L108.17606026785714,75.57094988770464L109.13337053571429,76.27750059692372L110.09068080357143,77.01019500332073L111.04799107142858,77.75536666296135L112.00530133928572,78.31447572697533L112.96261160714286,78.90239440315557L113.919921875,79.57327273436546L114.87723214285714,80.25282573072984L115.83454241071429,80.9533646009499L116.79185267857143,81.66631916178078L117.74916294642857,82.38632751114855L118.70647321428571,83.06023573641596L119.66378348214286,83.69356011011978L120.62109375,84.32328254973164L121.57840401785714,84.97941680547764L122.53571428571428,85.65649732826458L123.49302455357142,86.324474107494L124.45033482142857,86.92751289085753L125.40764508928571,87.57449446723585L126.36495535714286,88.25338048103875L127.322265625,88.95901396491176L128.27957589285714,89.49782888065609L129.23688616071428,90.06337271315348L130.19419642857142,90.67954917658867L131.15150669642856,91.3180168682902L132.10881696428572,91.98120057073658L133.06612723214286,92.58008871369003L134.0234375,93.1964465134885L134.98074776785714,93.83370425424253L135.93805803571428,94.4680285937863L136.89536830357142,95.12503377719374L137.85267857142856,95.79388912989901L138.80998883928572,96.43877597733876L139.76729910714286,96.97565027525744L140.724609375,97.47694939643574L141.68191964285714,97.98248721522354L142.63922991071428,98.53953793860823L143.59654017857142,99.14701394568289L144.55385044642856,99.78342637020589L145.5111607142857,100.40704516528972L146.46847098214283,100.95441263889634L147.42578125,101.55115535244576L148.38309151785714,102.18051238289618L149.34040178571428,102.68543020147763L150.29771205357142,103.14175183927215L151.25502232142858,103.67547099205981L152.21233258928572,104.25514511116238L153.16964285714286,104.83834695129337L154.126953125,105.42252250497768L155.08426339285717,105.96429094663408L156.0415736607143,106.48254929179643L156.99888392857144,107.04301232215582L157.95619419642858,107.59736788938532L158.91350446428572,108.12089267176435L159.87081473214286,108.66978949190403L160.828125,109.2565041654182L161.78543526785714,109.824017171435L162.74274553571428,110.38893273733407L163.70005580357144,110.9275852040193L164.65736607142858,111.49558115576161L165.61467633928572,112.09146947011025L166.57198660714286,112.692664011387L167.529296875,113.32086775545359L168.48660714285714,113.96707931664048L169.44391741071428,114.5690156609206L170.40122767857142,115.19445552172586L171.35853794642856,115.84028354729598L172.31584821428572,116.50612511304269L173.27315848214286,117.15272036234869L174.23046875,117.81880247020912L175.18777901785714,118.43147426500447L176.14508928571428,119.03073824438172L177.10239955357142,119.65272843237358L178.05970982142856,120.20914126274376L179.0170200892857,120.77126506470061L179.97433035714283,121.3586188286688L180.931640625,121.95763785422726L181.88895089285714,122.56800792086655L182.84626116071428,123.13274621050675L183.80357142857142,123.72377867150972L184.76088169642858,124.3234663703959L185.71819196428572,124.89379588955185L186.67550223214286,125.45604947920772L187.6328125,126.03965673277459L188.59012276785717,126.63801035541111L189.5474330357143,127.22613384281274L190.50474330357144,127.81066883775414L191.46205357142858,128.40377659304633L192.41936383928572,128.9963573676568L193.37667410714286,129.5760938025847L194.333984375,130.15621198399873L195.29129464285714,130.7480323623658L196.24860491071428,131.36687514251727L197.20591517857144,131.98949112931626L198.16322544642858,132.56223634743537L199.12053571428572,133.06026546873952L200.07784598214286,133.59443635176595L201.03515625,134.14791853684775L201.99246651785714,134.68063410197846L202.94977678571428,135.23869394108732L203.90708705357142,135.81305930522126L204.86439732142856,136.37856961194896L205.82170758928572,136.92935978117114L206.77901785714286,137.48419768656822L207.736328125,137.95627280500867L208.69363839285714,138.40141675726977L209.65094866071428,138.8987573615099L210.60825892857142,139.38002877422474L211.56556919642856,139.87715455882733L212.5228794642857,140.382913798052L213.48018973214283,140.91227169034346L214.4375,141.4542941880076L215.39481026785714,141.98224394511277L216.35212053571428,142.53370783323692L217.30943080357142,143.08231224772126L218.26674107142858,143.63460786436067L219.22405133928572,144.179579223955L220.18136160714286,144.6991439019229L221.138671875,145.2316419216743L222.09598214285717,145.76280055241295L223.0532924107143,146.31821185229134L224.01060267857144,146.88074577974032L224.96791294642858,147.45001495556076L225.92522321428572,148.03308405087026L226.88253348214286,148.61485016110925L227.83984375,149.18422945596808L228.79715401785714,149.70670199548013L229.75446428571428,150.25043975207092L230.71177455357144,150.7962107830815L231.66908482142858,151.32139839968514L232.62639508928572,151.82874116445433L233.58370535714286,152.3229593047192L234.541015625,152.79070825628577L235.49832589285714,153.24494944961157L236.45563616071428,153.73565983147205L237.41294642857142,154.22745939118153L238.37025669642856,154.69626282466942L239.32756696428572,155.18502865322515L240.28487723214286,155.6400991147047L241.2421875,156.12844975979846L242.19949776785714,156.57491901035135L243.15680803571428,157.0411849350632L244.11411830357142,157.50596550291198L245.07142857142856,157.97913008442774L246.0287388392857,158.45653382248452L246.98604910714283,158.92957958165874L247.943359375,159.41640704622316L248.90066964285714,159.8931728705791" style="fill: none;" fill="none"></path></g><g><path stroke="rgb(0, 119, 187)" stroke-width="2px" d="M19.146205357142858,11.34913618862627L38.292410714285715,19.185961868613944L57.43861607142857,29.21598217256205L76.58482142857143,40.36949884551833L95.73102678571429,52.3498193542941L114.87723214285714,64.48843373560109L134.0234375,76.68548648971884L153.16964285714286,88.497050705267L172.31584821428572,100.22083982075384L191.46205357142858,111.92305572087031L210.60825892857142,123.23838489333816L229.75446428571428,134.3962433502369L248.90066964285714,144.8969432586837" style="fill: none;" fill="none"></path></g></g></g></g><g opacity="0.2"><g><g><g><path stroke="rgb(255, 112, 67)" stroke-width="2px" d="M20.103515625,13.587828904390308L21.060825892857142,13.960486456751811L22.018136160714285,14.369299814105021L22.975446428571427,14.887130066752407L23.932756696428573,15.412982732057545L24.890066964285715,15.868501916527729L25.847377232142858,16.28270018100736L26.8046875,16.22379589080809L27.761997767857146,16.787782490253424L28.719308035714285,17.238246455788598L29.676618303571427,17.846740961074804L30.63392857142857,18.496226698160147L31.591238839285715,19.199012026190736L32.548549107142854,19.921578645706163L33.505859375,20.57238313555716L34.46316964285714,21.236924633383726L35.420479910714285,21.947182893753038L36.37779017857142,22.65722136199472L37.33510044642857,23.180216729640946L38.292410714285715,23.87937548756597L39.24972098214286,24.411602124571786L40.20703125,25.120102047920213L41.164341517857146,25.751125246286378L42.121651785714285,26.489077314734438L43.07896205357143,27.076251983642557L44.03627232142857,27.826182723045335L44.99358258928571,28.678206905722597L45.950892857142854,29.50374613702295L46.908203125,30.121252119541147L47.865513392857146,30.974265366792654L48.822823660714285,31.818377032876L49.78013392857143,32.57413226366041L50.73744419642857,33.39780326187608L51.694754464285715,34.1893846094608L52.652064732142854,34.71787478029725L53.609375,35.59880162775514L54.566685267857146,36.35598550736902L55.52399553571429,37.11833450198173L56.48130580357143,37.975963383913026L57.43861607142857,38.836339667439454L58.395926339285715,39.73979520797728L59.353236607142854,40.39092938601969L60.310546875,41.09986889362333L61.26785714285714,41.94079357385634L62.225167410714285,42.63544659316538L63.18247767857143,43.54494641721248L64.13978794642857,43.83144545555114L65.09709821428571,44.63390651345252L66.05440848214286,45.43120245635508L67.01171875,45.977715581655495L67.96902901785714,46.81127722561358L68.92633928571428,47.624398201704004L69.88364955357143,48.308501198887804L70.84095982142857,49.018319875001886L71.79827008928571,49.7857240885496L72.75558035714285,50.4556504935026L73.712890625,51.0567819625139L74.67020089285714,51.90792697668074L75.62751116071429,52.623570144176476L76.58482142857143,53.47658339142798L77.54213169642858,54.12837694585322L78.49944196428572,54.862812340259545L79.45675223214286,55.7291230112314L80.4140625,56.526638746261575L81.37137276785714,57.26316216588018L82.32868303571429,57.84703995287416L83.28599330357143,58.592464953660944L84.24330357142857,59.318438351154306L85.20061383928571,59.735384017229066L86.15792410714286,60.496524155139916L87.115234375,61.28799560666084L88.07254464285714,61.98473665118217L89.02985491071428,62.61795777082443L89.98716517857142,63.461849644780145L90.94447544642857,64.24793618917465L91.90178571428571,65.09765255451202L92.85909598214286,65.7860414981842L93.81640625,66.38981047272681L94.77371651785715,67.1423787176609L95.73102678571429,67.98374298214912L96.68833705357143,68.7269700616598L97.64564732142857,69.26798838376997L98.60295758928572,69.86208650469779L99.56026785714286,70.59795054793356L100.517578125,71.2922738790512L101.47488839285714,71.995498791337L102.43219866071428,72.51893374323845L103.38950892857143,73.16852937638758L104.34681919642857,73.92516377568244L105.30412946428571,74.50882177054882L106.26143973214285,75.21413470804691L107.21875,75.96417534351349L108.17606026785714,76.5582734644413L109.13337053571429,77.3373266607523L110.09068080357143,78.10923661291598L111.04799107142858,78.87312415242194L112.00530133928572,79.15313932299614L112.96261160714286,79.78427241742611L113.919921875,80.57959023118018L114.87723214285714,81.27215522527695L115.83454241071429,82.00417290627955L116.79185267857143,82.73575100302695L117.74916294642857,83.4663400352001L118.70647321428571,84.07109807431698L119.66378348214286,84.64354667067528L120.62109375,85.26786620914936L121.57840401785714,85.96361818909645L122.53571428571428,86.67211811244488L123.49302455357142,87.32643927633762L124.45033482142857,87.83207106590271L125.40764508928571,88.54496683180332L126.36495535714286,89.27170950174332L127.322265625,90.01746419072151L128.27957589285714,90.30605125427245L129.23688616071428,90.91168846189974L130.19419642857142,91.6038138717413L131.15150669642856,92.27571840584278L132.10881696428572,92.97597612440586L133.06612723214286,93.47842092812061L134.0234375,94.12098321318626L134.98074776785714,94.78959086537361L135.93805803571428,95.41951510310172L136.89536830357142,96.11054155230521L137.85267857142856,96.79717215895654L138.80998883928572,97.40610624849798L139.76729910714286,97.78096172213556L140.724609375,98.2288980782032L141.68191964285714,98.74079394340514L142.63922991071428,99.37511402368544L143.59654017857142,100.058227956295L144.55385044642856,100.73804500699042L145.5111607142857,101.34247335791588L146.46847098214283,101.77546384930612L147.42578125,102.44626942276955L148.38309151785714,103.12454792857172L149.34040178571428,103.44280692934989L150.29771205357142,103.82623429596424L151.25502232142858,104.476049721241L152.21233258928572,105.1246562898159L153.16964285714286,105.71314971148968L154.126953125,106.29878583550455L155.08426339285717,106.77694360911846L156.0415736607143,107.2599368095398L156.99888392857144,107.88370686769485L157.95619419642858,108.42890124022962L158.91350446428572,108.9061798453331L159.87081473214286,109.49313472211362L160.828125,110.1365761756897L161.78543526785714,110.67528668045998L162.74274553571428,111.2363060861826L163.70005580357144,111.73556390404701L164.65736607142858,112.34757508337499L165.61467633928572,112.98530194163322L166.57198660714286,113.59445582330228L167.529296875,114.26317337155342L168.48660714285714,114.93639665842056L169.44391741071428,115.47192017734051L170.40122767857142,116.13261531293392L171.35853794642856,116.8090255856514L172.31584821428572,117.5048874616623L173.27315848214286,118.1226132363081L174.23046875,118.81792563199997L175.18777901785714,119.3504819571972L176.14508928571428,119.92963421344757L177.10239955357142,120.58571371436119L178.05970982142856,121.04376050829889L179.0170200892857,121.61445076763631L179.97433035714283,122.23964947462082L180.931640625,122.85616639256477L181.88895089285714,123.48356302082539L182.84626116071428,123.97985364496708L183.80357142857142,124.61032736301424L184.76088169642858,125.22299791872501L185.71819196428572,125.74929016828537L186.67550223214286,126.29942986369133L187.6328125,126.91506761312485L188.59012276785717,127.53554078936577L189.5474330357143,128.10831907391548L190.50474330357144,128.68747133016586L191.46205357142858,129.29343822598457L192.41936383928572,129.8852285295725L193.37667410714286,130.44569845497608L194.333984375,131.02638925611973L195.29129464285714,131.63576292991638L196.24860491071428,132.29513931274414L197.20591517857144,132.9234151095152L198.16322544642858,133.42135417461395L199.12053571428572,133.8073091506958L200.07784598214286,134.39569267630577L201.03515625,134.9781418144703L201.99246651785714,135.4797074496746L202.94977678571428,136.0757836997509L203.90708705357142,136.6746073514223L204.86439732142856,137.22683507204056L205.82170758928572,137.75554503500462L206.77901785714286,138.31645454466343L207.736328125,138.66438548266888L208.69363839285714,139.06913268566132L209.65094866071428,139.64476826786995L210.60825892857142,140.1019358932972L211.56556919642856,140.62284323573112L212.5228794642857,141.14155265688896L213.48018973214283,141.70630852878094L214.4375,142.26732793450356L215.39481026785714,142.7741685807705L216.35212053571428,143.3609036654234L217.30943080357142,143.90521886944774L218.26674107142858,144.46305128932002L219.22405133928572,144.99703626334667L220.18136160714286,145.47849091887477L221.138671875,146.0303889513016L222.09598214285717,146.55953849852088L223.0532924107143,147.1513288021088L224.01060267857144,147.7245466709137L224.96791294642858,148.30391871929172L225.92522321428572,148.9076876938343L226.88253348214286,149.48749932646754L227.83984375,150.03829839825633L228.79715401785714,150.49041080474856L229.75446428571428,151.0660463869572L230.71177455357144,151.6148673295975L231.66908482142858,152.1091798245907L232.62639508928572,152.58975531160834L233.58370535714286,153.06428651511672L234.541015625,153.4923316836357L235.49832589285714,153.9263112396002L236.45563616071428,154.47172540426257L237.41294642857142,154.96515873074534L238.37025669642856,155.39946797490123L239.32756696428572,155.91817739605904L240.28487723214286,156.32270480692387L241.2421875,156.86097572743896L242.19949776785714,157.2446228861809L243.15680803571428,157.74058382213119L244.11411830357142,158.20313635468486L245.07142857142856,158.68887695670128L246.0287388392857,159.17263942956927L246.98604910714283,159.6391482204199L247.943359375,160.14664824306968L248.90066964285714,160.60832160711288" style="fill: none;" fill="none"></path></g><g><path stroke="rgb(0, 119, 187)" stroke-width="2px" d="M19.146205357142858,11.34913618862627L38.292410714285715,23.888057276606546L57.43861607142857,38.844801664352396L76.58482142857143,53.486034452915185L95.73102678571429,67.99132581055164L114.87723214285714,81.28050732612608L134.0234375,94.12746708095072L153.16964285714286,105.7184247225523L172.31584821428572,117.51115153729917L191.46205357142858,129.29948250949383L210.60825892857142,140.10874944925308L229.75446428571428,151.07231046259406L248.90066964285714,160.61370651423934" style="fill: none;" fill="none"></path></g></g></g></g></g></g><g transform="translate(61, 177)" clip-path="url(#clip_1)"><clipPath id="clip_1"><rect width="268" height="23"></rect></clipPath><g><g><line x1="0" y1="0" x2="0" y2="5" style="visibility: inherit;" fill="rgb(0, 0, 0)" stroke="rgb(204, 204, 204)" stroke-width="1px"></line><line x1="19.146205357142858" y1="0" x2="19.146205357142858" y2="5" style="visibility: inherit;" fill="rgb(0, 0, 0)" stroke="rgb(204, 204, 204)" stroke-width="1px"></line><line x1="38.292410714285715" y1="0" x2="38.292410714285715" y2="5" style="visibility: inherit;" fill="rgb(0, 0, 0)" stroke="rgb(204, 204, 204)" stroke-width="1px"></line><line x1="57.43861607142857" y1="0" x2="57.43861607142857" y2="5" style="visibility: inherit;" fill="rgb(0, 0, 0)" stroke="rgb(204, 204, 204)" stroke-width="1px"></line><line x1="76.58482142857143" y1="0" x2="76.58482142857143" y2="5" style="visibility: inherit;" fill="rgb(0, 0, 0)" stroke="rgb(204, 204, 204)" stroke-width="1px"></line><line x1="95.73102678571429" y1="0" x2="95.73102678571429" y2="5" style="visibility: inherit;" fill="rgb(0, 0, 0)" stroke="rgb(204, 204, 204)" stroke-width="1px"></line><line x1="114.87723214285714" y1="0" x2="114.87723214285714" y2="5" style="visibility: inherit;" fill="rgb(0, 0, 0)" stroke="rgb(204, 204, 204)" stroke-width="1px"></line><line x1="134.0234375" y1="0" x2="134.0234375" y2="5" style="visibility: inherit;" fill="rgb(0, 0, 0)" stroke="rgb(204, 204, 204)" stroke-width="1px"></line><line x1="153.16964285714286" y1="0" x2="153.16964285714286" y2="5" style="visibility: inherit;" fill="rgb(0, 0, 0)" stroke="rgb(204, 204, 204)" stroke-width="1px"></line><line x1="172.31584821428572" y1="0" x2="172.31584821428572" y2="5" style="visibility: inherit;" fill="rgb(0, 0, 0)" stroke="rgb(204, 204, 204)" stroke-width="1px"></line><line x1="191.46205357142858" y1="0" x2="191.46205357142858" y2="5" style="visibility: inherit;" fill="rgb(0, 0, 0)" stroke="rgb(204, 204, 204)" stroke-width="1px"></line><line x1="210.60825892857142" y1="0" x2="210.60825892857142" y2="5" style="visibility: inherit;" fill="rgb(0, 0, 0)" stroke="rgb(204, 204, 204)" stroke-width="1px"></line><line x1="229.75446428571428" y1="0" x2="229.75446428571428" y2="5" style="visibility: inherit;" fill="rgb(0, 0, 0)" stroke="rgb(204, 204, 204)" stroke-width="1px"></line><line x1="248.90066964285714" y1="0" x2="248.90066964285714" y2="5" style="visibility: inherit;" fill="rgb(0, 0, 0)" stroke="rgb(204, 204, 204)" stroke-width="1px"></line><line x1="268.046875" y1="0" x2="268.046875" y2="5" style="visibility: inherit;" fill="rgb(0, 0, 0)" stroke="rgb(204, 204, 204)" stroke-width="1px"></line></g><g transform="translate(0, 8)"><text x="0" y="0" dx="0em" dy="0.95em" style="text-anchor: middle; visibility: hidden; font-family: Roboto, sans-serif; font-size: 12px; font-weight: 200;" fill="rgb(33, 33, 33)" stroke="none" stroke-width="1px">-2k</text><text x="19.146205357142858" y="0" dx="0em" dy="0.95em" style="text-anchor: middle; visibility: inherit; font-family: Roboto, sans-serif; font-size: 12px; font-weight: 200;" fill="rgb(33, 33, 33)" stroke="none" stroke-width="1px">0</text><text x="38.292410714285715" y="0" dx="0em" dy="0.95em" style="text-anchor: middle; visibility: hidden; font-family: Roboto, sans-serif; font-size: 12px; font-weight: 200;" fill="rgb(33, 33, 33)" stroke="none" stroke-width="1px">2k</text><text x="57.43861607142857" y="0" dx="0em" dy="0.95em" style="text-anchor: middle; visibility: inherit; font-family: Roboto, sans-serif; font-size: 12px; font-weight: 200;" fill="rgb(33, 33, 33)" stroke="none" stroke-width="1px">4k</text><text x="76.58482142857143" y="0" dx="0em" dy="0.95em" style="text-anchor: middle; visibility: hidden; font-family: Roboto, sans-serif; font-size: 12px; font-weight: 200;" fill="rgb(33, 33, 33)" stroke="none" stroke-width="1px">6k</text><text x="95.73102678571429" y="0" dx="0em" dy="0.95em" style="text-anchor: middle; visibility: inherit; font-family: Roboto, sans-serif; font-size: 12px; font-weight: 200;" fill="rgb(33, 33, 33)" stroke="none" stroke-width="1px">8k</text><text x="114.87723214285714" y="0" dx="0em" dy="0.95em" style="text-anchor: middle; visibility: hidden; font-family: Roboto, sans-serif; font-size: 12px; font-weight: 200;" fill="rgb(33, 33, 33)" stroke="none" stroke-width="1px">10k</text><text x="134.0234375" y="0" dx="0em" dy="0.95em" style="text-anchor: middle; visibility: inherit; font-family: Roboto, sans-serif; font-size: 12px; font-weight: 200;" fill="rgb(33, 33, 33)" stroke="none" stroke-width="1px">12k</text><text x="153.16964285714286" y="0" dx="0em" dy="0.95em" style="text-anchor: middle; visibility: hidden; font-family: Roboto, sans-serif; font-size: 12px; font-weight: 200;" fill="rgb(33, 33, 33)" stroke="none" stroke-width="1px">14k</text><text x="172.31584821428572" y="0" dx="0em" dy="0.95em" style="text-anchor: middle; visibility: inherit; font-family: Roboto, sans-serif; font-size: 12px; font-weight: 200;" fill="rgb(33, 33, 33)" stroke="none" stroke-width="1px">16k</text><text x="191.46205357142858" y="0" dx="0em" dy="0.95em" style="text-anchor: middle; visibility: hidden; font-family: Roboto, sans-serif; font-size: 12px; font-weight: 200;" fill="rgb(33, 33, 33)" stroke="none" stroke-width="1px">18k</text><text x="210.60825892857142" y="0" dx="0em" dy="0.95em" style="text-anchor: middle; visibility: inherit; font-family: Roboto, sans-serif; font-size: 12px; font-weight: 200;" fill="rgb(33, 33, 33)" stroke="none" stroke-width="1px">20k</text><text x="229.75446428571428" y="0" dx="0em" dy="0.95em" style="text-anchor: middle; visibility: hidden; font-family: Roboto, sans-serif; font-size: 12px; font-weight: 200;" fill="rgb(33, 33, 33)" stroke="none" stroke-width="1px">22k</text><text x="248.90066964285714" y="0" dx="0em" dy="0.95em" style="text-anchor: middle; visibility: inherit; font-family: Roboto, sans-serif; font-size: 12px; font-weight: 200;" fill="rgb(33, 33, 33)" stroke="none" stroke-width="1px">24k</text><text x="268.046875" y="0" dx="0em" dy="0.95em" style="text-anchor: middle; visibility: hidden; font-family: Roboto, sans-serif; font-size: 12px; font-weight: 200;" fill="rgb(33, 33, 33)" stroke="none" stroke-width="1px">26k</text></g><line x1="0" y1="0" x2="268.046875" y2="0" fill="rgb(0, 0, 0)" stroke="rgb(204, 204, 204)" stroke-width="1px"></line></g></g></g></g></svg>