<svg viewBox="0 0 330 200" xmlns="http://www.w3.org/2000/svg"><g><g><g><g><g><line x1="61.953125" y1="177" x2="56.953125" y2="177" style="visibility: inherit;" fill="rgb(0, 0, 0)" stroke="rgb(204, 204, 204)" stroke-width="1px"></line><line x1="61.953125" y1="151.71428571428774" x2="56.953125" y2="151.71428571428774" style="visibility: inherit;" fill="rgb(0, 0, 0)" stroke="rgb(204, 204, 204)" stroke-width="1px"></line><line x1="61.953125" y1="126.42857142857544" x2="56.953125" y2="126.42857142857544" style="visibility: inherit;" fill="rgb(0, 0, 0)" stroke="rgb(204, 204, 204)" stroke-width="1px"></line><line x1="61.953125" y1="101.14285714284912" x2="56.953125" y2="101.14285714284912" style="visibility: inherit;" fill="rgb(0, 0, 0)" stroke="rgb(204, 204, 204)" stroke-width="1px"></line><line x1="61.953125" y1="75.85714285713685" x2="56.953125" y2="75.85714285713685" style="visibility: inherit;" fill="rgb(0, 0, 0)" stroke="rgb(204, 204, 204)" stroke-width="1px"></line><line x1="61.953125" y1="50.57142857142456" x2="56.953125" y2="50.57142857142456" style="visibility: inherit;" fill="rgb(0, 0, 0)" stroke="rgb(204, 204, 204)" stroke-width="1px"></line><line x1="61.953125" y1="25.285714285712288" x2="56.953125" y2="25.285714285712288" style="visibility: inherit;" fill="rgb(0, 0, 0)" stroke="rgb(204, 204, 204)" stroke-width="1px"></line><line x1="61.953125" y1="0" x2="56.953125" y2="0" style="visibility: inherit;" fill="rgb(0, 0, 0)" stroke="rgb(204, 204, 204)" stroke-width="1px"></line></g><g transform="translate(51.953125, 0)"><text x="0" y="177" dx="0em" dy="0.3em" style="text-anchor: end; visibility: hidden; font-family: Roboto, sans-serif; font-size: 12px; font-weight: 200;" fill="rgb(33, 33, 33)" stroke="none" stroke-width="1px">0.244</text><text x="0" y="151.71428571428774" dx="0em" dy="0.3em" style="text-anchor: end; visibility: inherit; font-family: Roboto, sans-serif; font-size: 12px; font-weight: 200;" fill="rgb(33, 33, 33)" stroke="none" stroke-width="1px">0.244</text><text x="0" y="126.42857142857544" dx="0em" dy="0.3em" style="text-anchor: end; visibility: inherit; font-family: Roboto, sans-serif; font-size: 12px; font-weight: 200;" fill="rgb(33, 33, 33)" stroke="none" stroke-width="1px">0.244</text><text x="0" y="101.14285714284912" dx="0em" dy="0.3em" style="text-anchor: end; visibility: inherit; font-family: Roboto, sans-serif; font-size: 12px; font-weight: 200;" fill="rgb(33, 33, 33)" stroke="none" stroke-width="1px">0.244</text><text x="0" y="75.85714285713685" dx="0em" dy="0.3em" style="text-anchor: end; visibility: inherit; font-family: Roboto, sans-serif; font-size: 12px; font-weight: 200;" fill="rgb(33, 33, 33)" stroke="none" stroke-width="1px">0.244</text><text x="0" y="50.57142857142456" dx="0em" dy="0.3em" style="text-anchor: end; visibility: inherit; font-family: Roboto, sans-serif; font-size: 12px; font-weight: 200;" fill="rgb(33, 33, 33)" stroke="none" stroke-width="1px">0.244</text><text x="0" y="25.285714285712288" dx="0em" dy="0.3em" style="text-anchor: end; visibility: inherit; font-family: Roboto, sans-serif; font-size: 12px; font-weight: 200;" fill="rgb(33, 33, 33)" stroke="none" stroke-width="1px">0.244</text><text x="0" y="0" dx="0em" dy="0.3em" style="text-anchor: end; visibility: hidden; font-family: Roboto, sans-serif; font-size: 12px; font-weight: 200;" fill="rgb(33, 33, 33)" stroke="none" stroke-width="1px">0.245</text></g><line x1="61.953125" y1="0" x2="61.953125" y2="177" fill="rgb(0, 0, 0)" stroke="rgb(204, 204, 204)" stroke-width="1px"></line></g></g><g transform="translate(61, 0)" clip-path="url(#clip_0)"><clipPath id="clip_0"><rect width="268" height="177"></rect></clipPath><g><g><g><line x1="0" y1="0" x2="0" y2="177" fill="rgb(0, 0, 0)" stroke="rgb(66, 66, 66)" stroke-width="1px" opacity="0.25"></line><line x1="19.146205357142858" y1="0" x2="19.146205357142858" y2="177" fill="rgb(0, 0, 0)" stroke="rgb(66, 66, 66)" stroke-width="1px" opacity="0.25"></line><line x1="38.292410714285715" y1="0" x2="38.292410714285715" y2="177" fill="rgb(0, 0, 0)" stroke="rgb(66, 66, 66)" stroke-width="1px" opacity="0.25"></line><line x1="57.43861607142857" y1="0" x2="57.43861607142857" y2="177" fill="rgb(0, 0, 0)" stroke="rgb(66, 66, 66)" stroke-width="1px" opacity="0.25"></line><line x1="76.58482142857143" y1="0" x2="76.58482142857143" y2="177" fill="rgb(0, 0, 0)" stroke="rgb(66, 66, 66)" stroke-width="1px" opacity="0.25"></line><line x1="95.73102678571429" y1="0" x2="95.73102678571429" y2="177" fill="rgb(0, 0, 0)" stroke="rgb(66, 66, 66)" stroke-width="1px" opacity="0.25"></line><line x1="114.87723214285714" y1="0" x2="114.87723214285714" y2="177" fill="rgb(0, 0, 0)" stroke="rgb(66, 66, 66)" stroke-width="1px" opacity="0.25"></line><line x1="134.0234375" y1="0" x2="134.0234375" y2="177" fill="rgb(0, 0, 0)" stroke="rgb(66, 66, 66)" stroke-width="1px" opacity="0.25"></line><line x1="153.16964285714286" y1="0" x2="153.16964285714286" y2="177" fill="rgb(0, 0, 0)" stroke="rgb(66, 66, 66)" stroke-width="1px" opacity="0.25"></line><line x1="172.31584821428572" y1="0" x2="172.31584821428572" y2="177" fill="rgb(0, 0, 0)" stroke="rgb(66, 66, 66)" stroke-width="1px" opacity="0.25"></line><line x1="191.46205357142858" y1="0" x2="191.46205357142858" y2="177" fill="rgb(0, 0, 0)" stroke="rgb(66, 66, 66)" stroke-width="1px" opacity="0.25"></line><line x1="210.60825892857142" y1="0" x2="210.60825892857142" y2="177" fill="rgb(0, 0, 0)" stroke="rgb(66, 66, 66)" stroke-width="1px" opacity="0.25"></line><line x1="229.75446428571428" y1="0" x2="229.75446428571428" y2="177" fill="rgb(0, 0, 0)" stroke="rgb(66, 66, 66)" stroke-width="1px" opacity="0.25"></line><line x1="248.90066964285714" y1="0" x2="248.90066964285714" y2="177" fill="rgb(0, 0, 0)" stroke="rgb(66, 66, 66)" stroke-width="1px" opacity="0.25"></line><line x1="268.046875" y1="0" x2="268.046875" y2="177" fill="rgb(0, 0, 0)" stroke="rgb(66, 66, 66)" stroke-width="1px" opacity="0.25"></line></g><g><line x1="0" y1="177" x2="268.046875" y2="177" fill="rgb(0, 0, 0)" stroke="rgb(66, 66, 66)" stroke-width="1px" opacity="0.25"></line><line x1="0" y1="151.71428571428774" x2="268.046875" y2="151.71428571428774" fill="rgb(0, 0, 0)" stroke="rgb(66, 66, 66)" stroke-width="1px" opacity="0.25"></line><line x1="0" y1="126.42857142857544" x2="268.046875" y2="126.42857142857544" fill="rgb(0, 0, 0)" stroke="rgb(66, 66, 66)" stroke-width="1px" opacity="0.25"></line><line x1="0" y1="101.14285714284912" x2="268.046875" y2="101.14285714284912" fill="rgb(0, 0, 0)" stroke="rgb(66, 66, 66)" stroke-width="1px" opacity="0.25"></line><line x1="0" y1="75.85714285713685" x2="268.046875" y2="75.85714285713685" fill="rgb(0, 0, 0)" stroke="rgb(66, 66, 66)" stroke-width="1px" opacity="0.25"></line><line x1="0" y1="50.57142857142456" x2="268.046875" y2="50.57142857142456" fill="rgb(0, 0, 0)" stroke="rgb(66, 66, 66)" stroke-width="1px" opacity="0.25"></line><line x1="0" y1="25.285714285712288" x2="268.046875" y2="25.285714285712288" fill="rgb(0, 0, 0)" stroke="rgb(66, 66, 66)" stroke-width="1px" opacity="0.25"></line><line x1="0" y1="0" x2="268.046875" y2="0" fill="rgb(0, 0, 0)" stroke="rgb(66, 66, 66)" stroke-width="1px" opacity="0.25"></line></g></g></g><g><g><line x1="0" y1="123672.42857143239" x2="268.046875" y2="123672.42857143239" fill="rgb(0, 0, 0)" stroke="rgb(153, 153, 153)" stroke-width="1.5px"></line></g></g><g><g><line x1="19.146205357142858" y1="0" x2="19.146205357142858" y2="177" fill="rgb(0, 0, 0)" stroke="rgb(153, 153, 153)" stroke-width="1.5px"></line></g></g><g><g><g><g><g><path stroke="rgb(255, 112, 67)" stroke-width="2px" d="M20.103515625,29.635699408390614L21.060825892857142,30.153780852041006L22.018136160714285,30.71992179881783L22.975446428571427,31.30214854400414L23.932756696428573,31.912891405252946L24.890066964285715,32.54466524890639L25.847377232142858,33.19272417639368L26.8046875,33.861000245676145L27.761997767857146,34.54702702017693L28.719308035714285,35.245323885129736L29.676618303571427,35.952015562021L30.63392857142857,36.673452033263224L31.591238839285715,37.410149179068284L32.548549107142854,38.14718347924017L33.505859375,38.872510978023264L34.46316964285714,39.59392770218272L35.420479910714285,40.30702407980255L36.37779017857142,41.01214768260989L37.33510044642857,41.718536727834774L38.292410714285715,42.42268201443717L39.24972098214286,43.12247366035231L40.20703125,43.81965734032403L41.164341517857146,44.524321680232944L42.121651785714285,45.224432903893316L43.07896205357143,45.91578456945124L44.03627232142857,46.607909651191235L44.99358258928571,47.27638473477111L45.950892857142854,47.9005270946858L46.908203125,48.49204137187081L47.865513392857146,49.057950287852826L48.822823660714285,49.61452461272951L49.78013392857143,50.16549820426149L50.73744419642857,50.701054199333L51.694754464285715,51.24243110493809L52.652064732142854,51.784286268665085L53.609375,52.31437122149427L54.566685267857146,52.84040834144311L55.52399553571429,53.36703105461755L56.48130580357143,53.89400512424948L57.43861607142857,54.436261468246435L58.395926339285715,54.98467288503437L59.353236607142854,55.53376305352287L60.310546875,56.08627476515732L61.26785714285714,56.64686798680985L62.225167410714285,57.218338698542006L63.18247767857143,57.78427873622089L64.13978794642857,58.34690036943976L65.09709821428571,58.922602420200846L66.05440848214286,59.45792404890627L67.01171875,59.95997454827939L67.96902901785714,60.45713383022642L68.92633928571428,60.945329797663064L69.88364955357143,61.428147776354194L70.84095982142857,61.907738961842924L71.79827008928571,62.391422655448096L72.75558035714285,62.88057614597296L73.712890625,63.37301151464681L74.67020089285714,63.84933025800659L75.62751116071429,64.33406477836736L76.58482142857143,64.81480588886632L77.54213169642858,65.28712236933166L78.49944196428572,65.76342694790948L79.45675223214286,66.2451386773653L80.4140625,66.73310898940616L81.37137276785714,67.21880586693209L82.32868303571429,67.69108151557784L83.28599330357143,68.16736159506671L84.24330357142857,68.65508720915757L85.20061383928571,69.12556580772055L86.15792410714286,69.60076765713728L87.115234375,70.07880345710277L88.07254464285714,70.5585396273526L89.02985491071428,71.04532460386706L89.98716517857142,71.5423674482231L90.94447544642857,72.0455650132532L91.90178571428571,72.54642682664142L92.85909598214286,73.05191577311611L93.81640625,73.57525245960194L94.77371651785715,74.06106911752751L95.73102678571429,74.53040234240815L96.68833705357143,74.99587409150253L97.64564732142857,75.45902895515601L98.60295758928572,75.92380797956112L99.56026785714286,76.38051862431826L100.517578125,76.8414311173799L101.47488839285714,77.29582184334782L102.43219866071428,77.75835667717456L103.38950892857143,78.21974939165622L104.34681919642857,78.68648541859683L105.30412946428571,79.1564274330184L106.26143973214285,79.63432162400291L107.21875,80.1079442447982L108.17606026785714,80.58804679959574L109.13337053571429,81.07806589887741L110.09068080357143,81.57403492485518L111.04799107142858,82.07960249091094L112.00530133928572,82.59394347304368L112.96261160714286,83.11656279687521L113.919921875,83.64716341774219L114.87723214285714,84.19159569294055L115.83454241071429,84.74734125277637L116.79185267857143,85.29178903118274L117.74916294642857,85.84151530887178L118.70647321428571,86.37632293391853L119.66378348214286,86.89916507535253L120.62109375,87.40277075846173L121.57840401785714,87.90689173472478L122.53571428571428,88.41132188688294L123.49302455357142,88.91292325255084L124.45033482142857,89.42488451445365L125.40764508928571,89.93100454595711L126.36495535714286,90.44266271532265L127.322265625,90.93352943113605L128.27957589285714,91.42699273496619L129.23688616071428,91.92804257570883L130.19419642857142,92.37637278990502L131.15150669642856,92.81417127241541L132.10881696428572,93.26072217612693L133.06612723214286,93.7095102405009L134.0234375,94.12346909682888L134.98074776785714,94.5346161805552L135.93805803571428,94.93804761664336L136.89536830357142,95.34890683231981L137.85267857142856,95.76422271572399L138.80998883928572,96.1761840156876L139.76729910714286,96.59818973374966L140.724609375,97.02019351857959L141.68191964285714,97.44521043552285L142.63922991071428,97.86299235562116L143.59654017857142,98.30054761390437L144.55385044642856,98.74092399899119L145.5111607142857,99.19203593626187L146.46847098214283,99.65260349687308L147.42578125,100.11884443149702L148.38309151785714,100.5884893905314L149.34040178571428,101.07223393235516L150.29771205357142,101.56443822383855L151.25502232142858,102.06473265714506L152.21233258928572,102.5728954676121L153.16964285714286,103.08879359640002L154.126953125,103.60631862414468L155.08426339285717,104.12783408328514L156.0415736607143,104.66078667738446L156.99888392857144,105.2036158444949L157.95619419642858,105.74935666337622L158.91350446428572,106.30287305738318L159.87081473214286,106.85804050443541L160.828125,107.37802707888535L161.78543526785714,107.89800517402159L162.74274553571428,108.41496388953107L163.70005580357144,108.93312526930585L164.65736607142858,109.45803683172824L165.61467633928572,109.98699850371955L166.57198660714286,110.53346170163672L167.529296875,111.07535435492208L168.48660714285714,111.60847609735961L169.44391741071428,112.14537816939578L170.40122767857142,112.67851985511675L171.35853794642856,113.20639101703247L172.31584821428572,113.734114156684L173.27315848214286,114.27079135908151L174.23046875,114.80982670710213L175.18777901785714,115.3593198186067L176.14508928571428,115.90905900410485L177.10239955357142,116.47703158625315L178.05970982142856,117.04991562228909L179.0170200892857,117.61670365455585L179.97433035714283,118.19490554474288L180.931640625,118.78899862578095L181.88895089285714,119.35344062487572L182.84626116071428,119.92722060312373L183.80357142857142,120.50961766091073L184.76088169642858,121.09115638232147L185.71819196428572,121.67820868600889L186.67550223214286,122.25651197088828L187.6328125,122.85368018080007L188.59012276785717,123.44106730147234L189.5474330357143,124.03162864469704L190.50474330357144,124.6240945214588L191.46205357142858,125.21770311835122L192.41936383928572,125.82104022340414L193.37667410714286,126.43021443336455L194.333984375,127.04289090628916L195.29129464285714,127.65766873697822L196.24860491071428,128.27069309027613L197.20591517857144,128.8886939412418L198.16322544642858,129.51570927485162L199.12053571428572,130.1421047139876L200.07784598214286,130.76511392441472L201.03515625,131.39814856574563L201.99246651785714,132.04322704968473L202.94977678571428,132.68347467105127L203.90708705357142,133.33589523507L204.86439732142856,133.98959098058606L205.82170758928572,134.59883745447775L206.77901785714286,135.1934715335408L207.736328125,135.77632388363995L208.69363839285714,136.35210719638889L209.65094866071428,136.9296776707936L210.60825892857142,137.50229185812307L211.56556919642856,138.07494656524315L212.5228794642857,138.6506398762734L213.48018973214283,139.21911347353395L214.4375,139.78928382660987L215.39481026785714,140.36348652520516L216.35212053571428,140.92805146298585L217.30943080357142,141.50190520444824L218.26674107142858,142.09037510421854L219.22405133928572,142.6815861149133L220.18136160714286,143.2834846682532L221.138671875,143.87370999497114L222.09598214285717,144.4599456777629L223.0532924107143,145.04077328216596L224.01060267857144,145.61835603952179L224.96791294642858,146.20303476477065L225.92522321428572,146.7889567787027L226.88253348214286,147.3906962260264L227.83984375,147.99891184136052L228.79715401785714,148.6049845734181L229.75446428571428,149.21278586755682L230.71177455357144,149.809567130801L231.66908482142858,150.4057649595745L232.62639508928572,151.0016127276599L233.58370535714286,151.58820758324197L234.541015625,152.16322210722802L235.49832589285714,152.75841706060376L236.45563616071428,153.35366310343932L237.41294642857142,153.9459255079318L238.37025669642856,154.55448348163878L239.32756696428572,155.17281879686882L240.28487723214286,155.79400622497977L241.2421875,156.4289620889483L242.19949776785714,157.06012184631635L243.15680803571428,157.70708969191355L244.11411830357142,158.35449951435493L245.07142857142856,159.00820310695752L246.0287388392857,159.67774012981963L246.98604910714283,160.356777210815L247.943359375,161.0385000346742L248.90066964285714,161.72786288832887" style="fill: none;" fill="none"></path></g><g><path stroke="rgb(0, 119, 187)" stroke-width="2px" d="M19.146205357142858,27.729159695757154L38.292410714285715,37.60096611293615L57.43861607142857,46.58617081654525L76.58482142857143,55.31200968993704L95.73102678571429,63.962686164630526L114.87723214285714,72.79605320578739L134.0234375,81.80653052977937L153.16964285714286,90.76436031586972L172.31584821428572,100.3412948343903L210.60825892857142,115.66603936253924L248.90066964285714,134.54575290161023" style="fill: none;" fill="none"></path></g></g></g></g><g opacity="0.2"><g><g><g><path stroke="rgb(255, 112, 67)" stroke-width="2px" d="M20.103515625,29.635699408390614L21.060825892857142,30.46462971823125L22.018136160714285,31.26341710771404L22.975446428571427,31.986847196302236L23.932756696428573,32.71027728489043L24.890066964285715,33.41863591329969L25.847377232142858,34.11945881161951L26.8046875,34.83535317011823L27.761997767857146,35.55878325870643L28.719308035714285,36.28221334729462L29.676618303571427,37.00564343588282L30.63392857142857,37.75168071473938L31.591238839285715,38.512789453774886L32.548549107142854,39.25129100254199L33.505859375,39.959649630951276L34.46316964285714,40.67554398944999L35.420479910714285,41.37636688776981L36.37779017857142,42.06965405600016L37.33510044642857,42.77801268440942L38.292410714285715,43.478835582729246L39.24972098214286,44.17212275095959L40.20703125,44.865409919189936L41.164341517857146,45.58130427768867L42.121651785714285,46.27459144591902L43.07896205357143,46.952807153970454L44.03627232142857,47.646094322200796L44.99358258928571,48.279095649715465L45.950892857142854,48.83673967633554L46.908203125,49.379312242776685L47.865513392857146,49.906813349038906L48.822823660714285,50.44938591548005L49.78013392857143,50.99195848192119L50.73744419642857,51.5043881280045L51.694754464285715,52.0544964245351L52.652064732142854,52.59706899097624L53.609375,53.10949863705954L54.566685267857146,53.62946401323231L55.52399553571429,54.15696511949453L56.48130580357143,54.68446622575676L57.43861607142857,55.24964598246627L58.395926339285715,55.807290009086344L59.353236607142854,56.35739830561695L60.310546875,56.91504233223702L61.26785714285714,57.48775781903599L62.225167410714285,58.0755447660139L63.18247767857143,58.63318879263397L64.13978794642857,59.19083281925403L65.09709821428571,59.786155496321406L66.05440848214286,60.26090649195739L67.01171875,60.71305029732503L67.96902901785714,61.20287275313995L68.92633928571428,61.677623748775936L69.88364955357143,62.152374744411944L70.84095982142857,62.62712574004795L71.79827008928571,63.11694819586287L72.75558035714285,63.61430638176725L73.712890625,64.11166456767162L74.67020089285714,64.56380837303927L75.62751116071429,65.06116655894364L76.58482142857143,65.53591755457964L77.54213169642858,65.99559709003671L78.49944196428572,66.47788381576218L79.45675223214286,66.9677062715771L80.4140625,67.46506445748147L81.37137276785714,67.94735118320693L82.32868303571429,68.39949498857456L83.28599330357143,68.88178171430002L84.24330357142857,69.38667563029387L85.20061383928571,69.83128370557203L86.15792410714286,70.31357043129749L87.115234375,70.79585715702295L88.07254464285714,71.2781438827484L89.02985491071428,71.7755020686528L89.98716517857142,72.28793171473609L90.94447544642857,72.8003613608194L91.90178571428571,73.29771954672378L92.85909598214286,73.81014919280707L93.81640625,74.36025748933768L94.77371651785715,74.78979410443691L95.73102678571429,75.23440217971509L96.68833705357143,75.69408171517216L97.64564732142857,76.15376125062923L98.60295758928572,76.62097651617579L99.56026785714286,77.06558459145394L100.517578125,77.53279985700048L101.47488839285714,77.97740793227864L102.43219866071428,78.45215892791465L103.38950892857143,78.91183846337172L104.34681919642857,79.38658945900772L105.30412946428571,79.86134045464374L106.26143973214285,80.35116291045865L107.21875,80.81837817600518L108.17606026785714,81.3082006318201L109.13337053571429,81.81309454781396L110.09068080357143,82.3179884638078L111.04799107142858,82.83795383998057L112.00530133928572,83.36545494624279L112.96261160714286,83.90049178259446L113.919921875,84.44306434903561L114.87723214285714,85.00824410574513L115.83454241071429,85.58095959254412L116.79185267857143,86.10846069880634L117.74916294642857,86.66610472542641L118.70647321428571,87.17853437150971L119.66378348214286,87.68342828750355L120.62109375,88.15817928313956L121.57840401785714,88.6630731991334L122.53571428571428,89.16796711512724L123.49302455357142,89.66532530103163L124.45033482142857,90.19282640729384L125.40764508928571,90.69018459319823L126.36495535714286,91.21014996937097L127.322265625,91.66982950482807L128.27957589285714,92.16718769073245L129.23688616071428,92.67961733681575L130.19419642857142,93.0488681111993L131.15150669642856,93.47086899620909L132.10881696428572,93.93054853166618L133.06612723214286,94.38269233703377L134.0234375,94.74440738132787L134.98074776785714,95.15133680615874L135.93805803571428,95.54319477081067L136.89536830357142,95.96519565582045L137.85267857142856,96.38719654083025L138.80998883928572,96.7941259656611L139.76729910714286,97.23119831084979L140.724609375,97.65319919585957L141.68191964285714,98.08273581095882L142.63922991071428,98.48966523578967L143.59654017857142,98.95688050133622L144.55385044642856,99.40148857661437L145.5111607142857,99.86870384216093L146.46847098214283,100.34345483779691L147.42578125,100.81820583343291L148.38309151785714,101.29295682906893L149.34040178571428,101.79785074506276L150.29771205357142,102.3027446610566L151.25502232142858,102.81517430713988L152.21233258928572,103.33513968331266L153.16964285714286,103.86264078957488L154.126953125,104.38260616574765L155.08426339285717,104.91010727200988L156.0415736607143,105.46021556854048L156.99888392857144,106.01785959516056L157.95619419642858,106.56796789169115L158.91350446428572,107.13314764840067L159.87081473214286,107.69079167502073L160.828125,108.15800694056729L161.78543526785714,108.67797231674004L162.74274553571428,109.19040196282334L163.70005580357144,109.71036733899612L164.65736607142858,110.2454041753478L165.61467633928572,110.78044101169947L166.57198660714286,111.35315649849846L167.529296875,111.88819333485014L168.48660714285714,112.40815871102289L169.44391741071428,112.95073127746406L170.40122767857142,113.47823238372627L171.35853794642856,113.99819775989903L172.31584821428572,114.52569886616125L173.27315848214286,115.07580716269187L174.23046875,115.618379729133L175.18777901785714,116.18355948584252L176.14508928571428,116.73366778237315L177.10239955357142,117.32899045944049L178.05970982142856,117.90924167632896L179.0170200892857,118.46688570294901L179.97433035714283,119.06220838001637L180.931640625,119.68013824735213L181.88895089285714,120.20010362352488L182.84626116071428,120.78789057050278L183.80357142857142,121.38321324757017L184.76088169642858,121.96346446445861L185.71819196428572,122.55878714152597L186.67550223214286,123.12396689823548L187.6328125,123.7494324956607L188.59012276785717,124.32214798245968L189.5474330357143,124.91747065952707L190.50474330357144,125.51279333659441L191.46205357142858,126.10811601366179L192.41936383928572,126.72604588099753L193.37667410714286,127.34397574833328L194.333984375,127.96190561566904L195.29129464285714,128.57983548300476L196.24860491071428,129.19022962025107L197.20591517857144,129.81569521767628L198.16322544642858,130.4562322752804L199.12053571428572,131.0816978727056L200.07784598214286,131.69962774004134L201.03515625,132.34770052773496L201.99246651785714,133.01084477560747L202.94977678571428,133.64384610312212L203.90708705357142,134.3145260810841L204.86439732142856,134.97013459886713L205.82170758928572,135.51270716530829L206.77901785714286,136.08542265210727L207.736328125,136.65060240881678L208.69363839285714,137.21578216552632L209.65094866071428,137.79603338241478L210.60825892857142,138.3612131391243L211.56556919642856,138.93392862592327L212.5228794642857,139.51417984281173L213.48018973214283,140.0718238694318L214.4375,140.64453935623078L215.39481026785714,141.2247905731192L216.35212053571428,141.7748988696498L217.30943080357142,142.3626858166277L218.26674107142858,142.97307995387402L219.22405133928572,143.56840263094136L220.18136160714286,144.18633249827712L221.138671875,144.7590479850761L222.09598214285717,145.33929920196454L223.0532924107143,145.91201468876355L224.01060267857144,146.48473017556253L224.96791294642858,147.08005285262988L225.92522321428572,147.6678397996078L226.88253348214286,148.293305397033L227.83984375,148.91123526436877L228.79715401785714,149.5140936715256L229.75446428571428,150.12448780877187L230.71177455357144,150.70473902566033L231.66908482142858,151.30006170272767L232.62639508928572,151.89538437979505L233.58370535714286,152.46809986659403L234.541015625,153.0257438932141L235.49832589285714,153.6512094906393L236.45563616071428,154.24653216770668L237.41294642857142,154.83431911468458L238.37025669642856,155.46732044219922L239.32756696428572,156.10032176971393L240.28487723214286,156.7257873671391L241.2421875,157.38139588492217L242.19949776785714,158.00686148234738L243.15680803571428,158.67754146030933L244.11411830357142,159.32561424800295L245.07142857142856,159.98875849587543L246.0287388392857,160.6820456641058L246.98604910714283,161.37533283233614L247.943359375,162.06108427047704L248.90066964285714,162.76190716879685" style="fill: none;" fill="none"></path></g><g><path stroke="rgb(0, 119, 187)" stroke-width="2px" d="M19.146205357142858,27.729159695757154L38.292410714285715,43.52404996326601L57.43861607142857,55.211967332018986L76.58482142857143,65.57359620502693L95.73102678571429,75.25700936998346L114.87723214285714,85.01577983583459L134.0234375,94.69165727070165L153.16964285714286,103.82496213912759L172.31584821428572,114.46541302544557L210.60825892857142,138.42149897983995L248.90066964285714,162.69408559799172" style="fill: none;" fill="none"></path></g></g></g></g></g></g><g transform="translate(61, 177)" clip-path="url(#clip_1)"><clipPath id="clip_1"><rect width="268" height="23"></rect></clipPath><g><g><line x1="0" y1="0" x2="0" y2="5" style="visibility: inherit;" fill="rgb(0, 0, 0)" stroke="rgb(204, 204, 204)" stroke-width="1px"></line><line x1="19.146205357142858" y1="0" x2="19.146205357142858" y2="5" style="visibility: inherit;" fill="rgb(0, 0, 0)" stroke="rgb(204, 204, 204)" stroke-width="1px"></line><line x1="38.292410714285715" y1="0" x2="38.292410714285715" y2="5" style="visibility: inherit;" fill="rgb(0, 0, 0)" stroke="rgb(204, 204, 204)" stroke-width="1px"></line><line x1="57.43861607142857" y1="0" x2="57.43861607142857" y2="5" style="visibility: inherit;" fill="rgb(0, 0, 0)" stroke="rgb(204, 204, 204)" stroke-width="1px"></line><line x1="76.58482142857143" y1="0" x2="76.58482142857143" y2="5" style="visibility: inherit;" fill="rgb(0, 0, 0)" stroke="rgb(204, 204, 204)" stroke-width="1px"></line><line x1="95.73102678571429" y1="0" x2="95.73102678571429" y2="5" style="visibility: inherit;" fill="rgb(0, 0, 0)" stroke="rgb(204, 204, 204)" stroke-width="1px"></line><line x1="114.87723214285714" y1="0" x2="114.87723214285714" y2="5" style="visibility: inherit;" fill="rgb(0, 0, 0)" stroke="rgb(204, 204, 204)" stroke-width="1px"></line><line x1="134.0234375" y1="0" x2="134.0234375" y2="5" style="visibility: inherit;" fill="rgb(0, 0, 0)" stroke="rgb(204, 204, 204)" stroke-width="1px"></line><line x1="153.16964285714286" y1="0" x2="153.16964285714286" y2="5" style="visibility: inherit;" fill="rgb(0, 0, 0)" stroke="rgb(204, 204, 204)" stroke-width="1px"></line><line x1="172.31584821428572" y1="0" x2="172.31584821428572" y2="5" style="visibility: inherit;" fill="rgb(0, 0, 0)" stroke="rgb(204, 204, 204)" stroke-width="1px"></line><line x1="191.46205357142858" y1="0" x2="191.46205357142858" y2="5" style="visibility: inherit;" fill="rgb(0, 0, 0)" stroke="rgb(204, 204, 204)" stroke-width="1px"></line><line x1="210.60825892857142" y1="0" x2="210.60825892857142" y2="5" style="visibility: inherit;" fill="rgb(0, 0, 0)" stroke="rgb(204, 204, 204)" stroke-width="1px"></line><line x1="229.75446428571428" y1="0" x2="229.75446428571428" y2="5" style="visibility: inherit;" fill="rgb(0, 0, 0)" stroke="rgb(204, 204, 204)" stroke-width="1px"></line><line x1="248.90066964285714" y1="0" x2="248.90066964285714" y2="5" style="visibility: inherit;" fill="rgb(0, 0, 0)" stroke="rgb(204, 204, 204)" stroke-width="1px"></line><line x1="268.046875" y1="0" x2="268.046875" y2="5" style="visibility: inherit;" fill="rgb(0, 0, 0)" stroke="rgb(204, 204, 204)" stroke-width="1px"></line></g><g transform="translate(0, 8)"><text x="0" y="0" dx="0em" dy="0.95em" style="text-anchor: middle; visibility: hidden; font-family: Roboto, sans-serif; font-size: 12px; font-weight: 200;" fill="rgb(33, 33, 33)" stroke="none" stroke-width="1px">-2k</text><text x="19.146205357142858" y="0" dx="0em" dy="0.95em" style="text-anchor: middle; visibility: inherit; font-family: Roboto, sans-serif; font-size: 12px; font-weight: 200;" fill="rgb(33, 33, 33)" stroke="none" stroke-width="1px">0</text><text x="38.292410714285715" y="0" dx="0em" dy="0.95em" style="text-anchor: middle; visibility: hidden; font-family: Roboto, sans-serif; font-size: 12px; font-weight: 200;" fill="rgb(33, 33, 33)" stroke="none" stroke-width="1px">2k</text><text x="57.43861607142857" y="0" dx="0em" dy="0.95em" style="text-anchor: middle; visibility: inherit; font-family: Roboto, sans-serif; font-size: 12px; font-weight: 200;" fill="rgb(33, 33, 33)" stroke="none" stroke-width="1px">4k</text><text x="76.58482142857143" y="0" dx="0em" dy="0.95em" style="text-anchor: middle; visibility: hidden; font-family: Roboto, sans-serif; font-size: 12px; font-weight: 200;" fill="rgb(33, 33, 33)" stroke="none" stroke-width="1px">6k</text><text x="95.73102678571429" y="0" dx="0em" dy="0.95em" style="text-anchor: middle; visibility: inherit; font-family: Roboto, sans-serif; font-size: 12px; font-weight: 200;" fill="rgb(33, 33, 33)" stroke="none" stroke-width="1px">8k</text><text x="114.87723214285714" y="0" dx="0em" dy="0.95em" style="text-anchor: middle; visibility: hidden; font-family: Roboto, sans-serif; font-size: 12px; font-weight: 200;" fill="rgb(33, 33, 33)" stroke="none" stroke-width="1px">10k</text><text x="134.0234375" y="0" dx="0em" dy="0.95em" style="text-anchor: middle; visibility: inherit; font-family: Roboto, sans-serif; font-size: 12px; font-weight: 200;" fill="rgb(33, 33, 33)" stroke="none" stroke-width="1px">12k</text><text x="153.16964285714286" y="0" dx="0em" dy="0.95em" style="text-anchor: middle; visibility: hidden; font-family: Roboto, sans-serif; font-size: 12px; font-weight: 200;" fill="rgb(33, 33, 33)" stroke="none" stroke-width="1px">14k</text><text x="172.31584821428572" y="0" dx="0em" dy="0.95em" style="text-anchor: middle; visibility: inherit; font-family: Roboto, sans-serif; font-size: 12px; font-weight: 200;" fill="rgb(33, 33, 33)" stroke="none" stroke-width="1px">16k</text><text x="191.46205357142858" y="0" dx="0em" dy="0.95em" style="text-anchor: middle; visibility: hidden; font-family: Roboto, sans-serif; font-size: 12px; font-weight: 200;" fill="rgb(33, 33, 33)" stroke="none" stroke-width="1px">18k</text><text x="210.60825892857142" y="0" dx="0em" dy="0.95em" style="text-anchor: middle; visibility: inherit; font-family: Roboto, sans-serif; font-size: 12px; font-weight: 200;" fill="rgb(33, 33, 33)" stroke="none" stroke-width="1px">20k</text><text x="229.75446428571428" y="0" dx="0em" dy="0.95em" style="text-anchor: middle; visibility: hidden; font-family: Roboto, sans-serif; font-size: 12px; font-weight: 200;" fill="rgb(33, 33, 33)" stroke="none" stroke-width="1px">22k</text><text x="248.90066964285714" y="0" dx="0em" dy="0.95em" style="text-anchor: middle; visibility: inherit; font-family: Roboto, sans-serif; font-size: 12px; font-weight: 200;" fill="rgb(33, 33, 33)" stroke="none" stroke-width="1px">24k</text><text x="268.046875" y="0" dx="0em" dy="0.95em" style="text-anchor: middle; visibility: hidden; font-family: Roboto, sans-serif; font-size: 12px; font-weight: 200;" fill="rgb(33, 33, 33)" stroke="none" stroke-width="1px">26k</text></g><line x1="0" y1="0" x2="268.046875" y2="0" fill="rgb(0, 0, 0)" stroke="rgb(204, 204, 204)" stroke-width="1px"></line></g></g></g></g></svg>