<svg viewBox="0 0 330 200" xmlns="http://www.w3.org/2000/svg"><g><g><g><g><g><line x1="41.171875" y1="177" x2="36.171875" y2="177" style="visibility: inherit;" fill="rgb(0, 0, 0)" stroke="rgb(204, 204, 204)" stroke-width="1px"></line><line x1="41.171875" y1="160.9090909090909" x2="36.171875" y2="160.9090909090909" style="visibility: inherit;" fill="rgb(0, 0, 0)" stroke="rgb(204, 204, 204)" stroke-width="1px"></line><line x1="41.171875" y1="144.8181818181818" x2="36.171875" y2="144.8181818181818" style="visibility: inherit;" fill="rgb(0, 0, 0)" stroke="rgb(204, 204, 204)" stroke-width="1px"></line><line x1="41.171875" y1="128.72727272727272" x2="36.171875" y2="128.72727272727272" style="visibility: inherit;" fill="rgb(0, 0, 0)" stroke="rgb(204, 204, 204)" stroke-width="1px"></line><line x1="41.171875" y1="112.63636363636364" x2="36.171875" y2="112.63636363636364" style="visibility: inherit;" fill="rgb(0, 0, 0)" stroke="rgb(204, 204, 204)" stroke-width="1px"></line><line x1="41.171875" y1="96.54545454545453" x2="36.171875" y2="96.54545454545453" style="visibility: inherit;" fill="rgb(0, 0, 0)" stroke="rgb(204, 204, 204)" stroke-width="1px"></line><line x1="41.171875" y1="80.45454545454542" x2="36.171875" y2="80.45454545454542" style="visibility: inherit;" fill="rgb(0, 0, 0)" stroke="rgb(204, 204, 204)" stroke-width="1px"></line><line x1="41.171875" y1="64.36363636363636" x2="36.171875" y2="64.36363636363636" style="visibility: inherit;" fill="rgb(0, 0, 0)" stroke="rgb(204, 204, 204)" stroke-width="1px"></line><line x1="41.171875" y1="48.27272727272725" x2="36.171875" y2="48.27272727272725" style="visibility: inherit;" fill="rgb(0, 0, 0)" stroke="rgb(204, 204, 204)" stroke-width="1px"></line><line x1="41.171875" y1="32.18181818181817" x2="36.171875" y2="32.18181818181817" style="visibility: inherit;" fill="rgb(0, 0, 0)" stroke="rgb(204, 204, 204)" stroke-width="1px"></line><line x1="41.171875" y1="16.090909090909076" x2="36.171875" y2="16.090909090909076" style="visibility: inherit;" fill="rgb(0, 0, 0)" stroke="rgb(204, 204, 204)" stroke-width="1px"></line><line x1="41.171875" y1="0" x2="36.171875" y2="0" style="visibility: inherit;" fill="rgb(0, 0, 0)" stroke="rgb(204, 204, 204)" stroke-width="1px"></line></g><g transform="translate(31.171875, 0)"><text x="0" y="177" dx="0em" dy="0.3em" style="text-anchor: end; visibility: hidden; font-family: Roboto, sans-serif; font-size: 12px; font-weight: 200;" fill="rgb(33, 33, 33)" stroke="none" stroke-width="1px">0.6</text><text x="0" y="160.9090909090909" dx="0em" dy="0.3em" style="text-anchor: end; visibility: inherit; font-family: Roboto, sans-serif; font-size: 12px; font-weight: 200;" fill="rgb(33, 33, 33)" stroke="none" stroke-width="1px">0.8</text><text x="0" y="144.8181818181818" dx="0em" dy="0.3em" style="text-anchor: end; visibility: hidden; font-family: Roboto, sans-serif; font-size: 12px; font-weight: 200;" fill="rgb(33, 33, 33)" stroke="none" stroke-width="1px">1</text><text x="0" y="128.72727272727272" dx="0em" dy="0.3em" style="text-anchor: end; visibility: inherit; font-family: Roboto, sans-serif; font-size: 12px; font-weight: 200;" fill="rgb(33, 33, 33)" stroke="none" stroke-width="1px">1.2</text><text x="0" y="112.63636363636364" dx="0em" dy="0.3em" style="text-anchor: end; visibility: hidden; font-family: Roboto, sans-serif; font-size: 12px; font-weight: 200;" fill="rgb(33, 33, 33)" stroke="none" stroke-width="1px">1.4</text><text x="0" y="96.54545454545453" dx="0em" dy="0.3em" style="text-anchor: end; visibility: inherit; font-family: Roboto, sans-serif; font-size: 12px; font-weight: 200;" fill="rgb(33, 33, 33)" stroke="none" stroke-width="1px">1.6</text><text x="0" y="80.45454545454542" dx="0em" dy="0.3em" style="text-anchor: end; visibility: hidden; font-family: Roboto, sans-serif; font-size: 12px; font-weight: 200;" fill="rgb(33, 33, 33)" stroke="none" stroke-width="1px">1.8</text><text x="0" y="64.36363636363636" dx="0em" dy="0.3em" style="text-anchor: end; visibility: inherit; font-family: Roboto, sans-serif; font-size: 12px; font-weight: 200;" fill="rgb(33, 33, 33)" stroke="none" stroke-width="1px">2</text><text x="0" y="48.27272727272725" dx="0em" dy="0.3em" style="text-anchor: end; visibility: hidden; font-family: Roboto, sans-serif; font-size: 12px; font-weight: 200;" fill="rgb(33, 33, 33)" stroke="none" stroke-width="1px">2.2</text><text x="0" y="32.18181818181817" dx="0em" dy="0.3em" style="text-anchor: end; visibility: inherit; font-family: Roboto, sans-serif; font-size: 12px; font-weight: 200;" fill="rgb(33, 33, 33)" stroke="none" stroke-width="1px">2.4</text><text x="0" y="16.090909090909076" dx="0em" dy="0.3em" style="text-anchor: end; visibility: hidden; font-family: Roboto, sans-serif; font-size: 12px; font-weight: 200;" fill="rgb(33, 33, 33)" stroke="none" stroke-width="1px">2.6</text><text x="0" y="0" dx="0em" dy="0.3em" style="text-anchor: end; visibility: hidden; font-family: Roboto, sans-serif; font-size: 12px; font-weight: 200;" fill="rgb(33, 33, 33)" stroke="none" stroke-width="1px">2.8</text></g><line x1="41.171875" y1="0" x2="41.171875" y2="177" fill="rgb(0, 0, 0)" stroke="rgb(204, 204, 204)" stroke-width="1px"></line></g></g><g transform="translate(41, 0)" clip-path="url(#clip_0)"><clipPath id="clip_0"><rect width="288" height="177"></rect></clipPath><g><g><g><line x1="0" y1="0" x2="0" y2="177" fill="rgb(0, 0, 0)" stroke="rgb(66, 66, 66)" stroke-width="1px" opacity="0.25"></line><line x1="20.630580357142858" y1="0" x2="20.630580357142858" y2="177" fill="rgb(0, 0, 0)" stroke="rgb(66, 66, 66)" stroke-width="1px" opacity="0.25"></line><line x1="41.261160714285715" y1="0" x2="41.261160714285715" y2="177" fill="rgb(0, 0, 0)" stroke="rgb(66, 66, 66)" stroke-width="1px" opacity="0.25"></line><line x1="61.89174107142857" y1="0" x2="61.89174107142857" y2="177" fill="rgb(0, 0, 0)" stroke="rgb(66, 66, 66)" stroke-width="1px" opacity="0.25"></line><line x1="82.52232142857143" y1="0" x2="82.52232142857143" y2="177" fill="rgb(0, 0, 0)" stroke="rgb(66, 66, 66)" stroke-width="1px" opacity="0.25"></line><line x1="103.15290178571429" y1="0" x2="103.15290178571429" y2="177" fill="rgb(0, 0, 0)" stroke="rgb(66, 66, 66)" stroke-width="1px" opacity="0.25"></line><line x1="123.78348214285714" y1="0" x2="123.78348214285714" y2="177" fill="rgb(0, 0, 0)" stroke="rgb(66, 66, 66)" stroke-width="1px" opacity="0.25"></line><line x1="144.4140625" y1="0" x2="144.4140625" y2="177" fill="rgb(0, 0, 0)" stroke="rgb(66, 66, 66)" stroke-width="1px" opacity="0.25"></line><line x1="165.04464285714286" y1="0" x2="165.04464285714286" y2="177" fill="rgb(0, 0, 0)" stroke="rgb(66, 66, 66)" stroke-width="1px" opacity="0.25"></line><line x1="185.67522321428572" y1="0" x2="185.67522321428572" y2="177" fill="rgb(0, 0, 0)" stroke="rgb(66, 66, 66)" stroke-width="1px" opacity="0.25"></line><line x1="206.30580357142858" y1="0" x2="206.30580357142858" y2="177" fill="rgb(0, 0, 0)" stroke="rgb(66, 66, 66)" stroke-width="1px" opacity="0.25"></line><line x1="226.93638392857142" y1="0" x2="226.93638392857142" y2="177" fill="rgb(0, 0, 0)" stroke="rgb(66, 66, 66)" stroke-width="1px" opacity="0.25"></line><line x1="247.56696428571428" y1="0" x2="247.56696428571428" y2="177" fill="rgb(0, 0, 0)" stroke="rgb(66, 66, 66)" stroke-width="1px" opacity="0.25"></line><line x1="268.19754464285717" y1="0" x2="268.19754464285717" y2="177" fill="rgb(0, 0, 0)" stroke="rgb(66, 66, 66)" stroke-width="1px" opacity="0.25"></line><line x1="288.828125" y1="0" x2="288.828125" y2="177" fill="rgb(0, 0, 0)" stroke="rgb(66, 66, 66)" stroke-width="1px" opacity="0.25"></line></g><g><line x1="0" y1="177" x2="288.828125" y2="177" fill="rgb(0, 0, 0)" stroke="rgb(66, 66, 66)" stroke-width="1px" opacity="0.25"></line><line x1="0" y1="160.9090909090909" x2="288.828125" y2="160.9090909090909" fill="rgb(0, 0, 0)" stroke="rgb(66, 66, 66)" stroke-width="1px" opacity="0.25"></line><line x1="0" y1="144.8181818181818" x2="288.828125" y2="144.8181818181818" fill="rgb(0, 0, 0)" stroke="rgb(66, 66, 66)" stroke-width="1px" opacity="0.25"></line><line x1="0" y1="128.72727272727272" x2="288.828125" y2="128.72727272727272" fill="rgb(0, 0, 0)" stroke="rgb(66, 66, 66)" stroke-width="1px" opacity="0.25"></line><line x1="0" y1="112.63636363636364" x2="288.828125" y2="112.63636363636364" fill="rgb(0, 0, 0)" stroke="rgb(66, 66, 66)" stroke-width="1px" opacity="0.25"></line><line x1="0" y1="96.54545454545453" x2="288.828125" y2="96.54545454545453" fill="rgb(0, 0, 0)" stroke="rgb(66, 66, 66)" stroke-width="1px" opacity="0.25"></line><line x1="0" y1="80.45454545454542" x2="288.828125" y2="80.45454545454542" fill="rgb(0, 0, 0)" stroke="rgb(66, 66, 66)" stroke-width="1px" opacity="0.25"></line><line x1="0" y1="64.36363636363636" x2="288.828125" y2="64.36363636363636" fill="rgb(0, 0, 0)" stroke="rgb(66, 66, 66)" stroke-width="1px" opacity="0.25"></line><line x1="0" y1="48.27272727272725" x2="288.828125" y2="48.27272727272725" fill="rgb(0, 0, 0)" stroke="rgb(66, 66, 66)" stroke-width="1px" opacity="0.25"></line><line x1="0" y1="32.18181818181817" x2="288.828125" y2="32.18181818181817" fill="rgb(0, 0, 0)" stroke="rgb(66, 66, 66)" stroke-width="1px" opacity="0.25"></line><line x1="0" y1="16.090909090909076" x2="288.828125" y2="16.090909090909076" fill="rgb(0, 0, 0)" stroke="rgb(66, 66, 66)" stroke-width="1px" opacity="0.25"></line><line x1="0" y1="0" x2="288.828125" y2="0" fill="rgb(0, 0, 0)" stroke="rgb(66, 66, 66)" stroke-width="1px" opacity="0.25"></line></g></g></g><g><g><line x1="0" y1="225.27272727272728" x2="288.828125" y2="225.27272727272728" fill="rgb(0, 0, 0)" stroke="rgb(153, 153, 153)" stroke-width="1.5px"></line></g></g><g><g><line x1="20.630580357142858" y1="0" x2="20.630580357142858" y2="177" fill="rgb(0, 0, 0)" stroke="rgb(153, 153, 153)" stroke-width="1.5px"></line></g></g><g><g><g><g><g><path stroke="rgb(255, 112, 67)" stroke-width="2px" d="M21.662109375,48.20079146731982L22.693638392857142,54.11790325153958L23.725167410714285,37.25024430915462L24.756696428571427,37.4940673105698L25.788225446428573,52.90936684357272L26.819754464285715,44.72608131211593L27.851283482142858,48.43917245290586L28.8828125,47.711291516759445L29.914341517857146,45.973053204049044L30.945870535714285,56.67181210046332L31.977399553571427,67.46826523642048L33.00892857142857,76.98757943234664L34.040457589285715,77.62229690916064L35.071986607142854,88.51675111816492L36.103515625,72.30475885894673L37.13504464285714,85.34695121224408L38.166573660714285,93.67207007768948L39.19810267857142,90.9492769416886L40.22963169642857,89.3759820610175L41.261160714285715,72.61414306446399L42.29268973214286,86.76021614763039L43.32421875,93.65773294598192L44.355747767857146,99.30806106805801L45.387276785714285,95.2915493359771L46.41880580357143,90.37795830833748L47.45033482142857,105.54703207727476L48.48186383928571,100.30231400870098L49.513392857142854,104.37938275258199L50.544921875,97.40930601574222L51.576450892857146,107.87186565800958L52.607979910714285,118.83887391063861L53.63950892857143,122.87510677539997L54.67103794642857,117.70518044146402L55.702566964285715,122.81304892448892L56.734095982142854,118.23882486002695L57.765625,121.81141360312836L58.797154017857146,118.09734130468833L59.82868303571429,114.67862909425835L60.86021205357143,117.98674397299864L61.89174107142857,127.9962858263065L62.923270089285715,114.02187261185345L63.954799107142854,115.05229845812613L64.986328125,113.6965642615639L66.01785714285714,114.36383661308422L67.04938616071429,106.87760579262417L68.08091517857143,108.61779606159001L69.11244419642857,116.17841336211958L70.14397321428571,114.55551202504641L71.17550223214286,122.93277757910442L72.20703125,131.0689036332176L73.23856026785714,124.87476321948182L74.27008928571428,132.86481370376546L75.30161830357143,126.40494357471906L76.33314732142857,122.85934460822604L77.36467633928571,109.43387446148121L78.39620535714285,109.85848148452826L79.427734375,116.34047873977431L80.45926339285714,120.33560698780184L81.49079241071429,134.06261357019298L82.52232142857143,130.85654741409107L83.55385044642858,120.00005820486162L84.58537946428572,118.80372877664203L85.61690848214286,114.73014939113915L86.6484375,122.73071548241332L87.67996651785714,125.9547552314008L88.71149553571429,136.57267786433832L89.74302455357143,139.07512388612787L90.77455357142857,134.1170814979323L91.80608258928571,124.20157681828591L92.83761160714286,134.17279448952695L93.869140625,130.1330577824932L94.90066964285714,133.34469997687034L95.93219866071428,123.40790152215514L96.96372767857142,130.59888414269093L97.99525669642857,133.3403234703863L99.02678571428571,133.07527244339622L100.05831473214286,137.8721626751816L101.08984375,136.96771489969794L102.12137276785715,132.8917862790882L103.15290178571429,137.86212355006094L104.18443080357143,140.35833051160895L105.21595982142857,140.76304170538899L106.24748883928572,142.49705842167089L107.27901785714286,129.6531406063001L108.310546875,127.13241351951125L109.34207589285714,124.12236901760025L110.37360491071428,121.00477123858666L111.40513392857143,130.214122025871L112.43666294642857,131.65628697090477L113.46819196428571,132.56067472899198L114.49972098214285,114.70688469423307L115.53125,125.26490158999398L116.56277901785714,133.10715067972313L117.59430803571429,139.48067922293342L118.62583705357143,131.30499785590777L119.65736607142858,136.29422460465793L120.68889508928572,135.25081578772762L121.72042410714286,129.0736404195138L122.751953125,124.00629027150862L123.78348214285714,132.71601144297054L124.81501116071429,134.71865125897497L125.84654017857143,134.28904060040423L126.87806919642857,132.98491533813672L127.90959821428571,142.68983545649905L128.94112723214286,147.37567928825587L129.97265625,149.63321543462845L131.00418526785714,146.03121780049014L132.03571428571428,148.90767396666965L133.06724330357142,148.73551044949724L134.09877232142858,147.2753106935334L135.13030133928572,138.55552944496887L136.16183035714286,144.2906657319241L137.193359375,146.1597193981881L138.22488839285714,145.91551261578053L139.25641741071428,153.1346418661283L140.28794642857142,141.43863705844484L141.31947544642856,137.53352088308273L142.35100446428572,130.15522869084927L143.38253348214286,135.57862105163724L144.4140625,132.69585054360775L145.44559151785714,138.44244799054343L146.47712053571428,144.7191973184474L147.50864955357142,142.14865809898055L148.54017857142856,145.39690012304632L149.57170758928572,142.84455371567074L150.60323660714286,143.44466466868633L151.634765625,147.75783220356803L152.66629464285714,145.19734878197968L153.69782366071428,157.16037023035628L154.72935267857142,149.86965832907902L155.76088169642856,147.25396974942274L156.7924107142857,148.6651661161255L157.82393973214283,142.8614856709154L158.85546875,142.1409471045853L159.88699776785714,145.73593570167444L160.91852678571428,139.5410863264695L161.95005580357142,141.22700032292306L162.98158482142858,139.36728922653387L164.01311383928572,140.86725423629179L165.04464285714286,140.0628407222824L166.076171875,135.22953996252343L167.10770089285717,143.89598802713078L168.1392299107143,147.43118805661132L169.17075892857144,144.07309845616473L170.20228794642858,141.32594656013933L171.23381696428572,148.44270779528313L172.26534598214286,148.95533962911855L173.296875,143.1575019980189L174.32840401785714,145.70028209291743L175.35993303571428,153.07448151525114L176.39146205357144,143.49969342783297L177.42299107142858,151.17163474006398L178.45452008928572,146.81619453054796L179.48604910714286,141.03324723018483L180.517578125,149.23168439296487L181.54910714285714,115.5676738115352L182.58063616071428,130.96032337608239L183.61216517857142,138.43084837679714L184.64369419642856,139.0487938547845L185.67522321428572,137.77779355304818L186.70675223214286,143.00229640073732L187.73828125,145.94257846525514L188.76981026785714,147.4527530440218L189.80133928571428,144.82709018454656L190.83286830357142,147.82888862258886L191.86439732142856,140.85965181070765L192.8959263392857,141.55624046296433L193.92745535714283,145.6452407349652L194.958984375,153.00316971109436L195.99051339285714,156.94801760219843L197.02204241071428,90.08932186773495L198.05357142857142,103.79429420651189L199.08510044642858,122.57057599643854L200.11662946428572,131.15745659775075L201.14815848214286,137.4903933076273L202.1796875,140.00240045108748L203.21121651785717,139.9333700497052L204.2427455357143,147.31257649849823L205.27427455357144,140.7086634692824L206.30580357142858,141.30080240330935L207.33733258928572,143.98074285712036L208.36886160714286,146.26228576020117L209.400390625,140.61898392345302L210.43191964285714,149.5001273658946L211.46344866071428,154.20149952486332L212.49497767857144,151.4855158358633L213.52650669642858,151.413101215406L214.55803571428572,150.52618392877585L215.58956473214286,154.87524682082957L216.62109375,154.5287927843118L217.65262276785714,151.3649691268901L218.68415178571428,145.74754660550084L219.71568080357142,157.51485947557828L220.74720982142856,154.8606870790362L221.77873883928572,146.25130638003586L222.81026785714286,147.58701208598106L223.841796875,143.07987537656783L224.87332589285714,147.9872022137968L225.90485491071428,151.1200255476627L226.93638392857142,152.71874560418522L227.96791294642856,148.2263937324452L228.9994419642857,154.49724308594705L230.03097098214283,155.18065776791954L231.0625,158.82390280313632L232.09402901785714,157.5642874074095L233.12555803571428,154.2098770019859L234.15708705357142,149.81277038537345L235.18861607142858,154.37471812460188L236.22014508928572,154.80858675589724L237.25167410714286,156.3764431495321L238.283203125,145.3981889259131L239.31473214285717,144.77774194091245L240.3462611607143,147.1570154294678L241.37779017857144,145.8588566244645L242.40931919642858,149.43107243923185L243.44084821428572,149.61595528452298L244.47237723214286,156.19866754597734L245.50390625,156.9010153563724L246.53543526785714,157.81496813010608L247.56696428571428,152.26609645281368L248.59849330357144,153.51120933074054L249.63002232142858,143.09904294553738L250.66155133928572,141.66934358140378L251.69308035714286,149.4319643051332L252.724609375,139.28888192707822L253.75613839285714,141.80862416585995L254.78766741071428,148.0729782577904L255.81919642857142,153.70708924619757L256.85072544642856,152.76866450904305L257.8822544642857,155.65439271763424L258.9137834821429,155.0807284540426L259.9453125,140.3107499788642L260.97684151785717,144.22962747928688L262.0083705357143,140.47208067725413L263.03989955357144,147.49315123040753L264.07142857142856,148.50766752799646L265.1029575892857,153.7089016833323L266.13448660714283,154.49680977508476L267.166015625,157.458465977092L268.19754464285717,154.4812207460064" style="fill: none;" fill="none"></path></g><g><path stroke="rgb(0, 119, 187)" stroke-width="2px" d="M20.630580357142858,22.461020122874864L41.261160714285715,58.65747466954318L61.89174107142857,81.33969927895711L82.52232142857143,96.68622035246322L103.15290178571429,107.59883429193246L123.78348214285714,115.95482562745573L144.4140625,122.28676729542104L165.04464285714286,127.00428848061306L185.67522321428572,130.67448404307595L226.93638392857142,134.1989906699181L268.19754464285717,137.26764252091994" style="fill: none;" fill="none"></path></g></g></g></g><g opacity="0.2"><g><g><g><path stroke="rgb(255, 112, 67)" stroke-width="2px" d="M21.662109375,48.20079146731982L22.693638392857142,57.668170322071425L23.725167410714285,21.057291724465095L24.756696428571427,37.780803160233916L25.788225446428573,73.03558191386135L26.819754464285715,33.40565143931994L27.851283482142858,53.748952193693675L28.8828125,46.650034124200985L29.914341517857146,43.409489328210995L30.945870535714285,72.55822218548168L31.977399553571427,83.56502190503207L33.00892857142857,91.21474703875454L34.040457589285715,78.57230066169392L35.071986607142854,104.83708906173706L36.103515625,48.005827058445306L37.13504464285714,104.90104137767443L38.166573660714285,106.15622546456076L39.19810267857142,86.86577855456959L40.22963169642857,87.01627941565079L41.261160714285715,47.472916668111615L42.29268973214286,107.97854996811257L43.32421875,104.00378117778085L44.355747767857146,107.78344169530001L45.387276785714285,89.26682931726629L46.41880580357143,83.00760669058019L47.45033482142857,128.30057804151014L48.48186383928571,92.43525032563642L49.513392857142854,110.49497960914263L50.544921875,86.95419733090833L51.576450892857146,123.56569933891296L52.607979910714285,135.28938265280289L53.63950892857143,128.92945526946673L54.67103794642857,109.95029155774549L55.702566964285715,130.47485128316012L56.734095982142854,111.3774889599193L57.765625,127.1702966256575L58.797154017857146,112.52623291449112L59.82868303571429,109.55056081034921L60.86021205357143,122.94891627268356L61.89174107142857,143.0105985728177L62.923270089285715,93.0602528181943L63.954799107142854,116.59793722629547L64.986328125,111.66296296769922L66.01785714285714,115.36474514007568L67.04938616071429,95.64825956387952L68.08091517857143,111.22808146476746L69.11244419642857,127.5193393122066L70.14397321428571,112.12116001952776L71.17550223214286,135.4986759099093L72.20703125,143.27309271422297L73.23856026785714,115.58355259895325L74.27008928571428,144.84988943013278L75.30161830357143,116.71513838117772L76.33314732142857,117.54094615849581L77.36467633928571,89.29566924138501L78.39620535714285,110.49539201909845L79.427734375,126.06347462263973L80.45926339285714,126.32829935984176L81.49079241071429,154.6531234437769L82.52232142857143,126.04744817993857L83.55385044642858,103.71532439101824L84.58537946428572,117.0092346343127L85.61690848214286,108.61978031288491L86.6484375,134.73156461932442L87.67996651785714,130.79081485488197L88.71149553571429,152.4995618137446L89.74302455357143,142.82879291881213L90.77455357142857,126.680017915639L91.80608258928571,109.32831979881631L92.83761160714286,149.1296209963885L93.869140625,124.07345272194253L94.90066964285714,138.16216326843607L95.93219866071428,108.50270384008233L96.96372767857142,141.38535807349464L97.99525669642857,137.45248246192932L99.02678571428571,132.6776959029111L100.05831473214286,145.06749802285975L101.08984375,135.6110432364724L102.12137276785715,126.77789334817365L103.15290178571429,145.31762945652008L104.18443080357143,144.10264095393092L105.21595982142857,141.37010849605906L106.24748883928572,145.09808349609375L107.27901785714286,110.38726388324389L108.310546875,123.351322889328L109.34207589285714,119.60730226473373L110.37360491071428,116.32837457006627L111.40513392857143,144.0281482067975L112.43666294642857,133.81953438845545L113.46819196428571,133.91725636612284L114.49972098214285,87.9261996420947L115.53125,141.10192693363535L116.56277901785714,144.8705243143168L117.59430803571429,149.04097203774884L118.62583705357143,119.04147580536929L119.65736607142858,143.7780647277832L120.68889508928572,133.68570256233215L121.72042410714286,119.80787736719304L122.751953125,116.40526504950088L123.78348214285714,145.7805932001634L124.81501116071429,137.7226109829816L125.84654017857143,133.64462461254814L126.87806919642857,131.02872744473544L127.90959821428571,157.24721563404256L128.94112723214286,154.4044450358911L129.97265625,153.01951965418726L131.00418526785714,140.62822134928268L132.03571428571428,153.22235821593893L133.06724330357142,148.47726517373866L134.09877232142858,145.08501105958766L135.13030133928572,125.47585757212204L136.16183035714286,152.89337016235697L137.193359375,148.96329989758402L138.22488839285714,145.5492024421692L139.25641741071428,163.96333574164998L140.28794642857142,123.89462984691964L141.31947544642856,131.6758466200395L142.35100446428572,119.08779040249911L143.38253348214286,143.7137095928192L144.4140625,128.3716947815635L145.44559151785714,147.0623441609469L146.47712053571428,154.13432131030342L147.50864955357142,138.29284926978022L148.54017857142856,150.269263159145L149.57170758928572,139.01603410460731L150.60323660714286,144.3448310982097L151.634765625,154.22758350589058L152.66629464285714,141.35662364959717L153.69782366071428,175.10490240292117L154.72935267857142,138.93359047716314L155.76088169642856,143.3304368799383L156.7924107142857,150.78196066617966L157.82393973214283,134.1559650031003L158.85546875,141.06013925509018L159.88699776785714,151.12841859730807L160.91852678571428,130.24881226366216L161.95005580357142,143.75587131760338L162.98158482142858,136.5777225819501L164.01311383928572,143.1172017509287L165.04464285714286,138.85622045126826L166.076171875,127.97958882288498L167.10770089285717,156.89566012404183L168.1392299107143,152.73398810083216L169.17075892857144,139.03596405549482L170.20228794642858,137.2052187161012L171.23381696428572,159.1178496479988L172.26534598214286,149.72428737987173L173.296875,134.4607455513694L174.32840401785714,149.51445223526522L175.35993303571428,164.1357806487517L176.39146205357144,129.13751129670575L177.42299107142858,162.67954670841044L178.45452008928572,140.2830342162739L179.48604910714286,132.3588262796402L180.517578125,161.5293401371349L181.54910714285714,65.07165793939069L182.58063616071428,154.04929772290316L183.61216517857142,149.63663587786934L184.64369419642856,139.97571207176554L185.67522321428572,135.87129310044375L186.70675223214286,150.83905067227104L187.73828125,150.3530015620318L188.76981026785714,149.7180149121718L189.80133928571428,140.8885958953337L190.83286830357142,152.33158627965233L191.86439732142856,130.4057965928858L192.8959263392857,142.60112344134936L193.92745535714283,151.77874114296654L194.958984375,164.0400631752881L195.99051339285714,162.86528943885457L197.02204241071428,-10.198721733960264L198.05357142857142,124.35175271467727L199.08510044642858,150.7349986813285L200.11662946428572,144.03777749971908L201.14815848214286,146.98979837244207L202.1796875,143.7704111662778L203.21121651785717,139.82982444763184L204.2427455357143,158.38138617168772L205.27427455357144,130.80279392545873L206.30580357142858,142.18901080434972L207.33733258928572,148.00065353783694L208.36886160714286,149.6846001148224L209.400390625,132.1540311683308L210.43191964285714,162.82184252955696L211.46344866071428,161.25355776331642L212.49497767857144,147.4115403023633L213.52650669642858,151.30447928471997L214.55803571428572,149.19580799883062L215.58956473214286,161.39884115891024L216.62109375,154.00911172953516L217.65262276785714,146.61923364075747L218.68415178571428,137.32141282341698L219.71568080357142,175.16582878069445L220.74720982142856,150.8794284842231L221.77873883928572,133.33723533153534L222.81026785714286,149.59057064489886L223.841796875,136.31917031244797L224.87332589285714,155.3481924696402L225.90485491071428,155.81926054846156L226.93638392857142,155.11682568896902L227.96791294642856,141.4878659248352L228.9994419642857,163.90351711619985L230.03097098214283,156.2057797908783L231.0625,164.28877035596153L232.09402901785714,155.6748643138192L233.12555803571428,149.1782613938505L234.15708705357142,143.21711046045476L235.18861607142858,161.21763973344457L236.22014508928572,155.45938970284027L237.25167410714286,158.72822773998433L238.283203125,128.93080759048462L239.31473214285717,143.8470714634115L240.3462611607143,150.7259256623008L241.37779017857144,143.91161841695958L242.40931919642858,154.78939616138285L243.44084821428572,149.89327955245972L244.47237723214286,166.0727359381589L245.50390625,157.95453707196495L246.53543526785714,159.18589729070663L247.56696428571428,143.94278893687508L248.59849330357144,155.37887864763087L249.63002232142858,127.48079336773263L250.66155133928572,139.5247945352034L251.69308035714286,161.0758953907273L252.724609375,124.07425835999575L253.75613839285714,145.5882375240326L254.78766741071428,157.46950939568606L255.81919642857142,162.1582557288083L256.85072544642856,151.36102740331128L257.8822544642857,159.98298503052104L258.9137834821429,154.22023205865514L259.9453125,118.15578226609662L260.97684151785717,150.10794372992083L262.0083705357143,134.83576047420502L263.03989955357144,158.02475706013766L264.07142857142856,150.0294419743798L265.1029575892857,161.51075291633606L266.13448660714283,155.67867191271347L267.166015625,161.9009502801028L268.19754464285717,150.015352899378" style="fill: none;" fill="none"></path></g><g><path stroke="rgb(0, 119, 187)" stroke-width="2px" d="M20.630580357142858,22.461020122874864L41.261160714285715,80.37534739754416L61.89174107142857,103.11463490399444L82.52232142857143,114.7337291349064L103.15290178571429,121.84634305130349L123.78348214285714,127.51416980136523L144.4140625,131.3415451916781L165.04464285714286,133.88247965682635L185.67522321428572,136.08730959892273L226.93638392857142,139.43247225067833L268.19754464285717,141.8427878509868" style="fill: none;" fill="none"></path></g></g></g></g></g></g><g transform="translate(41, 177)" clip-path="url(#clip_1)"><clipPath id="clip_1"><rect width="288" height="23"></rect></clipPath><g><g><line x1="0" y1="0" x2="0" y2="5" style="visibility: inherit;" fill="rgb(0, 0, 0)" stroke="rgb(204, 204, 204)" stroke-width="1px"></line><line x1="20.630580357142858" y1="0" x2="20.630580357142858" y2="5" style="visibility: inherit;" fill="rgb(0, 0, 0)" stroke="rgb(204, 204, 204)" stroke-width="1px"></line><line x1="41.261160714285715" y1="0" x2="41.261160714285715" y2="5" style="visibility: inherit;" fill="rgb(0, 0, 0)" stroke="rgb(204, 204, 204)" stroke-width="1px"></line><line x1="61.89174107142857" y1="0" x2="61.89174107142857" y2="5" style="visibility: inherit;" fill="rgb(0, 0, 0)" stroke="rgb(204, 204, 204)" stroke-width="1px"></line><line x1="82.52232142857143" y1="0" x2="82.52232142857143" y2="5" style="visibility: inherit;" fill="rgb(0, 0, 0)" stroke="rgb(204, 204, 204)" stroke-width="1px"></line><line x1="103.15290178571429" y1="0" x2="103.15290178571429" y2="5" style="visibility: inherit;" fill="rgb(0, 0, 0)" stroke="rgb(204, 204, 204)" stroke-width="1px"></line><line x1="123.78348214285714" y1="0" x2="123.78348214285714" y2="5" style="visibility: inherit;" fill="rgb(0, 0, 0)" stroke="rgb(204, 204, 204)" stroke-width="1px"></line><line x1="144.4140625" y1="0" x2="144.4140625" y2="5" style="visibility: inherit;" fill="rgb(0, 0, 0)" stroke="rgb(204, 204, 204)" stroke-width="1px"></line><line x1="165.04464285714286" y1="0" x2="165.04464285714286" y2="5" style="visibility: inherit;" fill="rgb(0, 0, 0)" stroke="rgb(204, 204, 204)" stroke-width="1px"></line><line x1="185.67522321428572" y1="0" x2="185.67522321428572" y2="5" style="visibility: inherit;" fill="rgb(0, 0, 0)" stroke="rgb(204, 204, 204)" stroke-width="1px"></line><line x1="206.30580357142858" y1="0" x2="206.30580357142858" y2="5" style="visibility: inherit;" fill="rgb(0, 0, 0)" stroke="rgb(204, 204, 204)" stroke-width="1px"></line><line x1="226.93638392857142" y1="0" x2="226.93638392857142" y2="5" style="visibility: inherit;" fill="rgb(0, 0, 0)" stroke="rgb(204, 204, 204)" stroke-width="1px"></line><line x1="247.56696428571428" y1="0" x2="247.56696428571428" y2="5" style="visibility: inherit;" fill="rgb(0, 0, 0)" stroke="rgb(204, 204, 204)" stroke-width="1px"></line><line x1="268.19754464285717" y1="0" x2="268.19754464285717" y2="5" style="visibility: inherit;" fill="rgb(0, 0, 0)" stroke="rgb(204, 204, 204)" stroke-width="1px"></line><line x1="288.828125" y1="0" x2="288.828125" y2="5" style="visibility: inherit;" fill="rgb(0, 0, 0)" stroke="rgb(204, 204, 204)" stroke-width="1px"></line></g><g transform="translate(0, 8)"><text x="0" y="0" dx="0em" dy="0.95em" style="text-anchor: middle; visibility: hidden; font-family: Roboto, sans-serif; font-size: 12px; font-weight: 200;" fill="rgb(33, 33, 33)" stroke="none" stroke-width="1px">-2k</text><text x="20.630580357142858" y="0" dx="0em" dy="0.95em" style="text-anchor: middle; visibility: inherit; font-family: Roboto, sans-serif; font-size: 12px; font-weight: 200;" fill="rgb(33, 33, 33)" stroke="none" stroke-width="1px">0</text><text x="41.261160714285715" y="0" dx="0em" dy="0.95em" style="text-anchor: middle; visibility: hidden; font-family: Roboto, sans-serif; font-size: 12px; font-weight: 200;" fill="rgb(33, 33, 33)" stroke="none" stroke-width="1px">2k</text><text x="61.89174107142857" y="0" dx="0em" dy="0.95em" style="text-anchor: middle; visibility: inherit; font-family: Roboto, sans-serif; font-size: 12px; font-weight: 200;" fill="rgb(33, 33, 33)" stroke="none" stroke-width="1px">4k</text><text x="82.52232142857143" y="0" dx="0em" dy="0.95em" style="text-anchor: middle; visibility: hidden; font-family: Roboto, sans-serif; font-size: 12px; font-weight: 200;" fill="rgb(33, 33, 33)" stroke="none" stroke-width="1px">6k</text><text x="103.15290178571429" y="0" dx="0em" dy="0.95em" style="text-anchor: middle; visibility: inherit; font-family: Roboto, sans-serif; font-size: 12px; font-weight: 200;" fill="rgb(33, 33, 33)" stroke="none" stroke-width="1px">8k</text><text x="123.78348214285714" y="0" dx="0em" dy="0.95em" style="text-anchor: middle; visibility: hidden; font-family: Roboto, sans-serif; font-size: 12px; font-weight: 200;" fill="rgb(33, 33, 33)" stroke="none" stroke-width="1px">10k</text><text x="144.4140625" y="0" dx="0em" dy="0.95em" style="text-anchor: middle; visibility: inherit; font-family: Roboto, sans-serif; font-size: 12px; font-weight: 200;" fill="rgb(33, 33, 33)" stroke="none" stroke-width="1px">12k</text><text x="165.04464285714286" y="0" dx="0em" dy="0.95em" style="text-anchor: middle; visibility: hidden; font-family: Roboto, sans-serif; font-size: 12px; font-weight: 200;" fill="rgb(33, 33, 33)" stroke="none" stroke-width="1px">14k</text><text x="185.67522321428572" y="0" dx="0em" dy="0.95em" style="text-anchor: middle; visibility: inherit; font-family: Roboto, sans-serif; font-size: 12px; font-weight: 200;" fill="rgb(33, 33, 33)" stroke="none" stroke-width="1px">16k</text><text x="206.30580357142858" y="0" dx="0em" dy="0.95em" style="text-anchor: middle; visibility: hidden; font-family: Roboto, sans-serif; font-size: 12px; font-weight: 200;" fill="rgb(33, 33, 33)" stroke="none" stroke-width="1px">18k</text><text x="226.93638392857142" y="0" dx="0em" dy="0.95em" style="text-anchor: middle; visibility: inherit; font-family: Roboto, sans-serif; font-size: 12px; font-weight: 200;" fill="rgb(33, 33, 33)" stroke="none" stroke-width="1px">20k</text><text x="247.56696428571428" y="0" dx="0em" dy="0.95em" style="text-anchor: middle; visibility: hidden; font-family: Roboto, sans-serif; font-size: 12px; font-weight: 200;" fill="rgb(33, 33, 33)" stroke="none" stroke-width="1px">22k</text><text x="268.19754464285717" y="0" dx="0em" dy="0.95em" style="text-anchor: middle; visibility: inherit; font-family: Roboto, sans-serif; font-size: 12px; font-weight: 200;" fill="rgb(33, 33, 33)" stroke="none" stroke-width="1px">24k</text><text x="288.828125" y="0" dx="0em" dy="0.95em" style="text-anchor: middle; visibility: hidden; font-family: Roboto, sans-serif; font-size: 12px; font-weight: 200;" fill="rgb(33, 33, 33)" stroke="none" stroke-width="1px">26k</text></g><line x1="0" y1="0" x2="288.828125" y2="0" fill="rgb(0, 0, 0)" stroke="rgb(204, 204, 204)" stroke-width="1px"></line></g></g></g></g></svg>