<svg viewBox="0 0 330 200" xmlns="http://www.w3.org/2000/svg"><g><g><g><g><g><line x1="41.171875" y1="177" x2="36.171875" y2="177" style="visibility: inherit;" fill="rgb(0, 0, 0)" stroke="rgb(204, 204, 204)" stroke-width="1px"></line><line x1="41.171875" y1="163.3846153846154" x2="36.171875" y2="163.3846153846154" style="visibility: inherit;" fill="rgb(0, 0, 0)" stroke="rgb(204, 204, 204)" stroke-width="1px"></line><line x1="41.171875" y1="149.76923076923077" x2="36.171875" y2="149.76923076923077" style="visibility: inherit;" fill="rgb(0, 0, 0)" stroke="rgb(204, 204, 204)" stroke-width="1px"></line><line x1="41.171875" y1="136.15384615384613" x2="36.171875" y2="136.15384615384613" style="visibility: inherit;" fill="rgb(0, 0, 0)" stroke="rgb(204, 204, 204)" stroke-width="1px"></line><line x1="41.171875" y1="122.53846153846153" x2="36.171875" y2="122.53846153846153" style="visibility: inherit;" fill="rgb(0, 0, 0)" stroke="rgb(204, 204, 204)" stroke-width="1px"></line><line x1="41.171875" y1="108.9230769230769" x2="36.171875" y2="108.9230769230769" style="visibility: inherit;" fill="rgb(0, 0, 0)" stroke="rgb(204, 204, 204)" stroke-width="1px"></line><line x1="41.171875" y1="95.3076923076923" x2="36.171875" y2="95.3076923076923" style="visibility: inherit;" fill="rgb(0, 0, 0)" stroke="rgb(204, 204, 204)" stroke-width="1px"></line><line x1="41.171875" y1="81.69230769230768" x2="36.171875" y2="81.69230769230768" style="visibility: inherit;" fill="rgb(0, 0, 0)" stroke="rgb(204, 204, 204)" stroke-width="1px"></line><line x1="41.171875" y1="68.07692307692305" x2="36.171875" y2="68.07692307692305" style="visibility: inherit;" fill="rgb(0, 0, 0)" stroke="rgb(204, 204, 204)" stroke-width="1px"></line><line x1="41.171875" y1="54.461538461538446" x2="36.171875" y2="54.461538461538446" style="visibility: inherit;" fill="rgb(0, 0, 0)" stroke="rgb(204, 204, 204)" stroke-width="1px"></line><line x1="41.171875" y1="40.84615384615382" x2="36.171875" y2="40.84615384615382" style="visibility: inherit;" fill="rgb(0, 0, 0)" stroke="rgb(204, 204, 204)" stroke-width="1px"></line><line x1="41.171875" y1="27.230769230769234" x2="36.171875" y2="27.230769230769234" style="visibility: inherit;" fill="rgb(0, 0, 0)" stroke="rgb(204, 204, 204)" stroke-width="1px"></line><line x1="41.171875" y1="13.615384615384606" x2="36.171875" y2="13.615384615384606" style="visibility: inherit;" fill="rgb(0, 0, 0)" stroke="rgb(204, 204, 204)" stroke-width="1px"></line><line x1="41.171875" y1="0" x2="36.171875" y2="0" style="visibility: inherit;" fill="rgb(0, 0, 0)" stroke="rgb(204, 204, 204)" stroke-width="1px"></line></g><g transform="translate(31.171875, 0)"><text x="0" y="177" dx="0em" dy="0.3em" style="text-anchor: end; visibility: hidden; font-family: Roboto, sans-serif; font-size: 12px; font-weight: 200;" fill="rgb(33, 33, 33)" stroke="none" stroke-width="1px">0.2</text><text x="0" y="163.3846153846154" dx="0em" dy="0.3em" style="text-anchor: end; visibility: inherit; font-family: Roboto, sans-serif; font-size: 12px; font-weight: 200;" fill="rgb(33, 33, 33)" stroke="none" stroke-width="1px">0.4</text><text x="0" y="149.76923076923077" dx="0em" dy="0.3em" style="text-anchor: end; visibility: hidden; font-family: Roboto, sans-serif; font-size: 12px; font-weight: 200;" fill="rgb(33, 33, 33)" stroke="none" stroke-width="1px">0.6</text><text x="0" y="136.15384615384613" dx="0em" dy="0.3em" style="text-anchor: end; visibility: inherit; font-family: Roboto, sans-serif; font-size: 12px; font-weight: 200;" fill="rgb(33, 33, 33)" stroke="none" stroke-width="1px">0.8</text><text x="0" y="122.53846153846153" dx="0em" dy="0.3em" style="text-anchor: end; visibility: hidden; font-family: Roboto, sans-serif; font-size: 12px; font-weight: 200;" fill="rgb(33, 33, 33)" stroke="none" stroke-width="1px">1</text><text x="0" y="108.9230769230769" dx="0em" dy="0.3em" style="text-anchor: end; visibility: inherit; font-family: Roboto, sans-serif; font-size: 12px; font-weight: 200;" fill="rgb(33, 33, 33)" stroke="none" stroke-width="1px">1.2</text><text x="0" y="95.3076923076923" dx="0em" dy="0.3em" style="text-anchor: end; visibility: hidden; font-family: Roboto, sans-serif; font-size: 12px; font-weight: 200;" fill="rgb(33, 33, 33)" stroke="none" stroke-width="1px">1.4</text><text x="0" y="81.69230769230768" dx="0em" dy="0.3em" style="text-anchor: end; visibility: inherit; font-family: Roboto, sans-serif; font-size: 12px; font-weight: 200;" fill="rgb(33, 33, 33)" stroke="none" stroke-width="1px">1.6</text><text x="0" y="68.07692307692305" dx="0em" dy="0.3em" style="text-anchor: end; visibility: hidden; font-family: Roboto, sans-serif; font-size: 12px; font-weight: 200;" fill="rgb(33, 33, 33)" stroke="none" stroke-width="1px">1.8</text><text x="0" y="54.461538461538446" dx="0em" dy="0.3em" style="text-anchor: end; visibility: inherit; font-family: Roboto, sans-serif; font-size: 12px; font-weight: 200;" fill="rgb(33, 33, 33)" stroke="none" stroke-width="1px">2</text><text x="0" y="40.84615384615382" dx="0em" dy="0.3em" style="text-anchor: end; visibility: hidden; font-family: Roboto, sans-serif; font-size: 12px; font-weight: 200;" fill="rgb(33, 33, 33)" stroke="none" stroke-width="1px">2.2</text><text x="0" y="27.230769230769234" dx="0em" dy="0.3em" style="text-anchor: end; visibility: inherit; font-family: Roboto, sans-serif; font-size: 12px; font-weight: 200;" fill="rgb(33, 33, 33)" stroke="none" stroke-width="1px">2.4</text><text x="0" y="13.615384615384606" dx="0em" dy="0.3em" style="text-anchor: end; visibility: hidden; font-family: Roboto, sans-serif; font-size: 12px; font-weight: 200;" fill="rgb(33, 33, 33)" stroke="none" stroke-width="1px">2.6</text><text x="0" y="0" dx="0em" dy="0.3em" style="text-anchor: end; visibility: hidden; font-family: Roboto, sans-serif; font-size: 12px; font-weight: 200;" fill="rgb(33, 33, 33)" stroke="none" stroke-width="1px">2.8</text></g><line x1="41.171875" y1="0" x2="41.171875" y2="177" fill="rgb(0, 0, 0)" stroke="rgb(204, 204, 204)" stroke-width="1px"></line></g></g><g transform="translate(41, 0)" clip-path="url(#clip_0)"><clipPath id="clip_0"><rect width="288" height="177"></rect></clipPath><g><g><g><line x1="0" y1="0" x2="0" y2="177" fill="rgb(0, 0, 0)" stroke="rgb(66, 66, 66)" stroke-width="1px" opacity="0.25"></line><line x1="20.630580357142858" y1="0" x2="20.630580357142858" y2="177" fill="rgb(0, 0, 0)" stroke="rgb(66, 66, 66)" stroke-width="1px" opacity="0.25"></line><line x1="41.261160714285715" y1="0" x2="41.261160714285715" y2="177" fill="rgb(0, 0, 0)" stroke="rgb(66, 66, 66)" stroke-width="1px" opacity="0.25"></line><line x1="61.89174107142857" y1="0" x2="61.89174107142857" y2="177" fill="rgb(0, 0, 0)" stroke="rgb(66, 66, 66)" stroke-width="1px" opacity="0.25"></line><line x1="82.52232142857143" y1="0" x2="82.52232142857143" y2="177" fill="rgb(0, 0, 0)" stroke="rgb(66, 66, 66)" stroke-width="1px" opacity="0.25"></line><line x1="103.15290178571429" y1="0" x2="103.15290178571429" y2="177" fill="rgb(0, 0, 0)" stroke="rgb(66, 66, 66)" stroke-width="1px" opacity="0.25"></line><line x1="123.78348214285714" y1="0" x2="123.78348214285714" y2="177" fill="rgb(0, 0, 0)" stroke="rgb(66, 66, 66)" stroke-width="1px" opacity="0.25"></line><line x1="144.4140625" y1="0" x2="144.4140625" y2="177" fill="rgb(0, 0, 0)" stroke="rgb(66, 66, 66)" stroke-width="1px" opacity="0.25"></line><line x1="165.04464285714286" y1="0" x2="165.04464285714286" y2="177" fill="rgb(0, 0, 0)" stroke="rgb(66, 66, 66)" stroke-width="1px" opacity="0.25"></line><line x1="185.67522321428572" y1="0" x2="185.67522321428572" y2="177" fill="rgb(0, 0, 0)" stroke="rgb(66, 66, 66)" stroke-width="1px" opacity="0.25"></line><line x1="206.30580357142858" y1="0" x2="206.30580357142858" y2="177" fill="rgb(0, 0, 0)" stroke="rgb(66, 66, 66)" stroke-width="1px" opacity="0.25"></line><line x1="226.93638392857142" y1="0" x2="226.93638392857142" y2="177" fill="rgb(0, 0, 0)" stroke="rgb(66, 66, 66)" stroke-width="1px" opacity="0.25"></line><line x1="247.56696428571428" y1="0" x2="247.56696428571428" y2="177" fill="rgb(0, 0, 0)" stroke="rgb(66, 66, 66)" stroke-width="1px" opacity="0.25"></line><line x1="268.19754464285717" y1="0" x2="268.19754464285717" y2="177" fill="rgb(0, 0, 0)" stroke="rgb(66, 66, 66)" stroke-width="1px" opacity="0.25"></line><line x1="288.828125" y1="0" x2="288.828125" y2="177" fill="rgb(0, 0, 0)" stroke="rgb(66, 66, 66)" stroke-width="1px" opacity="0.25"></line></g><g><line x1="0" y1="177" x2="288.828125" y2="177" fill="rgb(0, 0, 0)" stroke="rgb(66, 66, 66)" stroke-width="1px" opacity="0.25"></line><line x1="0" y1="163.3846153846154" x2="288.828125" y2="163.3846153846154" fill="rgb(0, 0, 0)" stroke="rgb(66, 66, 66)" stroke-width="1px" opacity="0.25"></line><line x1="0" y1="149.76923076923077" x2="288.828125" y2="149.76923076923077" fill="rgb(0, 0, 0)" stroke="rgb(66, 66, 66)" stroke-width="1px" opacity="0.25"></line><line x1="0" y1="136.15384615384613" x2="288.828125" y2="136.15384615384613" fill="rgb(0, 0, 0)" stroke="rgb(66, 66, 66)" stroke-width="1px" opacity="0.25"></line><line x1="0" y1="122.53846153846153" x2="288.828125" y2="122.53846153846153" fill="rgb(0, 0, 0)" stroke="rgb(66, 66, 66)" stroke-width="1px" opacity="0.25"></line><line x1="0" y1="108.9230769230769" x2="288.828125" y2="108.9230769230769" fill="rgb(0, 0, 0)" stroke="rgb(66, 66, 66)" stroke-width="1px" opacity="0.25"></line><line x1="0" y1="95.3076923076923" x2="288.828125" y2="95.3076923076923" fill="rgb(0, 0, 0)" stroke="rgb(66, 66, 66)" stroke-width="1px" opacity="0.25"></line><line x1="0" y1="81.69230769230768" x2="288.828125" y2="81.69230769230768" fill="rgb(0, 0, 0)" stroke="rgb(66, 66, 66)" stroke-width="1px" opacity="0.25"></line><line x1="0" y1="68.07692307692305" x2="288.828125" y2="68.07692307692305" fill="rgb(0, 0, 0)" stroke="rgb(66, 66, 66)" stroke-width="1px" opacity="0.25"></line><line x1="0" y1="54.461538461538446" x2="288.828125" y2="54.461538461538446" fill="rgb(0, 0, 0)" stroke="rgb(66, 66, 66)" stroke-width="1px" opacity="0.25"></line><line x1="0" y1="40.84615384615382" x2="288.828125" y2="40.84615384615382" fill="rgb(0, 0, 0)" stroke="rgb(66, 66, 66)" stroke-width="1px" opacity="0.25"></line><line x1="0" y1="27.230769230769234" x2="288.828125" y2="27.230769230769234" fill="rgb(0, 0, 0)" stroke="rgb(66, 66, 66)" stroke-width="1px" opacity="0.25"></line><line x1="0" y1="13.615384615384606" x2="288.828125" y2="13.615384615384606" fill="rgb(0, 0, 0)" stroke="rgb(66, 66, 66)" stroke-width="1px" opacity="0.25"></line><line x1="0" y1="0" x2="288.828125" y2="0" fill="rgb(0, 0, 0)" stroke="rgb(66, 66, 66)" stroke-width="1px" opacity="0.25"></line></g></g></g><g><g><line x1="0" y1="190.6153846153846" x2="288.828125" y2="190.6153846153846" fill="rgb(0, 0, 0)" stroke="rgb(153, 153, 153)" stroke-width="1.5px"></line></g></g><g><g><line x1="20.630580357142858" y1="0" x2="20.630580357142858" y2="177" fill="rgb(0, 0, 0)" stroke="rgb(153, 153, 153)" stroke-width="1.5px"></line></g></g><g><g><g><g><g><path stroke="rgb(255, 112, 67)" stroke-width="2px" d="M21.662109375,108.94346768122452L22.693638392857142,118.020572306445L23.725167410714285,123.5885703294206L24.756696428571427,118.97640028312735L25.788225446428573,120.07281039910788L26.819754464285715,124.91663005134308L27.851283482142858,130.4915124249024L28.8828125,132.87246642800847L29.914341517857146,138.2127236783361L30.945870535714285,126.77626830564482L31.977399553571427,130.58418255758622L33.00892857142857,132.05463900920324L34.040457589285715,137.66152066202486L35.071986607142854,136.13484300842094L36.103515625,136.1357524093736L37.13504464285714,135.40014003152865L38.166573660714285,136.99150837204533L39.19810267857142,141.03142499738047L40.22963169642857,137.71791718198196L41.261160714285715,140.2434662617963L42.29268973214286,131.7936455563804L43.32421875,140.57390074766116L44.355747767857146,141.33105508379748L45.387276785714285,136.77786736821903L46.41880580357143,137.22632395832997L47.45033482142857,139.26172539066107L48.48186383928571,141.203883485402L49.513392857142854,139.38528975687117L50.544921875,138.0348454336483L51.576450892857146,127.93359624243462L52.607979910714285,134.7460777541876L53.63950892857143,136.9869160324254L54.67103794642857,142.0437835710582L55.702566964285715,140.89377802958433L56.734095982142854,147.5343814407562L57.765625,144.1593303198975L58.797154017857146,138.19163626911407L59.82868303571429,142.43151919227623L60.86021205357143,138.87712224863668L61.89174107142857,139.24430534111792L62.923270089285715,142.15049014658155L63.954799107142854,141.75270235162424L64.986328125,142.89560051872112L66.01785714285714,146.72373005560982L67.04938616071429,143.74618426922666L68.08091517857143,136.1983984610216L69.11244419642857,141.10380509243618L70.14397321428571,141.0768169420038L71.17550223214286,148.23029898021306L72.20703125,144.12678771904135L73.23856026785714,145.05212264335756L74.27008928571428,146.11473259284065L75.30161830357143,146.6946727186L76.33314732142857,146.14976407538975L77.36467633928571,143.6465116330574L78.39620535714285,137.61619040164203L79.427734375,135.7532762593059L80.45926339285714,144.0461507557842L81.49079241071429,144.73299930529953L82.52232142857143,143.13305366153116L83.55385044642858,144.08184334749893L84.58537946428572,143.0480964818798L85.61690848214286,140.36350118705687L86.6484375,140.2563786097021L87.67996651785714,140.85451336016777L88.71149553571429,131.6372527429859L89.74302455357143,127.78232753250325L90.77455357142857,135.36200155278956L91.80608258928571,140.90075168930198L92.83761160714286,144.29580197563317L93.869140625,144.83720095698519L94.90066964285714,148.6656410165375L95.93219866071428,147.88047226521005L96.96372767857142,145.4888027866456L97.99525669642857,142.1179418319787L99.02678571428571,143.07992751051017L100.05831473214286,144.7488806533985L101.08984375,143.36174051461882L102.12137276785715,142.67488280556634L103.15290178571429,142.8947258669993L104.18443080357143,142.30197503028094L105.21595982142857,147.89048291726806L106.24748883928572,147.744697157828L107.27901785714286,146.16408269385852L108.310546875,145.37667813766214L109.34207589285714,146.01138069505268L110.37360491071428,147.32061878423144L111.40513392857143,147.04830604999947L112.43666294642857,151.84298246123512L113.46819196428571,153.6923881994924L114.49972098214285,152.0614101948836L115.53125,147.6505343786225L116.56277901785714,148.2445764079804L117.59430803571429,146.66126319608549L118.62583705357143,150.18873062818736L119.65736607142858,147.68386641106392L120.68889508928572,139.6666468191596L121.72042410714286,141.23330352998642L122.751953125,144.0685489773105L123.78348214285714,146.06707864629104L124.81501116071429,148.35188461686525L125.84654017857143,140.08277312860562L126.87806919642857,145.81312390441792L127.90959821428571,145.62660970668438L128.94112723214286,141.93572466691904L129.97265625,147.5944933701329L131.00418526785714,141.04530698296676L132.03571428571428,142.99948892826498L133.06724330357142,144.31530634983255L134.09877232142858,144.2314984328519L135.13030133928572,148.11441774666594L136.16183035714286,146.0419956874406L137.193359375,143.38465283288508L138.22488839285714,148.2843067470245L139.25641741071428,143.5094359934315L140.28794642857142,145.89811779746555L141.31947544642856,145.84981973444445L142.35100446428572,148.19198596164597L143.38253348214286,146.42485184481748L144.4140625,148.37652965286287L145.44559151785714,120.92437518683113L146.47712053571428,130.44778193034185L147.50864955357142,139.71311274719554L148.54017857142856,144.08351851343198L149.57170758928572,141.34728562781814L150.60323660714286,139.7030820605135L151.634765625,138.4768342019993L152.66629464285714,136.51530763160454L153.69782366071428,145.56284500106779L154.72935267857142,154.43312792148953L155.76088169642856,155.80623124570477L156.7924107142857,151.08740620471L157.82393973214283,144.8245265834792L158.85546875,147.10119072745593L159.88699776785714,147.60234871550458L160.91852678571428,146.78027282291777L161.95005580357142,148.06294984255555L162.98158482142858,149.16842006639618L164.01311383928572,151.45461048114655L165.04464285714286,148.08303965172797L166.076171875,151.27007950339922L167.10770089285717,149.61091803996595L168.1392299107143,150.62379316612152L169.17075892857144,151.66821936534595L170.20228794642858,152.10857143263073L171.23381696428572,155.02009647872842L172.26534598214286,149.2400771210874L173.296875,152.89410221573803L174.32840401785714,154.81498729539018L175.35993303571428,152.9639359710663L176.39146205357144,151.27291762083604L177.42299107142858,148.26191293929534L178.45452008928572,143.08810826106654L179.48604910714286,146.70619405211357L180.517578125,146.97241107854364L181.54910714285714,147.11325513171715L182.58063616071428,148.62437126316397L183.61216517857142,145.5059786469253L184.64369419642856,145.77632976035272L185.67522321428572,147.28973045439903L186.70675223214286,151.55963929817676L187.73828125,150.7724297652945L188.76981026785714,155.21505421461495L189.80133928571428,147.59867470576387L190.83286830357142,145.84335268758L191.86439732142856,149.10560544999257L192.8959263392857,153.63947701854596L193.92745535714283,152.48455609415134L194.958984375,155.1580977457964L195.99051339285714,152.87080812195927L197.02204241071428,150.45786131923927L198.05357142857142,154.17269868372583L199.08510044642858,154.34207853323824L200.11662946428572,154.56122232785862L201.14815848214286,152.1819283160079L202.1796875,151.95290096861862L203.21121651785717,152.64705191181974L204.2427455357143,150.9652242310457L205.27427455357144,136.2461563780627L206.30580357142858,144.22004554845452L207.33733258928572,144.8049687130214L208.36886160714286,147.58176872995492L209.400390625,148.6136479562388L210.43191964285714,146.29770415203507L211.46344866071428,149.24758920087152L212.49497767857144,148.0913238934272L213.52650669642858,148.48667595455606L214.55803571428572,148.6538739982496L215.58956473214286,145.31985223743666L216.62109375,147.51954582007735L217.65262276785714,147.31442444083146L218.68415178571428,151.35167249589776L219.71568080357142,151.09528387654058L220.74720982142856,148.05184022183005L221.77873883928572,143.68212149451887L222.81026785714286,146.77384139429574L223.841796875,149.95124394586617L224.87332589285714,150.4258121277654L225.90485491071428,148.04950634853165L226.93638392857142,148.74021638118742L227.96791294642856,150.5505255666539L228.9994419642857,150.1942097989098L230.03097098214283,151.77907900267329L231.0625,155.29920440146344L232.09402901785714,153.69639854613507L233.12555803571428,149.91813667223377L234.15708705357142,149.5335842879331L235.18861607142858,153.94289623064404L236.22014508928572,151.64299253624853L237.25167410714286,153.2200299978386L238.283203125,153.04931676315206L239.31473214285717,149.6624250957829L240.3462611607143,150.90031489933L241.37779017857144,153.19631068507437L242.40931919642858,156.39165424557598L243.44084821428572,151.45300803472304L244.47237723214286,152.1703334884305L245.50390625,151.8428086788561L246.53543526785714,150.09090565426706L247.56696428571428,150.68550886015998L248.59849330357144,153.13508678808202L249.63002232142858,151.33353462281L250.66155133928572,150.90923507764168L251.69308035714286,154.41631443170627L252.724609375,120.52520124787686L253.75613839285714,136.4646111106734L254.78766741071428,146.1630781957103L255.81919642857142,144.18642248232416L256.85072544642856,143.3893093621503L257.8822544642857,145.7697485237168L258.9137834821429,147.8104018510993L259.9453125,148.50648607034412L260.97684151785717,151.62208077533705L262.0083705357143,156.73099069224304L263.03989955357144,157.2855693384063L264.07142857142856,151.5373162347201L265.1029575892857,153.65028409836663L266.13448660714283,152.3318112927279L267.166015625,153.3227318465197L268.19754464285717,150.75486148510203" style="fill: none;" fill="none"></path></g><g><path stroke="rgb(0, 119, 187)" stroke-width="2px" d="M20.630580357142858,19.018382054108823L41.261160714285715,88.12355289321678L61.89174107142857,110.68065850495168L82.52232142857143,121.20701140645738L103.15290178571429,127.01455557878022L123.78348214285714,130.37048759916263L144.4140625,132.56796774304382L165.04464285714286,133.75148373904636L185.67522321428572,134.59954903921283L206.30580357142858,135.192228977907L226.93638392857142,136.00465125872302L247.56696428571428,135.66909092299335L268.19754464285717,135.8285465627895" style="fill: none;" fill="none"></path></g></g></g></g><g opacity="0.2"><g><g><g><path stroke="rgb(255, 112, 67)" stroke-width="2px" d="M21.662109375,108.94346768122452L22.693638392857142,123.4668350815773L23.725167410714285,128.93384843147717L24.756696428571427,113.55248830868646L25.788225446428573,121.504283446532L26.819754464285715,131.61737640545917L27.851283482142858,138.4636834172102L28.8828125,136.34392022169553L29.914341517857146,146.08856583100098L30.945870535714285,109.79446492745325L31.977399553571427,136.26151643349573L33.00892857142857,134.25232152755444L34.040457589285715,146.05353569984436L35.071986607142854,133.8478174484693L36.103515625,136.13711544183585L37.13504464285714,134.29724027560306L38.166573660714285,139.3778874690716L39.19810267857142,147.09027420098965L40.22963169642857,132.74816023844937L41.261160714285715,144.03155903632825L42.29268973214286,119.11937790650586L43.32421875,153.74399461654517L44.355747767857146,142.4667716393104L45.387276785714285,129.9481397317006L46.41880580357143,137.89900565605896L47.45033482142857,142.31481885910034L48.48186383928571,144.11711565806314L49.513392857142854,136.6574019560447L50.544921875,136.00918019276398L51.576450892857146,112.78172803842104L52.607979910714285,144.96479776272406L53.63950892857143,140.3481730039303L54.67103794642857,149.62908427531903L55.702566964285715,139.168769799746L56.734095982142854,157.4952862721223L57.765625,139.09675372563873L58.797154017857146,129.24009528526892L59.82868303571429,148.79134353766074L60.86021205357143,133.54552685297452L61.89174107142857,139.79507997861276L62.923270089285715,146.50976734894974L63.954799107142854,141.15602065966678L64.986328125,144.60994776854147L66.01785714285714,152.4659243592849L67.04938616071429,139.27986559042563L68.08091517857143,124.87671974989084L69.11244419642857,148.46191503909918L70.14397321428571,141.03633471635672L71.17550223214286,158.96052203728604L72.20703125,137.97152082736676L73.23856026785714,146.44012502982065L74.27008928571428,147.70864751705756L75.30161830357143,147.56458290723654L76.33314732142857,145.33240111057574L77.36467633928571,139.8916329695628L78.39620535714285,128.57070855452463L79.427734375,132.95890504580277L80.45926339285714,156.48546250049884L81.49079241071429,145.76327212957236L82.52232142857143,140.73313519587884L83.55385044642858,145.50502787645047L84.58537946428572,141.49747618345114L85.61690848214286,136.33660824482257L86.6484375,140.09569474366995L87.67996651785714,141.75171548586624L88.71149553571429,117.81136181721321L89.74302455357143,121.99993971677927L90.77455357142857,146.7315125832191L91.80608258928571,149.20887689407056L92.83761160714286,149.38837740512994L93.869140625,145.64929942901318L94.90066964285714,154.40830110586606L95.93219866071428,146.7027191382188L96.96372767857142,141.90129856879895L97.99525669642857,137.06165039997833L99.02678571428571,144.5229060283074L100.05831473214286,147.25231036773096L101.08984375,141.28103030644928L102.12137276785715,141.64459624198767L103.15290178571429,143.2244904591487L104.18443080357143,141.4128487752034L105.21595982142857,156.27324474774872L106.24748883928572,147.52601851866794L107.27901785714286,143.79316099790427L108.310546875,144.19557130336761L109.34207589285714,146.9634345311385L110.37360491071428,149.28447591799957L111.40513392857143,146.63983694865152L112.43666294642857,159.03499707808862L113.46819196428571,156.46649680687833L114.49972098214285,149.61494318797037L115.53125,141.03422065423084L116.56277901785714,149.13563945201727L117.59430803571429,144.28629337824307L118.62583705357143,155.47993177634018L119.65736607142858,143.92657008537878L120.68889508928572,127.64081743130318L121.72042410714286,143.58328859622662L122.751953125,148.32141714829666L123.78348214285714,149.06487314976178L124.81501116071429,151.7790935727266L125.84654017857143,127.67910589621614L126.87806919642857,154.40865006813635L127.90959821428571,145.34683841008408L128.94112723214286,136.39939710727106L129.97265625,156.08264642495377L131.00418526785714,131.22152740221756L132.03571428571428,145.93076184621225L133.06724330357142,146.2890324821839L134.09877232142858,144.10578655738098L135.13030133928572,153.93879671738696L136.16183035714286,142.93336259860257L137.193359375,139.3986385510518L138.22488839285714,155.6337876182336L139.25641741071428,136.34712986304208L140.28794642857142,149.48114050351654L141.31947544642856,145.7773726399128L142.35100446428572,151.70523530244827L143.38253348214286,143.77415066957474L144.4140625,151.30404636493097L145.44559151785714,79.74614348778356L146.47712053571428,144.7328920456079L147.50864955357142,153.61110897247607L148.54017857142856,150.63912716278662L149.57170758928572,137.2429362993974L150.60323660714286,137.23677670955658L151.634765625,136.637462414228L152.66629464285714,133.57301777601242L153.69782366071428,159.13415105526263L154.72935267857142,167.73855230212212L155.76088169642856,157.86588623202763L156.7924107142857,144.0091686432178L157.82393973214283,135.43020715163303L158.85546875,150.516186943421L159.88699776785714,148.35408569757755L160.91852678571428,145.54715898403754L161.95005580357142,149.9869653720122L162.98158482142858,150.82662540215713L164.01311383928572,154.88389610327206L165.04464285714286,143.0256834076001L166.076171875,156.05063928090607L167.10770089285717,147.12217584481607L168.1392299107143,152.1431058553549L169.17075892857144,153.23485866418252L170.20228794642858,152.7690995335579L171.23381696428572,159.38738404787503L172.26534598214286,140.57004808462582L173.296875,158.375139857714L174.32840401785714,157.69631491486842L175.35993303571428,150.18735898458038L176.39146205357144,148.73639009549066L177.42299107142858,143.74540591698425L178.45452008928572,135.32740124372336L179.48604910714286,152.13332273868414L180.517578125,147.37173661818872L181.54910714285714,147.32452121147742L182.58063616071428,150.89104546033417L183.61216517857142,140.82838972256732L184.64369419642856,146.18185643049387L185.67522321428572,149.55983149546844L186.70675223214286,157.96450256384335L187.73828125,149.59161546597113L188.76981026785714,161.87899088859558L189.80133928571428,136.17410544248727L190.83286830357142,143.21036966030414L191.86439732142856,153.99898459361148L192.8959263392857,160.44028437137604L193.92745535714283,150.75217470755945L194.958984375,159.16841022326398L195.99051339285714,149.43987368620358L197.02204241071428,146.83844111515924L198.05357142857142,159.7449547304557L199.08510044642858,154.59614830750687L200.11662946428572,154.88993801978918L201.14815848214286,148.61298729823184L202.1796875,151.6093599475347L203.21121651785717,153.6882783266214L204.2427455357143,148.44248270988464L205.27427455357144,114.1675545985882L206.30580357142858,156.1808793040422L207.33733258928572,145.68235345987173L208.36886160714286,151.74696875535523L209.400390625,150.16146679566455L210.43191964285714,142.82378844572946L211.46344866071428,153.6724167741262L212.49497767857144,146.35692593226065L213.52650669642858,149.0797040462494L214.55803571428572,148.90467106378995L215.58956473214286,140.31881959621722L216.62109375,150.8190861940384L217.65262276785714,147.00674237196262L218.68415178571428,157.40754457849724L219.71568080357142,150.71070094750476L220.74720982142856,143.48667473976428L221.77873883928572,137.12754340355212L222.81026785714286,151.41142124396103L223.841796875,154.71734777322183L224.87332589285714,151.13766440061423L225.90485491071428,144.48504767968103L226.93638392857142,149.77628143017108L227.96791294642856,153.26598934485364L228.9994419642857,149.65973614729367L230.03097098214283,154.15638280831848L231.0625,160.5793924996486L232.09402901785714,151.29218976314252L233.12555803571428,144.25074386138184L234.15708705357142,148.95675571148212L235.18861607142858,160.5568641447104L236.22014508928572,148.1931369946553L237.25167410714286,155.5855861902237L238.283203125,152.79324691112225L239.31473214285717,144.5820875947292L240.3462611607143,152.75714960465064L241.37779017857144,156.6403043636909L242.40931919642858,161.18466958632837L243.44084821428572,144.04503871844364L244.47237723214286,153.24632166899167L245.50390625,151.35152146449457L246.53543526785714,147.46305111738351L247.56696428571428,151.5774136689993L248.59849330357144,156.8094536799651L249.63002232142858,148.63120637490198L250.66155133928572,150.27278575988916L251.69308035714286,159.6769334628032L252.724609375,69.68853147213274L253.75613839285714,160.3737259048682L254.78766741071428,160.71077882326566L255.81919642857142,141.22143891224493L256.85072544642856,142.19363968188947L257.8822544642857,149.34040726606662L258.9137834821429,150.87138184217307L259.9453125,149.55061239921127L260.97684151785717,156.29547283282648L262.0083705357143,164.39435556760202L263.03989955357144,158.11743730765122L264.07142857142856,142.91493657919077L265.1029575892857,156.81973589383637L266.13448660714283,150.35410208426987L267.166015625,154.80911267720734L268.19754464285717,146.90305594297556" style="fill: none;" fill="none"></path></g><g><path stroke="rgb(0, 119, 187)" stroke-width="2px" d="M20.630580357142858,19.018382054108823L41.261160714285715,129.58665539668155L61.89174107142857,132.3354798922172L82.52232142857143,133.58600241862808L103.15290178571429,134.59688525016492L123.78348214285714,135.01294971887882L144.4140625,135.71039950847626L165.04464285714286,135.4770614229716L185.67522321428572,135.85028062875455L206.30580357142858,136.07228961357703L226.93638392857142,137.21591606965433L247.56696428571428,135.16757652392755L268.19754464285717,136.06720937215363" style="fill: none;" fill="none"></path></g></g></g></g></g></g><g transform="translate(41, 177)" clip-path="url(#clip_1)"><clipPath id="clip_1"><rect width="288" height="23"></rect></clipPath><g><g><line x1="0" y1="0" x2="0" y2="5" style="visibility: inherit;" fill="rgb(0, 0, 0)" stroke="rgb(204, 204, 204)" stroke-width="1px"></line><line x1="20.630580357142858" y1="0" x2="20.630580357142858" y2="5" style="visibility: inherit;" fill="rgb(0, 0, 0)" stroke="rgb(204, 204, 204)" stroke-width="1px"></line><line x1="41.261160714285715" y1="0" x2="41.261160714285715" y2="5" style="visibility: inherit;" fill="rgb(0, 0, 0)" stroke="rgb(204, 204, 204)" stroke-width="1px"></line><line x1="61.89174107142857" y1="0" x2="61.89174107142857" y2="5" style="visibility: inherit;" fill="rgb(0, 0, 0)" stroke="rgb(204, 204, 204)" stroke-width="1px"></line><line x1="82.52232142857143" y1="0" x2="82.52232142857143" y2="5" style="visibility: inherit;" fill="rgb(0, 0, 0)" stroke="rgb(204, 204, 204)" stroke-width="1px"></line><line x1="103.15290178571429" y1="0" x2="103.15290178571429" y2="5" style="visibility: inherit;" fill="rgb(0, 0, 0)" stroke="rgb(204, 204, 204)" stroke-width="1px"></line><line x1="123.78348214285714" y1="0" x2="123.78348214285714" y2="5" style="visibility: inherit;" fill="rgb(0, 0, 0)" stroke="rgb(204, 204, 204)" stroke-width="1px"></line><line x1="144.4140625" y1="0" x2="144.4140625" y2="5" style="visibility: inherit;" fill="rgb(0, 0, 0)" stroke="rgb(204, 204, 204)" stroke-width="1px"></line><line x1="165.04464285714286" y1="0" x2="165.04464285714286" y2="5" style="visibility: inherit;" fill="rgb(0, 0, 0)" stroke="rgb(204, 204, 204)" stroke-width="1px"></line><line x1="185.67522321428572" y1="0" x2="185.67522321428572" y2="5" style="visibility: inherit;" fill="rgb(0, 0, 0)" stroke="rgb(204, 204, 204)" stroke-width="1px"></line><line x1="206.30580357142858" y1="0" x2="206.30580357142858" y2="5" style="visibility: inherit;" fill="rgb(0, 0, 0)" stroke="rgb(204, 204, 204)" stroke-width="1px"></line><line x1="226.93638392857142" y1="0" x2="226.93638392857142" y2="5" style="visibility: inherit;" fill="rgb(0, 0, 0)" stroke="rgb(204, 204, 204)" stroke-width="1px"></line><line x1="247.56696428571428" y1="0" x2="247.56696428571428" y2="5" style="visibility: inherit;" fill="rgb(0, 0, 0)" stroke="rgb(204, 204, 204)" stroke-width="1px"></line><line x1="268.19754464285717" y1="0" x2="268.19754464285717" y2="5" style="visibility: inherit;" fill="rgb(0, 0, 0)" stroke="rgb(204, 204, 204)" stroke-width="1px"></line><line x1="288.828125" y1="0" x2="288.828125" y2="5" style="visibility: inherit;" fill="rgb(0, 0, 0)" stroke="rgb(204, 204, 204)" stroke-width="1px"></line></g><g transform="translate(0, 8)"><text x="0" y="0" dx="0em" dy="0.95em" style="text-anchor: middle; visibility: hidden; font-family: Roboto, sans-serif; font-size: 12px; font-weight: 200;" fill="rgb(33, 33, 33)" stroke="none" stroke-width="1px">-2k</text><text x="20.630580357142858" y="0" dx="0em" dy="0.95em" style="text-anchor: middle; visibility: inherit; font-family: Roboto, sans-serif; font-size: 12px; font-weight: 200;" fill="rgb(33, 33, 33)" stroke="none" stroke-width="1px">0</text><text x="41.261160714285715" y="0" dx="0em" dy="0.95em" style="text-anchor: middle; visibility: hidden; font-family: Roboto, sans-serif; font-size: 12px; font-weight: 200;" fill="rgb(33, 33, 33)" stroke="none" stroke-width="1px">2k</text><text x="61.89174107142857" y="0" dx="0em" dy="0.95em" style="text-anchor: middle; visibility: inherit; font-family: Roboto, sans-serif; font-size: 12px; font-weight: 200;" fill="rgb(33, 33, 33)" stroke="none" stroke-width="1px">4k</text><text x="82.52232142857143" y="0" dx="0em" dy="0.95em" style="text-anchor: middle; visibility: hidden; font-family: Roboto, sans-serif; font-size: 12px; font-weight: 200;" fill="rgb(33, 33, 33)" stroke="none" stroke-width="1px">6k</text><text x="103.15290178571429" y="0" dx="0em" dy="0.95em" style="text-anchor: middle; visibility: inherit; font-family: Roboto, sans-serif; font-size: 12px; font-weight: 200;" fill="rgb(33, 33, 33)" stroke="none" stroke-width="1px">8k</text><text x="123.78348214285714" y="0" dx="0em" dy="0.95em" style="text-anchor: middle; visibility: hidden; font-family: Roboto, sans-serif; font-size: 12px; font-weight: 200;" fill="rgb(33, 33, 33)" stroke="none" stroke-width="1px">10k</text><text x="144.4140625" y="0" dx="0em" dy="0.95em" style="text-anchor: middle; visibility: inherit; font-family: Roboto, sans-serif; font-size: 12px; font-weight: 200;" fill="rgb(33, 33, 33)" stroke="none" stroke-width="1px">12k</text><text x="165.04464285714286" y="0" dx="0em" dy="0.95em" style="text-anchor: middle; visibility: hidden; font-family: Roboto, sans-serif; font-size: 12px; font-weight: 200;" fill="rgb(33, 33, 33)" stroke="none" stroke-width="1px">14k</text><text x="185.67522321428572" y="0" dx="0em" dy="0.95em" style="text-anchor: middle; visibility: inherit; font-family: Roboto, sans-serif; font-size: 12px; font-weight: 200;" fill="rgb(33, 33, 33)" stroke="none" stroke-width="1px">16k</text><text x="206.30580357142858" y="0" dx="0em" dy="0.95em" style="text-anchor: middle; visibility: hidden; font-family: Roboto, sans-serif; font-size: 12px; font-weight: 200;" fill="rgb(33, 33, 33)" stroke="none" stroke-width="1px">18k</text><text x="226.93638392857142" y="0" dx="0em" dy="0.95em" style="text-anchor: middle; visibility: inherit; font-family: Roboto, sans-serif; font-size: 12px; font-weight: 200;" fill="rgb(33, 33, 33)" stroke="none" stroke-width="1px">20k</text><text x="247.56696428571428" y="0" dx="0em" dy="0.95em" style="text-anchor: middle; visibility: hidden; font-family: Roboto, sans-serif; font-size: 12px; font-weight: 200;" fill="rgb(33, 33, 33)" stroke="none" stroke-width="1px">22k</text><text x="268.19754464285717" y="0" dx="0em" dy="0.95em" style="text-anchor: middle; visibility: inherit; font-family: Roboto, sans-serif; font-size: 12px; font-weight: 200;" fill="rgb(33, 33, 33)" stroke="none" stroke-width="1px">24k</text><text x="288.828125" y="0" dx="0em" dy="0.95em" style="text-anchor: middle; visibility: hidden; font-family: Roboto, sans-serif; font-size: 12px; font-weight: 200;" fill="rgb(33, 33, 33)" stroke="none" stroke-width="1px">26k</text></g><line x1="0" y1="0" x2="288.828125" y2="0" fill="rgb(0, 0, 0)" stroke="rgb(204, 204, 204)" stroke-width="1px"></line></g></g></g></g></svg>